<svg width="114" height="114" viewBox="0 0 114 114" fill="none" xmlns="http://www.w3.org/2000/svg">
<path d="M37.4568 83.3942C32.4032 83.3942 28.2693 87.5282 28.2693 92.582C28.2693 97.6355 32.4032 101.769 37.4568 101.769C42.5104 101.769 46.6445 97.6355 46.6445 92.582C46.6443 87.528 42.5102 83.3942 37.4568 83.3942ZM10.601 11.3077V20.4952H19.7885L36.3267 53.9947L29.4122 65.2481C28.7236 66.3965 28.2638 68.0047 28.2638 69.6132C28.2638 75.764 32.4655 78.8007 38.1635 78.8007H91.8751V69.9666H39.2884C38.5997 69.9666 38.1399 69.5068 38.1399 68.8181C38.1399 68.5893 38.6273 67.6697 38.6273 67.6697L43.2171 60.4257H77.4392C80.8848 60.4257 83.8722 58.5889 85.4783 55.6032L102.016 27.1572C102.289 26.6137 102.476 25.7778 102.476 24.8606C102.476 22.3327 100.408 20.4954 97.8823 20.4954H29.8957L25.5307 11.3077H10.601ZM82.6874 83.3942C77.6338 83.3942 73.4999 87.5282 73.4999 92.582C73.4999 97.6355 77.6338 101.769 82.6874 101.769C87.7409 101.769 91.8751 97.6353 91.8751 92.5817C91.8751 87.528 87.7409 83.3942 82.6874 83.3942Z" fill="white"/>
</svg>
