<svg width="46" height="46" viewBox="0 0 46 46" fill="none" xmlns="http://www.w3.org/2000/svg">
<mask id="mask0_141_849" style="mask-type:luminance" maskUnits="userSpaceOnUse" x="0" y="0" width="46" height="46">
<path d="M46 0H0V46H46V0Z" fill="white"/>
</mask>
<g mask="url(#mask0_141_849)">
<path d="M44.6523 37.9141H43.9715C44.121 37.4922 44.2031 37.0388 44.2031 36.5664C44.2031 35.5318 43.8118 34.587 43.1703 33.8711C43.8118 33.1552 44.2031 32.2104 44.2031 31.1758C44.2031 30.7034 44.121 30.25 43.9715 29.8281H44.6523C45.3967 29.8281 46 29.2248 46 28.4805C46 23.7742 42.1711 19.9453 37.4648 19.9453H27.5547L27.7722 16.3516H28.3008C29.0452 16.3516 29.6484 15.7483 29.6484 15.0039V9.6133C29.6484 8.8689 29.0452 8.2656 28.3008 8.2656H17.3121L20.9448 2.6953H25.6055C26.3498 2.6953 26.9531 2.092 26.9531 1.3477C26.9531 0.60329 26.3498 0 25.6055 0H20.2148C19.7593 0 19.3347 0.22987 19.0862 0.61136L14.0942 8.2656H1.3477C0.60329 8.2656 0 8.8689 0 9.6133V15.0039C0 15.7483 0.60329 16.3516 1.3477 16.3516H1.8762L3.5962 44.7338C3.6394 45.4451 4.2286 46 4.9414 46H39.2617C42.9772 46 46 42.9772 46 39.2617C46 38.5173 45.3967 37.9141 44.6523 37.9141ZM19.0469 36.5664C19.0469 35.8234 19.6516 35.2188 20.3945 35.2188H40.1602C40.9031 35.2188 41.5078 35.8234 41.5078 36.5664C41.5078 37.3094 40.9031 37.9141 40.1602 37.9141H20.3945C19.6516 37.9141 19.0469 37.3094 19.0469 36.5664ZM41.5078 31.1758C41.5078 31.9187 40.9031 32.5234 40.1602 32.5234H20.3945C19.6516 32.5234 19.0469 31.9187 19.0469 31.1758C19.0469 30.4328 19.6516 29.8281 20.3945 29.8281H40.1602C40.9031 29.8281 41.5078 30.4328 41.5078 31.1758ZM43.1478 27.1328H17.4069C18.0168 24.5603 20.3335 22.6406 23.0898 22.6406H37.4648C40.2212 22.6406 42.5379 24.56 43.1478 27.1328ZM2.6953 10.9609H14.8179L14.8228 10.9613L14.826 10.9609H26.9531V13.6562H26.5057H26.5039H3.1445H3.1428H2.6953V10.9609ZM5.0835 24.719C5.1857 24.7112 5.2878 24.707 5.3906 24.707C7.6199 24.707 9.4336 26.5208 9.4336 28.75C9.4336 30.9182 7.7178 32.6929 5.5724 32.7884L5.0835 24.719ZM5.7356 35.4795C9.2915 35.2995 12.1289 32.3497 12.1289 28.75C12.1289 25.0345 9.1062 22.0117 5.3906 22.0117C5.2334 22.0117 5.0769 22.0184 4.9203 22.0293L4.5764 16.3516H25.072L24.8544 19.9453H23.0898C18.3836 19.9453 14.5547 23.7742 14.5547 28.4805C14.5547 29.2248 15.158 29.8281 15.9023 29.8281H16.5832C16.4337 30.25 16.3516 30.7034 16.3516 31.1758C16.3516 32.2104 16.7429 33.1552 17.3844 33.8711C16.7429 34.587 16.3516 35.5318 16.3516 36.5664C16.3516 37.0388 16.4337 37.4922 16.5832 37.9141H15.9023C15.158 37.9141 14.5547 38.5173 14.5547 39.2617C14.5547 40.7775 15.058 42.1778 15.9059 43.3047H6.2097L5.7356 35.4795ZM39.2617 43.3047H21.293C19.5358 43.3047 18.0372 42.1781 17.4809 40.6094H43.0738C42.5175 42.1781 41.0189 43.3047 39.2617 43.3047Z" fill="black"/>
</g>
</svg>
