<svg width="46" height="42" viewBox="0 0 46 42" fill="none" xmlns="http://www.w3.org/2000/svg">
<path d="M44.6523 19.6523H1.3477C0.60339 19.6523 0 20.2557 0 21C0 28.0754 4.2952 34.4516 10.7812 37.1564V39.8672C10.7812 40.6115 11.3846 41.2148 12.1289 41.2148H33.8711C34.6154 41.2148 35.2188 40.6115 35.2188 39.8672V37.1564C41.7367 34.4382 46 28.0422 46 21C46 20.2557 45.3966 19.6523 44.6523 19.6523ZM43.243 22.3477C43.1584 23.2686 42.9869 24.17 42.7376 25.043H3.2624C3.0131 24.17 2.8416 23.2686 2.757 22.3477H43.243ZM33.4213 34.9614C32.8832 35.152 32.5234 35.661 32.5234 36.2318V38.5195H13.4766V36.2318C13.4766 35.661 13.1168 35.152 12.5787 34.9614C8.9294 33.6695 6.0211 31.0361 4.3281 27.7383H41.6719C39.979 31.0361 37.0706 33.6695 33.4213 34.9614Z" fill="black"/>
<path d="M13.9609 13.8671C14.4871 14.3934 15.3405 14.3934 15.8668 13.8671C17.8785 11.8554 17.8785 8.58228 15.8668 6.57058C14.9038 5.60748 14.9037 4.04888 15.8668 3.08578C16.3931 2.55948 16.3931 1.70628 15.8668 1.17988C15.3406 0.653581 14.4872 0.653581 13.9609 1.17988C11.9492 3.19158 11.9492 6.46468 13.9609 8.47638C14.9239 9.43948 14.924 10.9981 13.9609 11.9612C13.4346 12.4875 13.4346 13.3407 13.9609 13.8671Z" fill="black"/>
<path d="M22.0469 13.8671C22.5731 14.3934 23.4264 14.3934 23.9527 13.8671C25.9644 11.8554 25.9644 8.58228 23.9527 6.57058C22.9898 5.60748 22.9897 4.04888 23.9527 3.08578C24.479 2.55948 24.479 1.70628 23.9527 1.17988C23.4265 0.653581 22.5732 0.653581 22.0469 1.17988C20.0352 3.19158 20.0352 6.46468 22.0469 8.47638C23.0098 9.43948 23.0099 10.9981 22.0469 11.9612C21.5205 12.4875 21.5205 13.3407 22.0469 13.8671Z" fill="black"/>
<path d="M30.1328 13.8671C30.659 14.3934 31.5123 14.3934 32.0386 13.8671C34.0503 11.8554 34.0503 8.58228 32.0386 6.57058C31.0758 5.60758 31.0756 4.04888 32.0386 3.08578C32.565 2.55948 32.565 1.70628 32.0386 1.17988C31.5124 0.653581 30.6591 0.653581 30.1328 1.17988C28.1211 3.19158 28.1211 6.46468 30.1328 8.47638C31.0956 9.43938 31.0958 10.9982 30.1328 11.9612C29.6064 12.4875 29.6064 13.3407 30.1328 13.8671Z" fill="black"/>
</svg>
