<svg width="20" height="20" viewBox="0 0 20 20" fill="none" xmlns="http://www.w3.org/2000/svg">
<g clip-path="url(#clip0_252_204)">
<path d="M10 0.833313C9.33696 0.833313 8.70107 1.09671 8.23223 1.56555C7.76339 2.03439 7.5 2.67027 7.5 3.33331V9.99998C7.5 10.663 7.76339 11.2989 8.23223 11.7677C8.70107 12.2366 9.33696 12.5 10 12.5C10.663 12.5 11.2989 12.2366 11.7678 11.7677C12.2366 11.2989 12.5 10.663 12.5 9.99998V3.33331C12.5 2.67027 12.2366 2.03439 11.7678 1.56555C11.2989 1.09671 10.663 0.833313 10 0.833313Z" stroke="white" stroke-width="2" stroke-linecap="round" stroke-linejoin="round"/>
<path d="M15.8334 8.33331V9.99998C15.8334 11.5471 15.2188 13.0308 14.1248 14.1248C13.0308 15.2187 11.5471 15.8333 10 15.8333C8.45292 15.8333 6.96919 15.2187 5.87523 14.1248C4.78127 13.0308 4.16669 11.5471 4.16669 9.99998V8.33331" stroke="white" stroke-width="2" stroke-linecap="round" stroke-linejoin="round"/>
<path d="M10 15.8333V19.1666" stroke="white" stroke-width="2" stroke-linecap="round" stroke-linejoin="round"/>
<path d="M6.66669 19.1667H13.3334" stroke="white" stroke-width="2" stroke-linecap="round" stroke-linejoin="round"/>
</g>
<defs>
<clipPath id="clip0_252_204">
<rect width="20" height="20" fill="white"/>
</clipPath>
</defs>
</svg>
