<svg width="35" height="35" viewBox="0 0 35 35" fill="none" xmlns="http://www.w3.org/2000/svg">
<path d="M20.4166 4.375V30.625H4.37496C3.98819 30.625 3.61725 30.4714 3.34376 30.1979C3.07027 29.9244 2.91663 29.5534 2.91663 29.1667V21.1458C3.88356 21.1458 4.81089 20.7617 5.49462 20.078C6.17835 19.3943 6.56246 18.4669 6.56246 17.5C6.56246 16.5331 6.17835 15.6057 5.49462 14.922C4.81089 14.2383 3.88356 13.8542 2.91663 13.8542V5.83333C2.91663 5.44656 3.07027 5.07563 3.34376 4.80214C3.61725 4.52865 3.98819 4.375 4.37496 4.375H20.4166ZM23.3333 4.375H30.625C31.0117 4.375 31.3827 4.52865 31.6562 4.80214C31.9296 5.07563 32.0833 5.44656 32.0833 5.83333V13.8542C31.1164 13.8542 30.189 14.2383 29.5053 14.922C28.8216 15.6057 28.4375 16.5331 28.4375 17.5C28.4375 18.4669 28.8216 19.3943 29.5053 20.078C30.189 20.7617 31.1164 21.1458 32.0833 21.1458V29.1667C32.0833 29.5534 31.9296 29.9244 31.6562 30.1979C31.3827 30.4714 31.0117 30.625 30.625 30.625H23.3333V4.375Z" fill="#0078AD"/>
</svg>
