<svg width="35" height="38" viewBox="0 0 35 38" fill="none" xmlns="http://www.w3.org/2000/svg">
<path d="M2.69232 32.2818C2.69232 33.7099 3.25963 35.0795 4.26944 36.0893C5.27925 37.0991 6.64885 37.6665 8.07694 37.6665H15.8173C15.9066 37.6665 15.9922 37.631 16.0553 37.5679C16.1184 37.5048 16.1539 37.4192 16.1539 37.3299V21.8491C16.1539 21.7599 16.1184 21.6743 16.0553 21.6112C15.9922 21.5481 15.9066 21.5126 15.8173 21.5126H3.3654C3.18689 21.5126 3.01569 21.5835 2.88946 21.7097C2.76324 21.836 2.69232 22.0072 2.69232 22.1857V32.2818Z" fill="#0078AD"/>
<path d="M16.1538 18.4838V9.39721H18.8462V18.4838C18.8462 18.573 18.8816 18.6586 18.9447 18.7217C19.0078 18.7848 19.0934 18.8203 19.1827 18.8203H30.9615C31.4201 18.8203 31.8754 18.742 32.3077 18.5889C33.0944 18.3096 33.7754 17.7938 34.2574 17.1122C34.7394 16.4306 34.9988 15.6166 35 14.7818V13.4357C35 12.3646 34.5745 11.3374 33.8172 10.58C33.0598 9.82269 32.0326 9.39721 30.9615 9.39721H27.5507C27.5214 9.39674 27.4927 9.38863 27.4675 9.37367C27.4423 9.35871 27.4215 9.33743 27.407 9.31192C27.3926 9.28642 27.385 9.25759 27.3851 9.22828C27.3853 9.19896 27.393 9.17019 27.4077 9.14481C28.1866 7.82969 28.4396 6.26871 28.1159 4.77488C27.7923 3.28105 26.9158 1.9648 25.6624 1.09007C24.4089 0.215332 22.8711 -0.153221 21.3573 0.0583065C19.8435 0.269834 18.4657 1.04581 17.5 2.23063C16.5343 1.04581 15.1565 0.269834 13.6427 0.0583065C12.1289 -0.153221 10.5911 0.215332 9.33764 1.09007C8.08418 1.9648 7.20774 3.28105 6.88406 4.77488C6.56037 6.26871 6.81336 7.82969 7.59231 9.14481C7.60697 9.17019 7.61474 9.19896 7.61486 9.22828C7.61498 9.25759 7.60744 9.28642 7.59299 9.31192C7.57854 9.33743 7.55768 9.35871 7.53247 9.37367C7.50726 9.38863 7.47859 9.39674 7.44928 9.39721H4.03846C2.9674 9.39721 1.9402 9.82269 1.18284 10.58C0.42548 11.3374 0 12.3646 0 13.4357V14.7818C0.00118817 15.6166 0.260568 16.4306 0.742575 17.1122C1.22458 17.7938 1.90562 18.3096 2.69231 18.5889C3.1246 18.742 3.57985 18.8203 4.03846 18.8203H15.8173C15.9066 18.8203 15.9922 18.7848 16.0553 18.7217C16.1184 18.6586 16.1538 18.573 16.1538 18.4838ZM18.8462 6.03183C18.8462 5.36622 19.0435 4.71556 19.4133 4.16212C19.7831 3.60869 20.3087 3.17734 20.9237 2.92262C21.5386 2.6679 22.2153 2.60125 22.8681 2.73111C23.5209 2.86096 24.1206 3.18148 24.5912 3.65214C25.0619 4.1228 25.3824 4.72245 25.5123 5.37527C25.6421 6.0281 25.5755 6.70476 25.3207 7.3197C25.066 7.93465 24.6347 8.46025 24.0812 8.83004C23.5278 9.19984 22.8771 9.39721 22.2115 9.39721H18.8462V6.03183ZM12.5478 2.67486C13.0089 2.64181 13.4718 2.70409 13.9077 2.85782C14.3437 3.01156 14.7432 3.25345 15.0816 3.56841C15.4199 3.88337 15.6897 4.26465 15.8742 4.68847C16.0587 5.1123 16.1539 5.56959 16.1538 6.03183V9.39721H12.7885C11.9183 9.39498 11.0827 9.05575 10.4573 8.45072C9.83179 7.84569 9.465 7.0219 9.43387 6.15224C9.40274 5.28258 9.70968 4.43467 10.2903 3.78647C10.8709 3.13826 11.68 2.74015 12.5478 2.6757V2.67486Z" fill="#0078AD"/>
<path d="M19.1827 37.6665H26.9231C28.3511 37.6665 29.7207 37.0991 30.7305 36.0893C31.7404 35.0795 32.3077 33.7099 32.3077 32.2818V22.1857C32.3077 22.0072 32.2368 21.836 32.1105 21.7097C31.9843 21.5835 31.8131 21.5126 31.6346 21.5126H19.1827C19.0934 21.5126 19.0078 21.5481 18.9447 21.6112C18.8816 21.6743 18.8461 21.7599 18.8461 21.8491V37.3299C18.8461 37.4192 18.8816 37.5048 18.9447 37.5679C19.0078 37.631 19.0934 37.6665 19.1827 37.6665Z" fill="#0078AD"/>
</svg>
