<svg width="35" height="35" viewBox="0 0 35 35" fill="none" xmlns="http://www.w3.org/2000/svg">
<path d="M32.8308 17.5011L34.7651 14.158C35.2487 13.3188 34.9614 12.2482 34.1256 11.7646L30.779 9.83028V5.97559C30.779 5.00666 29.9958 4.22346 29.0269 4.22346H25.1739L23.2413 0.878634C23.0083 0.477396 22.6246 0.183037 22.1778 0.0621399C21.7292 -0.0605094 21.2509 0.00431978 20.8479 0.237353L17.5013 2.17171L14.1548 0.235601C13.3155 -0.24974 12.2449 0.0393625 11.7614 0.876882L9.827 4.22346H5.97406C5.00513 4.22346 4.22193 5.00666 4.22193 5.97559V9.82853L0.875356 11.7629C0.472366 11.9959 0.17976 12.3796 0.0606148 12.8282C-0.0585303 13.2785 0.00454635 13.7551 0.235828 14.158L2.17018 17.5011L0.235828 20.8442C0.00279422 21.2472 -0.0602823 21.7255 0.0588628 22.1758C0.178008 22.6244 0.470614 23.0081 0.873604 23.2394L4.22018 25.1737V29.0267C4.22018 29.9956 5.00338 30.7788 5.97231 30.7788H9.827L11.7614 34.1254C11.9944 34.5266 12.3781 34.8192 12.8267 34.9419C12.9756 34.9804 13.1263 35.0014 13.2787 35.0014C13.5836 35.0014 13.8867 34.9208 14.1565 34.7649L17.4996 32.8305L20.8462 34.7649C21.2474 34.9979 21.7275 35.0592 22.176 34.9401C22.6246 34.821 23.0083 34.5284 23.2396 34.1254L25.1722 30.7788H29.0251C29.9941 30.7788 30.7773 29.9956 30.7773 29.0267V25.1737L34.1238 23.2394C34.9613 22.754 35.2487 21.6817 34.7634 20.8442L32.8308 17.5011ZM13.1193 8.72293C14.57 8.72293 15.7475 9.90037 15.7475 11.3511C15.7475 12.8019 14.57 13.9793 13.1193 13.9793C11.6685 13.9793 10.4911 12.8019 10.4911 11.3511C10.4911 9.90037 11.6685 8.72293 13.1193 8.72293ZM13.6449 25.5434L10.8415 23.4426L21.3543 9.42554L24.1577 11.5263L13.6449 25.5434ZM21.8799 26.2443C20.4292 26.2443 19.2517 25.0668 19.2517 23.6161C19.2517 22.1653 20.4292 20.9879 21.8799 20.9879C23.3307 20.9879 24.5081 22.1653 24.5081 23.6161C24.5081 25.0668 23.3307 26.2443 21.8799 26.2443Z" fill="#0078AD"/>
</svg>
