<svg width="35" height="30" viewBox="0 0 35 30" fill="none" xmlns="http://www.w3.org/2000/svg">
<path d="M33.1972 22.0148C32.7772 26.6872 29.3997 29.7497 24.4998 29.7497H8.74991C3.91996 29.7497 0 25.8297 0 20.9998V8.74991C0 3.98996 2.86997 0.664993 7.33243 0.104999C7.78742 0.0349995 8.25992 0 8.74991 0H24.4998C24.9547 0 25.3922 0.0174997 25.8122 0.087499C29.9947 0.577494 32.8297 3.49996 33.1972 7.73492C33.2497 8.24242 32.8297 8.66241 32.3222 8.66241H29.6097C27.9297 8.66241 26.3722 9.30991 25.2522 10.4649C23.9223 11.7599 23.2573 13.5799 23.4148 15.3998C23.6948 18.5848 26.4947 21.0873 29.8197 21.0873H32.3222C32.8297 21.0873 33.2497 21.5073 33.1972 22.0148Z" fill="#0078AD"/>
<path d="M35 13.071V16.676C35 17.6384 34.23 18.4259 33.25 18.4609H29.82C27.9301 18.4609 26.1976 17.0784 26.0401 15.1885C25.9351 14.086 26.3551 13.0535 27.0901 12.336C27.7376 11.671 28.6301 11.286 29.61 11.286H33.25C34.23 11.321 35 12.1085 35 13.071Z" fill="#0078AD"/>
</svg>
