<svg width="49" height="48" viewBox="0 0 49 48" fill="none" xmlns="http://www.w3.org/2000/svg">
<path d="M27.825 26.8342C27.573 26.3976 27.2122 26.0338 26.7777 25.7782C26.3432 25.5226 25.8499 25.384 25.3458 25.3759H6.67917L5.83333 22.08C5.74787 21.7619 5.55721 21.482 5.2924 21.2861C5.02759 21.0901 4.70424 20.9896 4.375 21.0009H1.45833C1.07156 21.0009 0.700626 21.1545 0.427136 21.428C0.153645 21.7015 0 22.0724 0 22.4592C0 22.846 0.153645 23.2169 0.427136 23.4904C0.700626 23.7639 1.07156 23.9175 1.45833 23.9175H3.26667L7.29167 38.88C7.37713 39.1982 7.56779 39.478 7.8326 39.674C8.09741 39.8699 8.42076 39.9705 8.75 39.9592H21.875C22.1443 39.9584 22.4081 39.883 22.6372 39.7414C22.8663 39.5999 23.0517 39.3976 23.1729 39.1571L27.9563 29.5904C28.1636 29.1559 28.2601 28.6767 28.2372 28.1958C28.2143 27.7149 28.0727 27.2471 27.825 26.8342Z" fill="white"/>
<path d="M8.02075 47.2509C9.22887 47.2509 10.2083 46.2715 10.2083 45.0634C10.2083 43.8552 9.22887 42.8759 8.02075 42.8759C6.81263 42.8759 5.83325 43.8552 5.83325 45.0634C5.83325 46.2715 6.81263 47.2509 8.02075 47.2509Z" fill="white"/>
<path d="M22.6041 47.2509C23.8122 47.2509 24.7916 46.2715 24.7916 45.0634C24.7916 43.8552 23.8122 42.8759 22.6041 42.8759C21.396 42.8759 20.4166 43.8552 20.4166 45.0634C20.4166 46.2715 21.396 47.2509 22.6041 47.2509Z" fill="white"/>
</svg>
