<svg width="25" height="25" viewBox="0 0 25 25" fill="none" xmlns="http://www.w3.org/2000/svg">
<path d="M18.75 8.33331C20.4759 8.33331 21.875 6.9342 21.875 5.20831C21.875 3.48242 20.4759 2.08331 18.75 2.08331C17.0241 2.08331 15.625 3.48242 15.625 5.20831C15.625 6.9342 17.0241 8.33331 18.75 8.33331Z" stroke="#0078AD" stroke-width="2" stroke-linecap="round" stroke-linejoin="round"/>
<path d="M6.25 15.625C7.97589 15.625 9.375 14.2259 9.375 12.5C9.375 10.7741 7.97589 9.375 6.25 9.375C4.52411 9.375 3.125 10.7741 3.125 12.5C3.125 14.2259 4.52411 15.625 6.25 15.625Z" stroke="#0078AD" stroke-width="2" stroke-linecap="round" stroke-linejoin="round"/>
<path d="M18.75 22.9167C20.4759 22.9167 21.875 21.5176 21.875 19.7917C21.875 18.0658 20.4759 16.6667 18.75 16.6667C17.0241 16.6667 15.625 18.0658 15.625 19.7917C15.625 21.5176 17.0241 22.9167 18.75 22.9167Z" stroke="#0078AD" stroke-width="2" stroke-linecap="round" stroke-linejoin="round"/>
<path d="M8.94788 14.0729L16.0625 18.2188" stroke="#0078AD" stroke-width="2" stroke-linecap="round" stroke-linejoin="round"/>
<path d="M16.052 6.78125L8.94788 10.9271" stroke="#0078AD" stroke-width="2" stroke-linecap="round" stroke-linejoin="round"/>
</svg>
