<svg width="64" height="64" viewBox="0 0 64 64" fill="none" xmlns="http://www.w3.org/2000/svg">
<rect width="64" height="64" rx="6" fill="#FFFACA"/>
<g clip-path="url(#clip0_4961_34975)">
<path d="M53.6523 46.9141H52.9715C53.121 46.4922 53.2031 46.0388 53.2031 45.5664C53.2031 44.5318 52.8118 43.587 52.1703 42.8711C52.8118 42.1552 53.2031 41.2104 53.2031 40.1758C53.2031 39.7034 53.121 39.25 52.9715 38.8281H53.6523C54.3967 38.8281 55 38.2248 55 37.4805C55 32.7742 51.1711 28.9453 46.4648 28.9453H36.5547L36.7722 25.3516H37.3008C38.0452 25.3516 38.6484 24.7483 38.6484 24.0039V18.6133C38.6484 17.8689 38.0452 17.2656 37.3008 17.2656H26.3121L29.9448 11.6953H34.6055C35.3498 11.6953 35.9531 11.092 35.9531 10.3477C35.9531 9.60329 35.3498 9 34.6055 9H29.2148C28.7593 9 28.3347 9.22987 28.0862 9.61136L23.0942 17.2656H10.3477C9.60329 17.2656 9 17.8689 9 18.6133V24.0039C9 24.7483 9.60329 25.3516 10.3477 25.3516H10.8762L12.5962 53.7338C12.6394 54.4451 13.2286 55 13.9414 55H48.2617C51.9772 55 55 51.9772 55 48.2617C55 47.5173 54.3967 46.9141 53.6523 46.9141ZM28.0469 45.5664C28.0469 44.8234 28.6516 44.2188 29.3945 44.2188H49.1602C49.9031 44.2188 50.5078 44.8234 50.5078 45.5664C50.5078 46.3094 49.9031 46.9141 49.1602 46.9141H29.3945C28.6516 46.9141 28.0469 46.3094 28.0469 45.5664ZM50.5078 40.1758C50.5078 40.9187 49.9031 41.5234 49.1602 41.5234H29.3945C28.6516 41.5234 28.0469 40.9187 28.0469 40.1758C28.0469 39.4328 28.6516 38.8281 29.3945 38.8281H49.1602C49.9031 38.8281 50.5078 39.4328 50.5078 40.1758ZM52.1478 36.1328H26.4069C27.0168 33.5603 29.3335 31.6406 32.0898 31.6406H46.4648C49.2212 31.6406 51.5379 33.56 52.1478 36.1328ZM11.6953 19.9609H23.8179C23.8197 19.9609 23.8214 19.9613 23.8228 19.9613C23.8239 19.9613 23.8249 19.9609 23.826 19.9609H35.9531V22.6562H35.5057C35.505 22.6562 35.5046 22.6562 35.5039 22.6562H12.1445C12.1438 22.6562 12.1435 22.6562 12.1428 22.6562H11.6953V19.9609ZM14.0835 33.719C14.1857 33.7112 14.2878 33.707 14.3906 33.707C16.6199 33.707 18.4336 35.5208 18.4336 37.75C18.4336 39.9182 16.7178 41.6929 14.5724 41.7884L14.0835 33.719ZM14.7356 44.4795C18.2915 44.2995 21.1289 41.3497 21.1289 37.75C21.1289 34.0345 18.1062 31.0117 14.3906 31.0117C14.2334 31.0117 14.0769 31.0184 13.9203 31.0293L13.5764 25.3516H34.072L33.8544 28.9453H32.0898C27.3836 28.9453 23.5547 32.7742 23.5547 37.4805C23.5547 38.2248 24.158 38.8281 24.9023 38.8281H25.5832C25.4337 39.25 25.3516 39.7034 25.3516 40.1758C25.3516 41.2104 25.7429 42.1552 26.3844 42.8711C25.7429 43.587 25.3516 44.5318 25.3516 45.5664C25.3516 46.0388 25.4337 46.4922 25.5832 46.9141H24.9023C24.158 46.9141 23.5547 47.5173 23.5547 48.2617C23.5547 49.7775 24.058 51.1778 24.9059 52.3047H15.2097L14.7356 44.4795ZM48.2617 52.3047H30.293C28.5358 52.3047 27.0372 51.1781 26.4809 49.6094H52.0738C51.5175 51.1781 50.0189 52.3047 48.2617 52.3047Z" fill="black"/>
</g>
<defs>
<clipPath id="clip0_4961_34975">
<rect width="46" height="46" fill="white" transform="translate(9 9)"/>
</clipPath>
</defs>
</svg>
