<svg width="64" height="64" viewBox="0 0 64 64" fill="none" xmlns="http://www.w3.org/2000/svg">
<rect width="64" height="64" rx="6" fill="#FFFACA"/>
<path d="M53.6523 30.6523H10.3477C9.60339 30.6523 9 31.2557 9 32C9 39.0754 13.2952 45.4516 19.7812 48.1564V50.8672C19.7812 51.6115 20.3846 52.2148 21.1289 52.2148H42.8711C43.6154 52.2148 44.2188 51.6115 44.2188 50.8672V48.1564C50.7367 45.4382 55 39.0422 55 32C55 31.2557 54.3966 30.6523 53.6523 30.6523ZM52.243 33.3477C52.1584 34.2686 51.9869 35.17 51.7376 36.043H12.2624C12.0131 35.17 11.8416 34.2686 11.757 33.3477H52.243ZM42.4213 45.9614C41.8832 46.152 41.5234 46.661 41.5234 47.2318V49.5195H22.4766V47.2318C22.4766 46.661 22.1168 46.152 21.5787 45.9614C17.9294 44.6695 15.0211 42.0361 13.3281 38.7383H50.6719C48.979 42.0361 46.0706 44.6695 42.4213 45.9614Z" fill="black"/>
<path d="M22.9609 24.8671C23.4871 25.3934 24.3405 25.3934 24.8668 24.8671C26.8785 22.8554 26.8785 19.5823 24.8668 17.5706C23.9038 16.6075 23.9037 15.0489 24.8668 14.0858C25.3931 13.5595 25.3931 12.7063 24.8668 12.1799C24.3406 11.6536 23.4872 11.6536 22.9609 12.1799C20.9492 14.1916 20.9492 17.4647 22.9609 19.4764C23.9239 20.4395 23.924 21.9981 22.9609 22.9612C22.4346 23.4875 22.4346 24.3407 22.9609 24.8671Z" fill="black"/>
<path d="M31.0469 24.8671C31.5731 25.3934 32.4264 25.3934 32.9527 24.8671C34.9644 22.8554 34.9644 19.5823 32.9527 17.5706C31.9898 16.6075 31.9897 15.0489 32.9527 14.0858C33.479 13.5595 33.479 12.7063 32.9527 12.1799C32.4265 11.6536 31.5732 11.6536 31.0469 12.1799C29.0352 14.1916 29.0352 17.4647 31.0469 19.4764C32.0098 20.4395 32.0099 21.9981 31.0469 22.9612C30.5205 23.4875 30.5205 24.3407 31.0469 24.8671Z" fill="black"/>
<path d="M39.1328 24.8671C39.659 25.3934 40.5123 25.3934 41.0386 24.8671C43.0503 22.8554 43.0503 19.5823 41.0386 17.5706C40.0758 16.6076 40.0756 15.0489 41.0386 14.0858C41.565 13.5595 41.565 12.7063 41.0386 12.1799C40.5124 11.6536 39.6591 11.6536 39.1328 12.1799C37.1211 14.1916 37.1211 17.4647 39.1328 19.4764C40.0956 20.4394 40.0958 21.9982 39.1328 22.9612C38.6064 23.4875 38.6064 24.3407 39.1328 24.8671Z" fill="black"/>
</svg>
