<svg width="29" height="43" viewBox="0 0 29 43" fill="none" xmlns="http://www.w3.org/2000/svg">
<path d="M25.3193 5.49803H19.2551C18.1593 5.50153 18.2004 7.13954 19.2551 7.12991H25.3193V7.96729H19.2551C18.1655 7.95767 18.2056 9.5948 19.2551 9.59918H25.3193V10.4549H19.2551C18.1655 10.4549 18.2056 12.0912 19.2551 12.0868H25.3193V12.9023H19.2551C18.1881 12.9102 18.2056 14.5482 19.2551 14.5535H25.3193V15.3707H19.2551C18.1881 15.3672 18.1838 17.0026 19.2551 17.0026H25.3193V17.8181H19.2551C18.1881 17.8216 18.1838 19.4587 19.2551 19.4509H25.3193V20.2865H19.2551C18.1881 20.2769 18.1838 21.9123 19.2551 21.9184H25.3193V22.7321H19.2551C18.1881 22.7313 18.2056 24.3702 19.2551 24.3649H25.3193V40.2541C25.3228 42.6753 28.9895 42.6315 29 40.2541V3.07076C28.9895 1.96475 28.084 0.566492 26.5939 0.562117H19.2551C18.1593 0.562992 18.2004 2.201 19.2551 2.194L25.3193 2.21413V3.02788H19.2551C18.1611 3.02263 18.2021 4.65977 19.2551 4.66065H25.3193V5.49803ZM18.8381 33.668C18.8346 30.8417 15.9138 27.8019 12.4241 29.7707V18.9609L10.1671 1.13262C10.12 0.660993 9.72134 0.549867 9.45351 0.541992C9.17695 0.549867 8.62297 0.660993 8.56277 1.13262L6.31717 18.9609V29.7707C2.8275 27.8019 0.000872417 30.861 0 33.6461C0.000872417 36.1241 1.90274 38.1594 4.47637 38.1533C7.06919 38.1594 8.93442 35.8782 8.93442 33.6461V22.4171H9.80683V33.6461C9.80683 36.1451 11.7366 37.9949 13.881 38.1121C13.8453 39.4824 14.2911 41.4372 15.1303 42.2124C16.1144 43.1224 17.2861 41.9587 16.8054 41.011C16.3412 40.129 15.8858 39.6066 16.2557 37.6808C17.8017 36.9632 18.8346 35.453 18.8381 33.668ZM4.57582 35.8914C3.35793 35.8835 2.37385 34.893 2.3721 33.668C2.37385 32.4438 3.35793 31.449 4.57582 31.442C5.78499 31.449 6.76995 32.4438 6.77868 33.668C6.76995 34.8939 5.78499 35.8844 4.57582 35.8914ZM12.0533 33.668C12.0612 32.4438 13.0444 31.449 14.257 31.442C15.4714 31.449 16.4564 32.4438 16.4599 33.668C16.4564 34.893 15.4723 35.8835 14.257 35.8914C13.0444 35.8844 12.0603 34.8939 12.0533 33.668Z" fill="black"/>
</svg>
