<svg width="35" height="22" viewBox="0 0 35 22" fill="none" xmlns="http://www.w3.org/2000/svg">
<path fill-rule="evenodd" clip-rule="evenodd" d="M27.7159 11.0647C27.7159 13.8901 26.7219 16.3025 24.731 18.2934C22.7372 20.2871 20.3276 21.284 17.5022 21.284C14.6882 21.284 12.2786 20.29 10.282 18.2934C8.28828 16.3025 7.28571 13.8901 7.28571 11.0647C7.28571 8.24778 8.28543 5.84674 10.282 3.8473C12.2843 1.85355 14.691 0.850986 17.5022 0.850986C20.3276 0.850986 22.7372 1.85071 24.731 3.8473C26.719 5.84674 27.7159 8.24778 27.7159 11.0647ZM4.66251 9.18199C5.5597 8.56962 6.00972 7.76928 5.93281 5.93788V1.2298C5.92427 0.571862 4.73087 0.492113 4.67106 1.2298L4.62549 5.04924C4.62264 5.76414 3.54886 5.78693 3.55171 5.04924L3.59728 1.09878C3.58304 0.392425 2.44376 0.32122 2.42952 1.09878C2.42952 2.19534 2.38395 3.95268 2.38395 5.04924C2.44091 5.74136 1.44404 5.8325 1.46967 5.04924L1.51525 1.12441C1.48961 0.5918 0.902881 0.40097 0.504133 0.651612C0.0797498 0.922192 0.165196 1.4662 0.148107 1.92476L0 6.43062C0.0227856 7.7408 0.367419 8.80603 1.39277 9.25889C1.54942 9.32725 1.76589 9.38136 2.01653 9.41839L1.66335 20.4068C1.64341 21.059 2.17603 21.5916 2.79979 21.5916H2.9422C3.6457 21.5916 4.24098 20.9907 4.22104 20.2587L3.91059 9.41554C4.23813 9.36427 4.50871 9.28737 4.66251 9.18199ZM30.4018 20.0764L30.3847 10.2073C26.9241 8.2079 28.0263 0.503505 31.4898 0.546228C35.6994 0.594648 36.1979 9.22756 32.5778 10.176L32.8455 20.1163C32.8968 21.9961 30.4046 22.1698 30.4018 20.0764ZM23.4493 11.0561C23.4493 12.7024 22.8711 14.1065 21.7062 15.2715C20.5441 16.4307 19.1399 17.0146 17.4937 17.0146C15.8588 17.0146 14.4546 16.4307 13.2926 15.2715C12.1305 14.1065 11.5495 12.7024 11.5495 11.0561C11.5495 9.42124 12.1305 8.01707 13.2926 6.85785C14.4575 5.69863 15.8588 5.11475 17.4937 5.11475C20.8004 5.1176 23.4493 7.74649 23.4493 11.0561ZM24.8421 11.0561C24.8421 9.03388 24.13 7.30502 22.6974 5.87237C21.2647 4.43973 19.5301 3.72767 17.4937 3.72767C15.4629 3.72767 13.7341 4.43973 12.3099 5.87237C10.8773 7.30502 10.1567 9.03388 10.1567 11.0561C10.1567 13.084 10.8773 14.8129 12.3099 16.2512C13.7341 17.6867 15.4629 18.4073 17.4937 18.4073C19.5273 18.4073 21.2619 17.6867 22.6974 16.2512C24.1272 14.81 24.8421 13.0812 24.8421 11.0561Z" fill="black"/>
</svg>
