<svg width="30" height="43" viewBox="0 0 30 43" fill="none" xmlns="http://www.w3.org/2000/svg">
<path d="M10.566 0.185669L6.03774 6.2231H24.1509L19.6226 0.185669H10.566ZM6.03774 9.24182L15.0943 17.5433L24.1509 9.24182H6.03774ZM5.66038 15.6566C2.29258 18.4593 0 22.6876 0 27.3541C0 35.6501 7.06311 42.542 15 42.542C22.9369 42.542 30 35.6501 30 27.3541C30 22.7228 27.7594 18.5537 24.434 15.7509L21.0377 18.864C23.8167 20.8951 25.7547 24.189 25.7547 27.3541C25.7547 32.5206 20.5262 37.8253 15 37.8253C9.47377 37.8253 4.33962 32.5206 4.33962 27.3541C4.33962 24.1664 6.34016 20.8922 9.15094 18.864L5.66038 15.6566Z" fill="black"/>
</svg>
