<svg width="35" height="34" viewBox="0 0 35 34" fill="none" xmlns="http://www.w3.org/2000/svg">
<path d="M16.1784 11.7455C16.5785 12.2256 16.9786 12.6658 17.4988 13.0259C17.8989 13.266 18.299 13.346 18.7392 13.226C18.9792 13.1459 19.1793 13.1059 19.3794 12.9859C20.5797 12.4257 21.54 11.5854 22.3003 10.5451C22.9405 9.74487 23.3406 8.86459 23.3806 7.82427C23.3806 7.34412 23.3806 6.86397 23.2206 6.42383C22.9405 5.70361 22.3803 5.30348 21.7001 5.06341C20.9799 4.74331 20.2196 4.58326 19.4194 4.50323L19.2593 4.46322C18.4191 4.38319 17.6188 4.30317 16.7786 4.42321C15.8583 4.58326 15.1781 5.02339 14.858 5.94368C14.4578 6.90398 14.4178 7.90429 14.6979 8.90461C15.018 9.94493 15.5382 10.9052 16.1784 11.7455ZM17.5788 12.1856H17.5388C17.4588 12.1056 17.3787 12.0256 17.3387 11.9055C17.3387 11.9055 17.4188 11.8255 17.4588 11.8255C17.4988 11.8255 17.5788 11.9055 17.6188 11.9856C17.6588 12.0656 17.6188 12.1856 17.5788 12.1856ZM19.0993 12.4257C19.0593 12.3857 18.9792 12.3457 18.9792 12.3057C19.0193 12.2657 19.0593 12.1856 19.1393 12.1456C19.2593 12.1056 19.3394 12.1056 19.3394 12.1456C19.3794 12.1456 19.3794 12.1856 19.3794 12.1856C19.3394 12.3057 19.1793 12.4257 19.0993 12.4257ZM22.5003 7.86428C22.5404 7.82427 22.5804 7.82427 22.5804 7.86428C22.6204 7.86428 22.6204 7.90429 22.6204 7.90429C22.6204 8.06434 22.5804 8.26441 22.5404 8.42446L22.5003 8.46447C22.5003 8.46447 22.4603 8.46447 22.4203 8.42446V8.38444V8.26441V8.02433C22.4603 7.98432 22.4603 7.94431 22.5003 7.90429V7.86428ZM22.1002 6.18376C22.1002 6.14374 22.1402 6.06372 22.2203 6.06372C22.2603 6.06372 22.3003 6.10373 22.3403 6.14374C22.4203 6.22377 22.4603 6.30379 22.4603 6.42383C22.5003 6.50386 22.4603 6.62389 22.4203 6.70392C22.4203 6.74393 22.3803 6.74393 22.3803 6.74393C22.3003 6.78394 22.2203 6.70392 22.1802 6.66391C22.0602 6.54387 22.0602 6.34381 22.1002 6.18376ZM21.8201 9.38476C21.8601 9.34474 21.9402 9.34474 21.9402 9.34474C21.9802 9.38476 21.9802 9.38476 21.9802 9.42477C21.9802 9.46478 21.9802 9.54481 21.9402 9.66485C21.8601 9.78488 21.8201 9.86491 21.7001 9.94493C21.6601 9.98495 21.5801 9.98495 21.5801 9.98495C21.54 9.94493 21.5 9.86491 21.54 9.82489C21.5801 9.66485 21.6601 9.5048 21.8201 9.38476ZM21.34 7.66422C21.42 7.58419 21.54 7.58419 21.5801 7.70423C21.5801 7.74424 21.5801 7.78426 21.6201 7.86428C21.6201 7.94431 21.6201 8.10436 21.5801 8.18438C21.54 8.22439 21.54 8.26441 21.5 8.30442C21.42 8.42446 21.3 8.42446 21.26 8.30442C21.1799 8.14437 21.2199 7.78426 21.34 7.66422ZM20.7798 5.74362C20.8598 5.66359 20.9799 5.66359 21.0599 5.74362C21.1399 5.86366 21.1399 5.98369 21.1799 6.10373C21.1799 6.18376 21.1399 6.34381 21.1399 6.42383C21.0999 6.46384 21.0999 6.50386 21.0599 6.54387C20.9799 6.62389 20.8998 6.62389 20.7798 6.54387C20.6598 6.34381 20.6598 5.94368 20.7798 5.74362ZM20.6998 10.9853C20.6198 11.1453 20.4997 11.3054 20.3397 11.3854H20.2196C20.2196 11.3054 20.2596 11.1853 20.2997 11.1053C20.3397 11.0253 20.4597 10.9452 20.5797 10.8652C20.5797 10.8652 20.6598 10.8652 20.6598 10.9052C20.6998 10.9052 20.6998 10.9452 20.6998 10.9853ZM20.3397 9.14468C20.3797 9.10467 20.4597 9.06466 20.4997 9.06466C20.5797 9.10467 20.6198 9.1847 20.6198 9.26472V9.34474C20.6198 9.38476 20.6198 9.42477 20.6598 9.46478C20.6998 9.5048 20.6198 9.54481 20.5797 9.62483C20.4997 9.70486 20.4597 9.78488 20.4197 9.86491C20.2997 9.98495 20.1796 9.94493 20.1396 9.78488C20.0996 9.54481 20.1796 9.34474 20.3397 9.14468ZM19.7395 7.38413C19.8595 7.22408 20.0196 7.26409 20.0596 7.42414C20.0996 7.46416 20.0996 7.54418 20.0996 7.62421C20.1396 7.74424 20.0996 7.90429 20.0596 8.02433C20.0196 8.06434 19.9796 8.14437 19.9395 8.18438C19.8595 8.34443 19.6995 8.30442 19.6595 8.14437C19.5394 7.94431 19.5794 7.54418 19.7395 7.38413ZM19.3394 11.1853C19.2993 11.2653 19.2193 11.3054 19.1793 11.2653C19.0993 11.2653 19.0593 11.1853 19.0593 11.1453C19.0193 11.1053 19.0193 11.0653 19.0193 11.0253C19.0193 10.9452 19.0593 10.8252 19.0993 10.7452C19.1393 10.7052 19.1393 10.6652 19.1793 10.6251C19.2593 10.5451 19.4194 10.5851 19.4594 10.7052C19.4994 10.9052 19.4594 11.0653 19.3394 11.1853ZM19.0993 5.50354C19.2193 5.38351 19.3394 5.38351 19.3794 5.58357C19.4194 5.62358 19.4194 5.70361 19.4194 5.74362C19.4594 5.86366 19.4194 6.02371 19.3794 6.14374C19.3394 6.18376 19.2993 6.26378 19.2593 6.30379C19.1793 6.42383 19.0593 6.42383 18.9792 6.26378C18.8992 6.06372 18.9392 5.70361 19.0993 5.50354ZM18.6191 8.90461C18.7392 8.78457 18.8592 8.78457 18.9392 8.94462V9.10467C18.9792 9.22471 18.9392 9.38476 18.8992 9.46478C18.8992 9.54481 18.8592 9.58482 18.8192 9.62483C18.7392 9.74487 18.6191 9.74487 18.5391 9.58482C18.4591 9.42477 18.4991 9.06466 18.6191 8.90461ZM18.4191 11.7455C18.4991 11.7855 18.5791 11.9055 18.5391 12.0656C18.5391 12.1456 18.4991 12.2256 18.4591 12.2657C18.4591 12.3057 18.3791 12.3457 18.339 12.3457C18.299 12.3457 18.259 12.3057 18.259 12.2256C18.219 12.2256 18.219 12.1856 18.219 12.1456C18.219 12.0656 18.219 11.9456 18.259 11.8655C18.299 11.7855 18.3791 11.7455 18.4191 11.7455ZM17.8589 7.30411C17.8989 7.22408 17.9389 7.18407 17.9789 7.10404C18.059 6.98401 18.179 7.02402 18.259 7.14406C18.3791 7.38413 18.339 7.78426 18.179 7.94431C18.059 8.06434 17.9389 8.06434 17.8589 7.94431C17.8589 7.86428 17.8189 7.78426 17.8189 7.70423C17.8189 7.58419 17.8189 7.42414 17.8589 7.30411ZM17.8989 10.4651C17.9389 10.5051 17.9389 10.5451 17.9789 10.6251C17.9789 10.7052 17.9789 10.8652 17.9389 10.9853C17.8989 11.0653 17.8189 11.1053 17.7789 11.1053C17.6588 11.0653 17.5788 10.9452 17.5788 10.7852C17.5788 10.6652 17.6188 10.5451 17.6588 10.4251C17.7389 10.3451 17.8589 10.3451 17.8989 10.4651ZM17.2587 5.54356C17.2987 5.46353 17.3787 5.34349 17.4188 5.30348C17.5388 5.14343 17.6988 5.18344 17.6988 5.38351C17.7789 5.62358 17.6988 5.86366 17.4988 6.02371C17.4588 6.06372 17.3787 6.10373 17.3387 6.10373C17.2587 6.06372 17.2187 5.98369 17.2187 5.94368V5.82364C17.2187 5.78363 17.1787 5.70361 17.1787 5.70361L17.2587 5.54356ZM16.9386 8.70455C17.0186 8.54449 17.1387 8.54449 17.2187 8.70455C17.2587 8.78457 17.2987 8.86459 17.2987 8.98463C17.3387 9.06466 17.2987 9.22471 17.2587 9.34474C17.2187 9.38476 17.1787 9.46478 17.0987 9.46478C17.0186 9.5048 16.8986 9.38476 16.8986 9.1847C16.8986 9.02464 16.8986 8.86459 16.9386 8.70455ZM16.6985 10.8652C16.6585 10.9052 16.6585 10.9052 16.5785 10.8652C16.4585 10.7452 16.3784 10.5451 16.3784 10.3851C16.3784 10.265 16.4585 10.265 16.4985 10.305C16.6185 10.3851 16.6585 10.4651 16.6985 10.5851C16.7385 10.6652 16.7385 10.8252 16.6985 10.8652ZM16.4585 6.98401C16.5385 6.90398 16.6185 6.90398 16.6585 7.02402C16.6985 7.06403 16.6985 7.14406 16.6985 7.18407C16.7385 7.26409 16.6985 7.42414 16.6585 7.50417C16.6185 7.54418 16.6185 7.58419 16.5785 7.66422C16.4985 7.74424 16.4184 7.70423 16.3384 7.62421C16.2584 7.46416 16.2984 7.10404 16.4585 6.98401ZM16.0183 5.30348C16.0583 5.26347 16.1784 5.22346 16.2184 5.22346C16.2584 5.26347 16.2584 5.30348 16.2984 5.34349C16.2984 5.42352 16.2984 5.54356 16.2184 5.62358C16.1784 5.70361 16.0983 5.78363 16.0183 5.82364C15.9383 5.94368 15.8183 5.86366 15.8183 5.74362C15.8183 5.54356 15.8983 5.42352 16.0183 5.30348ZM15.5782 8.50448C15.5782 8.50448 15.6182 8.50448 15.6182 8.46447C15.6582 8.46447 15.6982 8.50448 15.7382 8.54449C15.8583 8.70455 15.8983 8.86459 15.8983 9.06466C15.8983 9.10467 15.8583 9.1847 15.8183 9.1847C15.7782 9.1847 15.7382 9.14468 15.6982 9.10467C15.6182 9.02464 15.5782 8.90461 15.5382 8.78457C15.5382 8.66453 15.5382 8.54449 15.5782 8.50448ZM15.3781 6.90398C15.3781 6.86397 15.4181 6.82396 15.4581 6.82396C15.4581 6.86397 15.4982 6.90398 15.4982 6.90398C15.5382 6.94399 15.5382 6.98401 15.5382 7.06403C15.5382 7.10404 15.4982 7.22408 15.4581 7.30411C15.4581 7.34412 15.4581 7.38413 15.4181 7.42414C15.4181 7.46416 15.3781 7.50417 15.3381 7.50417C15.3381 7.50417 15.2981 7.46416 15.2981 7.42414C15.2581 7.22408 15.2981 7.06403 15.3781 6.90398ZM17.3787 2.90273C17.4988 3.02277 17.6588 3.14281 17.8189 3.30286C17.8989 3.38288 17.8589 3.42289 17.7789 3.42289C17.6988 3.42289 17.6588 3.42289 17.5788 3.46291C17.5388 3.46291 17.4988 3.46291 17.4588 3.50292C17.4188 3.54293 17.3787 3.62296 17.4588 3.66297C17.4588 3.70298 17.4988 3.74299 17.5388 3.74299C17.8589 3.86303 18.219 3.98307 18.5391 4.06309C18.8592 4.14312 19.1793 4.18313 19.4594 4.22314C19.8995 4.26316 20.3397 4.30317 20.7798 4.30317C21.0199 4.34318 21.26 4.26316 21.54 4.22314C21.5801 4.22314 21.5801 4.18313 21.6201 4.18313C21.6601 4.14312 21.6601 4.06309 21.6201 4.02308C21.5801 4.02308 21.5801 3.98307 21.54 3.98307C21.5 3.94306 21.42 3.94306 21.38 3.90304C21.3 3.86303 21.3 3.82302 21.38 3.78301C21.5 3.70298 21.5801 3.66297 21.6601 3.62296C21.8601 3.50292 22.1002 3.34287 22.2603 3.18282C22.4203 3.06278 22.3803 2.94274 22.1802 2.90273H22.0602C21.8201 2.94274 21.5801 2.94274 21.38 3.02277C21.1399 3.06278 20.9399 3.14281 20.6998 3.22283C20.6198 3.22283 20.5397 3.22283 20.5797 3.18282V3.14281C20.6998 2.94274 20.7798 2.74268 20.8598 2.5026C20.8598 2.42258 20.8598 2.30254 20.7798 2.26253C20.7398 2.22252 20.6198 2.26253 20.5397 2.30254C20.3797 2.42258 20.2596 2.54262 20.0996 2.66266L19.9796 2.78269C19.9395 2.86272 19.8995 2.82271 19.9395 2.70267C20.0596 2.06247 20.2997 1.46228 20.7398 0.942117C20.8198 0.862092 20.8198 0.702042 20.6998 0.66203C20.6198 0.582005 20.4997 0.541992 20.3397 0.541992C20.0996 0.541992 19.9796 0.742055 19.8995 0.942117C19.7395 1.26222 19.6194 1.66234 19.4994 2.02246C19.4594 2.22252 19.4194 2.38257 19.3794 2.62264C19.3794 2.70267 19.3394 2.74268 19.2993 2.62264C19.2593 2.58263 19.2193 2.54262 19.2193 2.46259L18.8592 1.98244C18.7392 1.86241 18.6191 1.94243 18.5791 2.10248C18.5791 2.18251 18.5391 2.30254 18.5791 2.38257C18.5791 2.5026 18.5791 2.62264 18.6191 2.74268C18.6191 2.86272 18.5791 2.90273 18.4591 2.82271C18.299 2.70267 18.099 2.58263 17.9389 2.46259C17.7389 2.38257 17.4988 2.30254 17.2987 2.22252C17.2187 2.1825 17.0987 2.22252 17.0586 2.26253C17.0186 2.30254 17.0586 2.42258 17.0987 2.5026C17.1787 2.62264 17.2587 2.78269 17.3787 2.90273ZM14.5379 22.1487C14.5779 22.2288 14.6179 22.3088 14.6579 22.4288C14.6579 22.5489 14.6979 22.6689 14.7379 22.7889H15.4181C15.3781 22.5489 15.2981 22.3488 15.2581 22.1487C15.2181 22.0687 15.2181 21.9487 15.2181 21.8687C15.1781 21.7886 15.1781 21.6686 15.138 21.5886C15.058 21.0284 15.018 20.4682 15.058 19.908C14.6179 20.3082 14.0577 20.5883 13.4575 20.7083C13.8576 21.0284 14.1777 21.3885 14.4178 21.8687C14.4578 21.9487 14.4978 22.0687 14.5379 22.1487ZM14.0577 22.5089C14.0177 22.3888 13.9777 22.3088 13.9377 22.1888C13.6576 21.5486 13.0974 21.0684 12.4172 20.8283C12.3372 20.7883 12.2171 20.7483 12.1371 20.7483V20.8283C12.0971 21.0284 12.0171 21.2685 11.937 21.4685C11.697 21.9887 11.3369 22.4288 10.8567 22.7889H14.1377C14.0977 22.6689 14.0977 22.5889 14.0577 22.5089ZM15.5382 17.7874V17.7474C15.5782 17.6673 15.5382 17.5873 15.5382 17.5073C15.5382 17.4273 15.5782 17.3472 15.5782 17.2672C15.4982 16.507 15.138 15.8668 14.5779 15.4266C14.0977 15.8668 13.4575 16.1469 12.7773 16.2269H12.4572C12.0971 16.2269 11.737 16.1869 11.4169 16.0668C11.4169 16.627 11.2968 17.1472 11.0168 17.6273C11.5369 18.0675 11.937 18.7077 12.0971 19.4279C12.1371 19.5479 12.1771 19.708 12.1771 19.868V20.1081H12.2171C12.2972 20.1081 12.3772 20.1481 12.4972 20.1481C12.6973 20.1881 12.8973 20.1881 13.1374 20.1881C14.0577 20.1081 14.8179 19.5479 15.2581 18.7877C15.2981 18.5876 15.3381 18.3876 15.4181 18.1875L15.4581 18.1075C15.4581 17.9874 15.4982 17.9074 15.5382 17.7874ZM8.33591 22.7489C8.33591 22.7489 8.37592 22.7889 8.41594 22.7889H9.45626C10.5366 22.5489 11.3769 21.7086 11.5769 20.6683C11.5769 20.6283 11.5769 20.5482 11.6169 20.5082V20.3882V20.1081V19.908V19.868C11.5369 19.1478 11.1768 18.5476 10.6967 18.1075C10.5766 18.2275 10.4966 18.3476 10.3766 18.4276C10.2965 18.5076 10.2165 18.5876 10.1365 18.6276C10.0564 18.6677 9.97642 18.7477 9.8964 18.7877C9.49627 19.0678 9.01612 19.2278 8.49596 19.2678C8.37592 19.3079 8.2959 19.3079 8.17586 19.3079C8.09584 19.3079 8.01581 19.2678 7.93579 19.2678C7.93579 19.3479 7.9758 19.4279 7.9758 19.4679C8.05582 20.4682 7.69571 21.3885 7.05551 22.0687C7.41562 22.3888 7.85576 22.6289 8.33591 22.7489ZM11.1768 14.7464C11.2168 14.8265 11.2568 14.9465 11.2968 15.0265C11.2968 15.1466 11.3369 15.2266 11.3769 15.3066V15.4266C11.777 15.6267 12.2571 15.7067 12.6973 15.6667C13.2174 15.6267 13.6976 15.4266 14.0977 15.1065C14.1777 15.0665 14.2578 14.9865 14.2978 14.9065C14.3778 14.8265 14.4578 14.7864 14.5379 14.7064C14.978 14.1863 15.2181 13.466 15.138 12.7458C15.018 11.3454 13.8576 10.305 12.4572 10.305H12.2171C10.7767 10.4651 9.65632 11.7455 9.81637 13.226C10.4166 13.5461 10.8967 14.1062 11.1768 14.7464ZM4.97486 22.4688C5.45501 22.4288 5.89515 22.2288 6.25526 21.9887C6.33529 21.9087 6.41531 21.8687 6.49534 21.7886C6.57536 21.7486 6.61537 21.6686 6.6954 21.5886C7.17555 21.0684 7.45564 20.3082 7.37561 19.5479C7.37561 19.4279 7.3356 19.3079 7.3356 19.1878C7.29559 19.0678 7.25557 18.9477 7.21556 18.8677C7.17555 18.7077 7.13554 18.5876 7.05551 18.4676C7.0155 18.4276 7.0155 18.3876 6.97549 18.3476C6.93547 18.2675 6.89546 18.1875 6.81544 18.1075C6.77542 18.0275 6.6954 17.9474 6.61537 17.9074C6.41531 17.6673 6.13522 17.5073 5.85514 17.3472L5.49502 17.2272C5.37499 17.1872 5.25495 17.1472 5.13491 17.1472C5.01487 17.1072 4.85482 17.1072 4.73479 17.1072H4.49471C3.77448 17.1872 3.13428 17.5073 2.65413 18.0675C2.214 18.6276 1.97392 19.3079 2.05395 20.0281C2.17398 21.5085 3.45438 22.5889 4.97486 22.4688ZM0.493458 10.3451C2.57411 10.9853 4.61475 11.9856 5.77511 13.8662C5.81512 13.9462 5.85514 14.0262 5.93516 14.1062C5.97517 14.2263 6.01519 14.3063 6.09521 14.3863C5.65507 14.9065 5.45501 15.5867 5.53504 16.2669C5.53504 16.427 5.57505 16.507 5.57505 16.627C6.13522 16.7871 6.65539 17.1072 7.05551 17.5073C7.13554 17.5873 7.21556 17.6673 7.25557 17.7474C7.3356 17.7874 7.37561 17.8674 7.41562 17.9474C7.57567 18.1875 7.69571 18.4276 7.77574 18.6677C8.01581 18.7077 8.21587 18.7477 8.41594 18.7077C8.89609 18.6677 9.33622 18.5076 9.73635 18.2275C9.81637 18.1475 9.8964 18.1075 9.97642 18.0275L10.2165 17.7874L10.2565 17.7474C10.2965 17.7074 10.3365 17.6273 10.3766 17.5473C10.4566 17.4673 10.4966 17.3873 10.5366 17.3072C10.7767 16.8671 10.8967 16.3469 10.8567 15.8268V15.7868C10.8567 15.6667 10.8167 15.5467 10.7767 15.4266C10.7767 15.3066 10.7367 15.2266 10.6967 15.1065C10.6566 15.0665 10.6566 14.9865 10.6166 14.9065C10.4566 14.5864 10.2965 14.3463 10.0564 14.1062C9.8964 13.9862 9.77636 13.8662 9.61631 13.7461C9.49627 13.7061 9.41625 13.6661 9.29621 13.5861C8.9361 13.466 8.57599 13.346 8.17586 13.346C8.09584 13.346 8.01581 13.346 7.93579 13.386C7.6557 13.386 7.41562 13.466 7.17555 13.5861L7.0155 13.346C6.97549 13.266 6.89546 13.1459 6.85545 13.0659C5.45501 10.9452 3.21431 9.78488 0.733534 9.02464C-0.0667168 8.74456 -0.306792 10.065 0.493458 10.3451ZM4.37467 12.7858C1.61381 9.98495 0.133346 16.2669 0.133346 16.2669C1.93391 17.2672 7.13554 15.5867 4.37467 12.7858ZM34.344 6.14374C32.0233 6.34381 29.7826 6.82396 27.9821 8.18438C27.862 8.26441 27.742 8.38444 27.5819 8.46447L27.2218 8.82458C26.9417 8.74456 26.6216 8.70455 26.3415 8.70455C24.701 8.70455 23.1806 9.82489 22.6204 11.5854C22.5804 11.6655 22.5404 11.7455 22.5404 11.8255C22.3803 12.2657 21.9802 13.1059 20.8998 13.6661C19.3794 14.4263 18.5791 15.1466 18.5791 15.1466C17.6988 15.8268 16.9386 16.7471 16.4585 17.7874C16.4184 17.8674 16.3784 17.9474 16.3784 18.0675L16.2584 18.3075L16.2184 18.4676C15.8983 19.4279 15.8583 20.4682 16.0183 21.4685C16.0183 21.5486 16.0183 21.6686 16.0583 21.7486C16.0583 21.8286 16.0983 21.9487 16.0983 22.0287L16.3384 22.7489H31.143C31.4231 21.5486 31.3831 20.3082 30.983 19.1478C30.5829 17.9874 30.8229 18.0675 30.0227 16.587C29.4225 15.3866 29.6226 14.3863 29.7426 14.0262C29.7826 13.9462 29.7826 13.9062 29.8226 13.8662C29.8626 13.7461 29.9027 13.5861 29.9027 13.466C29.1424 12.9459 28.5422 12.3057 28.3022 11.5454C28.1821 11.1053 28.1021 10.3451 28.7023 9.58482L28.5822 9.46478L28.9424 9.22471C29.0624 9.10467 29.1824 9.02464 29.3025 8.94462L29.5025 8.86459C29.5826 8.82458 29.6226 8.74456 29.6626 8.74456C30.1027 8.46447 30.5028 8.26441 30.903 8.22439C31.9833 7.82427 33.1437 7.62421 34.304 7.54418C35.1843 7.46416 35.2643 6.06372 34.344 6.14374ZM31.2631 8.74456C30.903 8.74456 30.4628 8.90461 29.9827 9.22471C29.9027 9.26472 29.7826 9.34474 29.7026 9.42477C29.5826 9.5048 29.5025 9.58482 29.3825 9.70486C29.2625 9.78488 29.1824 9.90492 29.1024 10.025C28.3822 11.0253 28.9824 12.0656 29.9827 12.8258C30.1427 12.9459 30.2628 13.0259 30.4228 13.1059C30.5429 13.1859 30.6629 13.266 30.8229 13.346C31.5032 13.6661 32.2634 13.8662 32.9436 13.8662C33.1837 13.8662 33.3837 13.8662 33.5838 13.7861C33.5838 13.7861 33.5038 8.74456 31.2631 8.74456ZM2.93422 23.3491C2.93422 31.5917 9.61631 33.5523 17.8989 33.5523C26.1415 33.5523 32.8236 31.5917 32.8236 23.3491H2.93422Z" fill="black"/>
</svg>
