<svg width="35" height="29" viewBox="0 0 35 29" fill="none" xmlns="http://www.w3.org/2000/svg">
<path d="M34.5175 5.81864L23.8712 0.541992C22.7722 2.0621 20.3389 3.1229 17.501 3.1229C14.6631 3.1229 12.2298 2.0621 11.1307 0.541992L0.48448 5.81864C0.0525059 6.03736 -0.122471 6.56229 0.090782 6.99426L3.21849 13.2552C3.43721 13.6871 3.96214 13.8621 4.39412 13.6488L7.48902 12.1342C8.06863 11.8499 8.74667 12.2709 8.74667 12.9216V26.7885C8.74667 27.7564 9.52859 28.5383 10.4964 28.5383H24.4946C25.4624 28.5383 26.2444 27.7564 26.2444 26.7885V12.9161C26.2444 12.2709 26.9224 11.8444 27.502 12.1287L30.5969 13.6434C31.0289 13.8621 31.5538 13.6871 31.7725 13.2497L34.9057 6.99426C35.1244 6.56229 34.9494 6.03189 34.5175 5.81864Z" fill="black"/>
</svg>
