<svg width="35" height="45" viewBox="0 0 35 45" fill="none" xmlns="http://www.w3.org/2000/svg">
<path d="M32.4825 19.4576C34.0295 14.4334 34.8772 9.51039 34.9985 4.82298C35.0335 3.47905 34.4479 1.95236 33.5426 1.02297C32.4623 -0.0853078 30.9932 -0.311631 29.5435 0.434997C27.2204 1.63349 25.5591 5.15896 24.2246 7.99302C24.1476 8.15636 24.0721 8.3158 23.9974 8.47366C23.7027 7.11807 22.8067 5.95847 21.5328 5.35339C21.2326 3.90992 20.0878 2.77909 18.649 2.48588C18.6335 2.40499 18.614 2.32567 18.5899 2.24555C18.2936 1.23294 17.3991 0.470762 16.3663 0.347878C15.769 0.274787 15.2028 0.400753 14.7128 0.686966C14.2929 0.453629 13.8216 0.329209 13.3378 0.329209C11.9853 0.329209 10.8491 1.2726 10.5527 2.53487C9.07427 2.93773 7.99011 4.29488 7.97844 5.87212C6.29154 6.30766 5.06272 7.83202 5.06272 9.64492C5.06272 10.1256 5.15293 10.6015 5.32637 11.0503C4.88851 11.5908 4.64585 12.2675 4.64585 12.9775C4.64585 13.4037 4.73374 13.8144 4.89939 14.1939C4.12244 13.3462 3.02894 12.6532 1.8009 12.6983C1.37159 12.7123 1.03405 13.0709 1.04727 13.5002C1.06049 13.9209 1.40581 14.2538 1.82423 14.2538C1.85067 14.2546 1.87478 14.2522 1.89967 14.2522C2.62841 14.2522 3.30581 14.7344 3.7989 15.2944C2.56541 15.6498 1.07838 16.2285 0.384643 17.5366C-0.032223 18.3229 -0.0812205 19.2881 0.193319 20.3925C0.0548814 20.6188 -0.0127816 20.884 0.00199487 21.1679L1.3257 39.9797C1.44625 42.3386 3.39059 44.1857 5.75179 44.1857H27.5836C29.9448 44.1857 31.8891 42.3386 32.0089 39.9937L33.3668 20.5146C33.3816 20.2361 33.2797 19.9593 33.0876 19.757C32.9297 19.5867 32.7104 19.4887 32.4825 19.4576ZM24.6329 10.6988C24.9408 10.124 25.2768 9.41161 25.6323 8.65643C26.8012 6.1739 28.4033 2.77442 30.2567 1.81781C31.0966 1.38539 31.8145 1.47872 32.4289 2.10866C33.1226 2.81951 33.464 3.99234 33.4438 4.78252C33.3248 9.38048 32.4849 14.2196 30.9465 19.1659C30.896 19.3285 30.784 19.6567 30.6245 20.107L29.2993 20.6958C29.2706 20.709 29.2425 20.723 29.2153 20.7401C28.8404 20.9648 28.4072 21.0761 27.974 21.0807C27.5408 21.0759 27.1084 20.9648 26.7336 20.7401L26.179 20.4072C25.5545 20.0331 24.8398 19.8348 24.1118 19.8348C23.915 19.8348 23.7198 19.8517 23.5269 19.8807C22.988 19.9499 22.4622 20.1257 21.9925 20.408L21.4387 20.7409C21.1362 20.9221 20.7932 21.0107 20.4456 21.0488C20.4625 20.9905 20.482 20.933 20.4992 20.8746C20.7147 20.1404 20.9472 19.4164 21.1898 18.6985C21.2785 18.4357 21.371 18.1751 21.4644 17.9146C21.6674 17.3437 21.8797 16.7791 22.099 16.2199C22.1931 15.9811 22.2833 15.7392 22.3805 15.5028C23.0587 13.8439 23.8077 12.2379 24.6329 10.6988ZM15.6469 19.9001C15.5614 19.9149 15.4766 19.9303 15.3926 19.9507C15.1359 20.0075 14.8839 20.0845 14.6421 20.191L14.4928 19.5082C14.7167 19.5269 14.94 19.5455 15.1492 19.5455C16.5055 19.5455 17.5975 19.1419 18.8527 18.249C19.2478 17.9675 19.5978 17.7544 19.9307 17.5778C19.8591 17.7808 19.7884 17.983 19.7191 18.1868C19.6694 18.333 19.6157 18.4769 19.5675 18.6239C19.3388 19.3161 19.121 20.0137 18.9181 20.7176L18.4009 20.408C17.7763 20.0339 17.0616 19.8356 16.3336 19.8356C16.1455 19.8356 15.9596 19.8536 15.7745 19.8799C15.7324 19.8847 15.6897 19.8939 15.6469 19.9001ZM14.4111 9.38828C14.2369 9.424 14.0642 9.30739 14.0284 9.14254C13.9911 8.9722 14.1039 8.79722 14.2742 8.75989L18.6373 7.81339C18.7882 7.81339 18.9204 7.91995 18.9523 8.06616C18.9773 8.17818 18.9353 8.26603 18.9072 8.30882C18.8799 8.35083 18.8185 8.4247 18.7065 8.44959L14.4111 9.38828ZM14.7175 12.5428C14.8085 12.4261 14.8972 12.3126 14.9827 12.199C15.0442 12.1173 15.0978 12.0326 15.1429 11.9478C15.3343 11.5877 15.3794 11.1841 15.2907 10.7882L18.537 10.0789C18.5587 10.1785 18.5821 10.2772 18.6194 10.369C18.7649 10.7252 19.0246 11.0216 19.3863 11.2284C19.5045 11.2937 19.6281 11.3591 19.7557 11.4267C19.8607 11.482 19.9657 11.5395 20.0715 11.5971C20.122 11.6243 20.1733 11.6515 20.2239 11.6795C20.3165 11.7316 20.4059 11.7892 20.4961 11.846C20.5731 11.8934 20.6493 11.9424 20.724 11.9945C20.8104 12.0544 20.8928 12.1205 20.9752 12.1874C21.0475 12.2465 21.1168 12.311 21.1852 12.3771C21.2591 12.4495 21.3322 12.5234 21.3999 12.6043C21.5197 12.7474 21.6348 12.8959 21.7289 13.074C21.3991 13.802 21.0888 14.5447 20.7886 15.2937C20.7419 15.4095 20.6922 15.5223 20.6463 15.6382C19.7939 15.8544 18.9703 16.2588 17.953 16.9829C16.6713 17.8936 15.717 18.1355 14.1444 17.9076L13.6722 15.7463C13.3518 14.2841 14.0463 13.3991 14.7175 12.5428ZM10.1126 31.8811C10.5419 31.8811 10.8903 32.2288 10.8903 32.6589C10.8903 33.089 10.5419 33.4366 10.1126 33.4366H4.66841C4.2391 33.4366 3.89067 33.089 3.89067 32.6589C3.89067 32.2288 4.2391 31.8811 4.66841 31.8811H10.1126ZM4.66841 34.9921H11.668C12.0973 34.9921 12.4458 35.3397 12.4458 35.7698C12.4458 36.1999 12.0973 36.5476 11.668 36.5476H4.66841C4.2391 36.5476 3.89067 36.1999 3.89067 35.7698C3.89067 35.3397 4.2391 34.9921 4.66841 34.9921ZM6.75818 11.8063L7.2676 11.3863L6.93706 10.8162C6.73018 10.4584 6.62052 10.054 6.62052 9.64493C6.62052 8.385 7.60747 7.35761 8.8674 7.30473L9.81157 7.26507L9.59147 6.34657C9.55413 6.19258 9.53547 6.04091 9.53547 5.89703C9.53547 4.89531 10.3179 4.05147 11.3165 3.97525L12.0351 3.9208V3.14695C12.0577 2.44777 12.634 1.88546 13.3394 1.88546C13.7453 1.88546 14.0362 2.07056 14.2081 2.2261L14.7533 2.7184L15.2759 2.20199C15.5147 1.96556 15.8359 1.85045 16.1835 1.89401C16.6004 1.94302 16.9768 2.2681 17.0982 2.68575C17.1394 2.82574 17.151 2.96106 17.1346 3.09872L17.0436 3.96668H17.9194C19.037 3.96668 19.9718 4.84007 20.0488 5.95534L20.0838 6.46632L20.5668 6.63588C21.7824 7.06285 22.5819 8.21312 22.5546 9.50027C22.5429 10.0501 22.3656 10.5798 22.0445 11.0441C21.5241 10.6023 20.9634 10.3045 20.4921 10.0564C20.37 9.99181 20.2518 9.92958 20.1328 9.86348C20.0993 9.84471 20.0589 9.81216 20.0449 9.73049C20.0261 9.61847 20.0681 9.48393 20.153 9.38517C20.4921 8.99164 20.6282 8.455 20.5185 7.9487L20.4244 7.52017C20.2339 6.64832 19.3231 6.05958 18.4513 6.25479L18.2436 6.2999C18.2413 6.30068 18.2388 6.2999 18.2374 6.30068L15.9547 6.79998L13.7273 7.28607C12.8344 7.48129 12.2667 8.36634 12.4627 9.25996L12.5093 9.4715C12.5093 9.47227 12.5101 9.47539 12.5101 9.47694L12.556 9.68771C12.6688 10.2057 13.0289 10.642 13.5181 10.852C13.6394 10.9041 13.7405 11.0029 13.7755 11.1032C13.7957 11.1607 13.784 11.1903 13.7389 11.2649C13.6612 11.3684 13.5787 11.4741 13.4939 11.5815C13.4076 11.6911 13.3182 11.807 13.228 11.926C13.2 11.9625 13.1735 12.0007 13.1455 12.038C13.0786 12.1282 13.0125 12.2216 12.9456 12.318C12.9122 12.367 12.8795 12.4176 12.8461 12.4681C12.7862 12.5607 12.7279 12.6556 12.6711 12.7544C12.6392 12.8096 12.6081 12.864 12.577 12.9208C12.5179 13.0304 12.4642 13.1463 12.4121 13.2638C12.3904 13.3128 12.367 13.3594 12.3468 13.41C12.2784 13.5803 12.2177 13.7577 12.1687 13.9443C12.1617 13.9723 12.1586 14.0026 12.1516 14.0314C12.1135 14.1916 12.0839 14.3565 12.0637 14.5299C12.0559 14.5984 12.0544 14.6699 12.0497 14.7407C12.0435 14.8325 12.0318 14.9204 12.0318 15.016C12.0092 14.9866 11.9875 14.9616 11.9649 14.9328C11.9136 14.8659 11.8623 14.8053 11.8109 14.7415C11.6958 14.5992 11.5799 14.4638 11.4641 14.3371C11.4073 14.2748 11.3497 14.2134 11.293 14.1551C11.1709 14.0307 11.0472 13.9163 10.9243 13.809C10.8784 13.7693 10.8333 13.725 10.7874 13.6877C10.6233 13.5539 10.4577 13.4357 10.2905 13.3322C10.2399 13.3013 10.1886 13.2778 10.138 13.249C10.0175 13.1813 9.89614 13.1192 9.77404 13.0671C9.70715 13.0383 9.63949 13.0134 9.57183 12.9901C9.46061 12.9504 9.34939 12.9185 9.2374 12.8921C9.16974 12.8759 9.10207 12.8578 9.03441 12.8462C8.89286 12.8223 8.75054 12.8097 8.60743 12.8058C8.57477 12.805 8.54211 12.7966 8.50944 12.7966C7.70137 12.7966 6.96564 13.1115 6.31312 13.537C6.24157 13.3612 6.20423 13.1722 6.20423 12.977C6.20346 12.5228 6.40587 12.0956 6.75818 11.8063ZM1.76123 18.2638C2.09021 17.6439 2.88895 17.1711 4.27565 16.7744C4.92428 16.5893 5.52625 16.2432 6.01467 15.7766C6.23165 15.5689 6.43698 15.3893 6.6353 15.2283C6.81185 15.0844 6.98217 14.9584 7.14627 14.8503C7.15249 14.8463 7.15872 14.8426 7.16494 14.8385C7.49003 14.627 7.79179 14.4862 8.07411 14.4139C8.08578 14.4108 8.09668 14.4084 8.10832 14.4062C8.24676 14.3734 8.3813 14.3548 8.51118 14.3548C9.48958 14.3548 10.5387 15.3309 11.6299 17.2558C12.2015 18.2645 12.3921 19.7539 12.144 21.0527C12.0857 21.0472 12.0289 21.0394 11.9713 21.0302C11.6921 20.9766 11.4215 20.8871 11.1788 20.7417L10.6243 20.4088C9.99978 20.0347 9.28504 19.8364 8.55708 19.8364C8.36031 19.8364 8.1651 19.8533 7.97222 19.8823C7.43325 19.9515 6.90751 20.1272 6.43775 20.4096L6.16788 20.5713C5.70668 20.8474 5.17549 20.9866 4.64274 20.9913C4.10999 20.9865 3.57802 20.8482 3.1176 20.5713L2.06999 19.9421C1.93389 19.8612 1.78534 19.8045 1.63135 19.7757C1.50769 19.1582 1.55124 18.6604 1.76123 18.2638ZM13.2235 39.6585H4.66841C4.2391 39.6585 3.89067 39.3109 3.89067 38.8808C3.89067 38.4507 4.2391 38.103 4.66841 38.103H13.2235C13.6528 38.103 14.0012 38.4507 14.0012 38.8808C14.0012 39.3109 13.6528 39.6585 13.2235 39.6585ZM17.8899 39.6585H16.3344C15.9051 39.6585 15.5567 39.3109 15.5567 38.8808C15.5567 38.4507 15.9051 38.103 16.3344 38.103H17.8899C18.3192 38.103 18.6676 38.4507 18.6676 38.8808C18.6676 39.3109 18.3192 39.6585 17.8899 39.6585ZM27.2943 8.83531C27.3775 8.86329 27.4615 8.87655 27.5447 8.87655C27.869 8.87655 28.1715 8.67278 28.2812 8.34847C28.4601 7.82116 29.0364 7.53729 29.5629 7.71617C30.2123 7.93625 30.9084 7.89115 31.5236 7.58862C32.138 7.28529 32.5976 6.76111 32.8185 6.1117C32.957 5.70572 32.7392 5.26319 32.3324 5.12476C31.9241 4.98553 31.4839 5.20484 31.3455 5.61162C31.2584 5.86749 31.0772 6.07437 30.8353 6.19337C30.5934 6.31237 30.3197 6.33023 30.063 6.24237C28.7237 5.79051 27.2624 6.50915 26.8082 7.84762C26.6697 8.25515 26.8875 8.69688 27.2943 8.83531ZM25.4549 14.2546C25.5374 14.2826 25.6221 14.2958 25.7046 14.2958C26.0289 14.2958 26.3314 14.092 26.4411 13.7677C26.5585 13.4216 26.8035 13.1416 27.1317 12.9799C27.4599 12.8181 27.8309 12.7948 28.177 12.9122C29.7029 13.4286 31.3673 12.6097 31.8852 11.0822C32.0237 10.6762 31.8051 10.2337 31.3992 10.0952C30.9924 9.95525 30.5506 10.1753 30.413 10.5821C30.1703 11.2976 29.3934 11.681 28.6771 11.4384C27.9367 11.1872 27.1442 11.2385 26.4442 11.5846C25.7442 11.9299 25.2201 12.528 24.9688 13.2676C24.8304 13.6744 25.0482 14.1161 25.4549 14.2546ZM23.6148 19.6738C23.6973 19.7018 23.782 19.7151 23.8645 19.7151C24.1888 19.7151 24.4913 19.5113 24.601 19.187C24.8444 18.473 25.6229 18.0896 26.3369 18.3315C27.8628 18.8479 29.5279 18.0289 30.0451 16.5022C30.1836 16.0963 29.9658 15.6537 29.559 15.5153C29.1507 15.3776 28.7105 15.5954 28.5721 16.0022C28.3294 16.7169 27.5509 17.1003 26.8362 16.8577C25.3126 16.3436 23.6459 17.161 23.1279 18.6869C22.9903 19.0937 23.208 19.5354 23.6148 19.6738Z" fill="black"/>
</svg>
