<svg width="35" height="29" viewBox="0 0 35 29" fill="none" xmlns="http://www.w3.org/2000/svg">
<path d="M34.125 23.292H20.8655C20.825 24.3754 20.061 25.042 19.075 25.042H15.75C14.7279 25.042 13.9442 24.0866 13.9579 23.292H0.875C0.39375 23.292 0 23.6857 0 24.167V25.042C0 26.967 1.575 28.542 3.5 28.542H31.5C33.425 28.542 35 26.967 35 25.042V24.167C35 23.6857 34.6063 23.292 34.125 23.292ZM31.5 3.16699C31.5 1.72324 30.3188 0.541992 28.875 0.541992H6.125C4.68125 0.541992 3.5 1.72324 3.5 3.16699V21.542H31.5V3.16699ZM28 18.042H7V4.04199H28V18.042Z" fill="black"/>
</svg>
