<svg width="30" height="30" viewBox="0 0 30 30" fill="none" xmlns="http://www.w3.org/2000/svg">
<g clip-path="url(#clip0_91_235)">
<mask id="mask0_91_235" style="mask-type:luminance" maskUnits="userSpaceOnUse" x="0" y="0" width="30" height="30">
<path d="M30 0H0V30H30V0Z" fill="white"/>
</mask>
<g mask="url(#mask0_91_235)">
<path d="M23.6719 5.85938H6.09375C4.66989 5.85938 3.51562 7.01364 3.51562 8.4375C3.51562 9.86136 4.66989 11.0156 6.09375 11.0156H23.6719C25.0957 11.0156 26.25 9.86136 26.25 8.4375C26.25 7.01364 25.0957 5.85938 23.6719 5.85938Z" fill="#FFE700"/>
<path d="M27.9427 5.28955H2.05736C0.922966 5.28955 0 6.21252 0 7.34704V14.8876C0 16.774 1.53474 18.3087 3.42112 18.3087H26.5791C28.4653 18.3087 30 16.774 30 14.8876V7.34704C30 6.21252 29.0773 5.28955 27.9427 5.28955ZM4.46023 6.94044H25.5398V8.88402C25.5398 9.64815 24.918 10.2699 24.154 10.2699H5.84616C5.08202 10.2699 4.46034 9.64827 4.46034 8.88402L4.46023 6.94044ZM28.3491 14.8876C28.3491 15.8636 27.555 16.6578 26.5788 16.6578H3.42101C2.44498 16.6578 1.65077 15.8638 1.65077 14.8876V7.34704C1.65077 7.12288 1.83308 6.94044 2.05725 6.94044H2.80922V8.88402C2.80922 10.5585 4.17157 11.9208 5.84592 11.9208H24.1537C25.8281 11.9208 27.1903 10.5585 27.1903 8.88402V6.94044H27.9424C28.1665 6.94044 28.3488 7.12288 28.3488 7.34704L28.3491 14.8876Z" fill="black"/>
<path d="M26.3654 14.0615H3.63502C3.17913 14.0615 2.80957 14.4311 2.80957 14.887C2.80957 15.3429 3.17913 15.7124 3.63502 15.7124H26.3654C26.8212 15.7124 27.1908 15.3429 27.1908 14.887C27.1908 14.4311 26.8212 14.0615 26.3654 14.0615Z" fill="black"/>
<path d="M9.92729 20.9141C9.89971 20.8987 9.874 20.8837 9.85004 20.8693C10.2387 20.7022 10.4421 20.2627 10.3074 19.8533C10.1648 19.4203 9.69828 19.1847 9.26528 19.3273C9.06022 19.3947 8.03265 19.7778 7.94364 20.6941C7.88253 21.3231 8.27804 21.8814 9.11917 22.3537C9.39123 22.5064 9.4562 22.621 9.45772 22.6412C9.46623 22.7559 9.24217 23.0582 9.02591 23.2259C8.66211 23.5007 8.58983 24.0182 8.86447 24.3819C9.02673 24.5971 9.27376 24.7103 9.52389 24.7103C9.69711 24.7103 9.87175 24.6559 10.0206 24.5434C10.1394 24.4537 11.1795 23.635 11.1047 22.5299C11.0741 22.0771 10.8448 21.4292 9.92729 20.9141Z" fill="black"/>
<path d="M15.4039 20.9141C15.3763 20.8987 15.3506 20.8837 15.3266 20.8693C15.7153 20.7022 15.9187 20.2627 15.7839 19.8533C15.6414 19.4203 15.1751 19.1847 14.7419 19.3273C14.5368 19.3947 13.5092 19.7778 13.4202 20.6941C13.3591 21.3231 13.7546 21.8814 14.5957 22.3537C14.8678 22.5064 14.9328 22.621 14.9343 22.6412C14.9428 22.7559 14.7187 23.0582 14.5025 23.2259C14.1387 23.5007 14.0664 24.0182 14.3411 24.3819C14.5033 24.5971 14.7503 24.7103 15.0005 24.7103C15.1737 24.7103 15.3483 24.6559 15.4971 24.5434C15.616 24.4537 16.6561 23.635 16.5813 22.5299C16.5506 22.0771 16.3215 21.4292 15.4039 20.9141Z" fill="black"/>
<path d="M20.8804 20.9141C20.8528 20.8987 20.8271 20.8837 20.8032 20.8693C21.1919 20.7022 21.3953 20.2627 21.2605 19.8533C21.1179 19.4203 20.6515 19.1847 20.2184 19.3273C20.0133 19.3947 18.9858 19.7778 18.8968 20.6941C18.8357 21.3231 19.2312 21.8814 20.0723 22.3537C20.3444 22.5064 20.4093 22.621 20.4109 22.6412C20.4193 22.7559 20.1953 23.0582 19.979 23.2259C19.6153 23.5007 19.543 24.0182 19.8176 24.3819C19.9799 24.5971 20.2269 24.7103 20.477 24.7103C20.6503 24.7103 20.8249 24.6559 20.9737 24.5434C21.0926 24.4537 22.1326 23.635 22.0579 22.5299C22.0272 22.0771 21.7981 21.4292 20.8804 20.9141Z" fill="black"/>
</g>
</g>
<defs>
<clipPath id="clip0_91_235">
<rect width="30" height="30" fill="white"/>
</clipPath>
</defs>
</svg>
