<svg width="30" height="30" viewBox="0 0 30 30" fill="none" xmlns="http://www.w3.org/2000/svg">
<path d="M7.61719 4.80469C8.28124 3.63281 9.63281 1.17188 9.72656 0.703125H20.2734L22.9688 5.97656L23.7891 13.3594H6.21094V10.0781L7.61719 4.80469Z" fill="#FFE700" stroke="black"/>
<path d="M20.2734 0H9.72656C9.49348 0 9.26993 0.0926367 9.10512 0.257461C5.37492 3.98759 5.33203 12.9223 5.33203 13.3008C5.33203 13.7862 5.72555 14.1797 6.21094 14.1797H12.3633V16.5319C10.2865 17.5211 8.84766 19.6405 8.84766 22.0898C8.84766 23.347 9.32508 24.5224 10.0299 25.3446C10.0311 25.3463 10.0324 25.3477 10.0336 25.3493C11.1224 26.7045 10.5257 27.7887 9.98215 28.4864C9.92559 28.5588 9.88095 28.6163 9.83918 28.6908C9.68637 28.9629 9.6893 29.2957 9.84696 29.565C10.0046 29.8345 10.2933 30 10.6055 30H19.3945C19.7067 30 19.9954 29.8345 20.153 29.565C20.3107 29.2957 20.3137 28.9629 20.1608 28.6908C20.1191 28.6163 20.0743 28.5588 20.0179 28.4864C19.1973 27.4331 19.0916 26.4298 19.9716 25.343C20.7551 24.3741 21.1523 23.2796 21.1523 22.0898C21.1523 19.6405 19.7135 17.5211 17.6367 16.5319V14.1797H19.3945V15.0586C19.3945 15.544 19.788 15.9375 20.2734 15.9375C20.7588 15.9375 21.1523 15.544 21.1523 15.0586V14.1797H23.7891C24.2745 14.1797 24.668 13.7862 24.668 13.3008C24.668 12.9223 24.6251 3.98759 20.8949 0.257461C20.73 0.0926367 20.5065 0 20.2734 0ZM18.5931 24.2522C17.9651 25.0352 17.176 26.4738 17.8613 28.2422H12.1387C12.6956 26.8052 12.3339 25.3915 11.3936 24.2355C11.0738 23.8397 10.8509 23.4157 10.7256 22.9682H19.2744C19.1344 23.468 18.9055 23.8561 18.5931 24.2522ZM19.3061 21.2109H10.6939C11.1022 19.2075 12.8778 17.6953 15 17.6953C17.1222 17.6953 18.8978 19.2075 19.3061 21.2109ZM14.1211 16.0005V14.1797H15.8789V16.0005C15.5917 15.9593 15.2984 15.9375 15 15.9375C14.7016 15.9375 14.4083 15.9593 14.1211 16.0005ZM7.11609 12.4219C7.2177 10.2258 7.71136 4.48341 10.107 1.75781H19.893C22.2844 4.48001 22.7807 10.2253 22.8834 12.4219H7.11609Z" fill="black"/>
</svg>
