<svg width="31" height="30" viewBox="0 0 31 30" fill="none" xmlns="http://www.w3.org/2000/svg">
<g clip-path="url(#clip0_91_228)">
<mask id="mask0_91_228" style="mask-type:luminance" maskUnits="userSpaceOnUse" x="0" y="0" width="31" height="30">
<path d="M31 0H0V30H31V0Z" fill="white"/>
</mask>
<g mask="url(#mask0_91_228)">
<path d="M1.08984 4.21875C1.13021 9.72656 1.18672 20.8125 1.08984 21.0938L0.96875 21.2109L3.14844 19.5703L5.08594 18.6328H26.5195V0.9375H6.41797L3.75391 1.52344L1.08984 4.21875Z" fill="#FFE700"/>
<path d="M27.3672 3.60398V0H6.35742C2.85185 0 0 2.75986 0 6.15234V23.8477C0 27.2402 2.85185 30 6.35742 30H26.459C28.963 30 31 28.0287 31 25.6055V7.91016C31 5.78796 29.4374 4.01229 27.3672 3.60398ZM1.81641 6.15234C1.81641 3.72916 3.85347 1.75781 6.35742 1.75781H25.5508V17.6953H6.35742C4.58027 17.6953 2.97106 18.4046 1.81641 19.5461V6.15234ZM26.459 28.2422H6.35742C3.85347 28.2422 1.81641 26.2709 1.81641 23.8477C1.81641 21.4245 3.85347 19.4531 6.35742 19.4531H27.3672V5.42449C28.4243 5.78752 29.1836 6.76437 29.1836 7.91016V22.0921C28.4241 21.5392 27.4805 21.2109 26.459 21.2109H6.35742C4.85511 21.2109 3.63281 22.3938 3.63281 23.8477C3.63281 25.3015 4.85511 26.4844 6.35742 26.4844H27.3672V24.7266H6.35742C5.85672 24.7266 5.44922 24.3321 5.44922 23.8477C5.44922 23.3631 5.85672 22.9688 6.35742 22.9688H26.459C27.9613 22.9688 29.1836 24.1516 29.1836 25.6055C29.1836 27.0593 27.9613 28.2422 26.459 28.2422Z" fill="black"/>
</g>
</g>
<defs>
<clipPath id="clip0_91_228">
<rect width="31" height="30" fill="white"/>
</clipPath>
</defs>
</svg>
