<svg width="30" height="30" viewBox="0 0 30 30" fill="none" xmlns="http://www.w3.org/2000/svg">
<g clip-path="url(#clip0_91_189)">
<mask id="mask0_91_189" style="mask-type:luminance" maskUnits="userSpaceOnUse" x="0" y="0" width="30" height="30">
<path d="M30 0H0V30H30V0Z" fill="white"/>
</mask>
<g mask="url(#mask0_91_189)">
<path d="M25.3125 7.96875H4.6875V13.125H25.3125V7.96875Z" fill="#FFE700"/>
<path d="M25.3125 20.3906H4.6875V25.5469H25.3125V20.3906Z" fill="#FFE700"/>
<path d="M27.3633 3.51562C25.9095 3.51562 24.7266 4.69847 24.7266 6.15234V7.03125H12.2163C11.8079 5.02781 10.0324 3.51562 7.91016 3.51562H5.27344V2.63672C5.27344 1.18283 4.09059 0 2.63672 0C1.18283 0 0 1.18283 0 2.63672V29.1211C0 29.6065 0.393516 30 0.878906 30H4.39453C4.87992 30 5.27344 29.6065 5.27344 29.1211V26.4844H24.7266V29.1211C24.7266 29.6065 25.1201 30 25.6055 30H29.1211C29.6065 30 30 29.6065 30 29.1211V6.15234C30 4.69847 28.8171 3.51562 27.3633 3.51562ZM3.51562 16.7578C3.51562 20.6196 3.51562 24.8665 3.51562 28.2422H1.75781V2.63672C1.75781 2.15209 2.15209 1.75781 2.63672 1.75781C3.12134 1.75781 3.51562 2.15209 3.51562 2.63672C3.51562 4.4243 3.51562 14.2825 3.51562 16.7578ZM5.27344 5.27344H7.91016C9.05602 5.27344 10.0335 6.00813 10.3963 7.03125H5.27344V5.27344ZM5.27344 17.6367H7.91016C9.05602 17.6367 10.0335 18.3714 10.3963 19.3945H5.27344V17.6367ZM24.7266 24.7266H5.27344V21.1523C5.8593 21.1523 24.1425 21.1523 24.7266 21.1523V24.7266ZM24.7266 19.3945H12.2163C11.808 17.3911 10.0324 15.8789 7.91016 15.8789H5.27344V14.1211H24.7266V19.3945ZM24.7266 12.3633H5.27344V8.78906C5.8593 8.78906 24.1425 8.78906 24.7266 8.78906V12.3633ZM28.2422 28.2422H26.4844C26.4844 26.7129 26.4844 7.1209 26.4844 6.15234C26.4844 5.66773 26.8786 5.27344 27.3633 5.27344C27.848 5.27344 28.2422 5.66773 28.2422 6.15234V28.2422Z" fill="black"/>
</g>
</g>
<defs>
<clipPath id="clip0_91_189">
<rect width="30" height="30" fill="white"/>
</clipPath>
</defs>
</svg>
