<svg width="35" height="35" viewBox="0 0 35 35" fill="none" xmlns="http://www.w3.org/2000/svg">
<path d="M26.9795 2.9165H9.47949C8.31917 2.9165 7.20637 3.37744 6.3859 4.19791C5.56543 5.01838 5.10449 6.13118 5.10449 7.2915V24.7915C5.10703 25.6941 5.38869 26.5739 5.91086 27.3101C6.43303 28.0464 7.17015 28.6031 8.02116 28.904V30.6248C8.02116 31.0116 8.1748 31.3825 8.4483 31.656C8.72179 31.9295 9.09272 32.0832 9.47949 32.0832C9.86627 32.0832 10.2372 31.9295 10.5107 31.656C10.7842 31.3825 10.9378 31.0116 10.9378 30.6248V29.1665H25.5212V30.6248C25.5212 31.0116 25.6748 31.3825 25.9483 31.656C26.2218 31.9295 26.5927 32.0832 26.9795 32.0832C27.3663 32.0832 27.7372 31.9295 28.0107 31.656C28.2842 31.3825 28.4378 31.0116 28.4378 30.6248V28.904C29.2888 28.6031 30.026 28.0464 30.5481 27.3101C31.0703 26.5739 31.352 25.6941 31.3545 24.7915V7.2915C31.3545 6.13118 30.8936 5.01838 30.0731 4.19791C29.2526 3.37744 28.1398 2.9165 26.9795 2.9165ZM8.02116 11.6665H16.7712V17.4998H8.02116V11.6665ZM28.4378 24.7915C28.4378 25.1783 28.2842 25.5492 28.0107 25.8227C27.7372 26.0962 27.3663 26.2498 26.9795 26.2498H9.47949C9.09272 26.2498 8.72179 26.0962 8.4483 25.8227C8.1748 25.5492 8.02116 25.1783 8.02116 24.7915V20.4165H28.4378V24.7915ZM28.4378 17.4998H19.6878V11.6665H28.4378V17.4998ZM28.4378 8.74984H8.02116V7.2915C8.02116 6.90473 8.1748 6.5338 8.4483 6.26031C8.72179 5.98682 9.09272 5.83317 9.47949 5.83317H26.9795C27.3663 5.83317 27.7372 5.98682 28.0107 6.26031C28.2842 6.5338 28.4378 6.90473 28.4378 7.2915V8.74984ZM23.5087 24.6748C23.684 24.7496 23.8723 24.7892 24.0628 24.7915C24.4496 24.7915 24.8205 24.6379 25.094 24.3644C25.3675 24.0909 25.5212 23.7199 25.5212 23.3332C25.5283 23.2361 25.5283 23.1386 25.5212 23.0415C25.5052 22.9501 25.4757 22.8617 25.4337 22.779C25.4017 22.6861 25.3576 22.5978 25.3024 22.5165C25.2486 22.4401 25.1901 22.3671 25.1274 22.2978L24.9087 22.1228C24.8274 22.0676 24.7391 22.0234 24.6462 21.9915C24.5562 21.9364 24.4576 21.897 24.3545 21.8748C24.118 21.8254 23.8729 21.8355 23.6413 21.9042C23.4096 21.9729 23.1987 22.0982 23.0274 22.2686C22.9647 22.3379 22.9063 22.4109 22.8524 22.4873C22.7972 22.5686 22.7531 22.6569 22.7212 22.7498C22.6791 22.8325 22.6496 22.921 22.6337 23.0123C22.6265 23.1094 22.6265 23.2069 22.6337 23.304C22.6353 23.6866 22.7872 24.0532 23.0566 24.3248C23.1827 24.4702 23.3363 24.5891 23.5087 24.6748ZM11.842 24.6748C12.0173 24.7496 12.2056 24.7892 12.3962 24.7915C12.7829 24.7915 13.1539 24.6379 13.4274 24.3644C13.7008 24.0909 13.8545 23.7199 13.8545 23.3332C13.8617 23.2361 13.8617 23.1386 13.8545 23.0415C13.8385 22.9501 13.809 22.8617 13.767 22.779C13.7351 22.6861 13.6909 22.5978 13.6357 22.5165C13.5819 22.4401 13.5235 22.3671 13.4607 22.2978L13.242 22.1228L12.9795 21.9915L12.6878 21.8748C12.4513 21.8254 12.2062 21.8355 11.9746 21.9042C11.7429 21.9729 11.532 22.0982 11.3607 22.2686C11.298 22.3379 11.2396 22.4109 11.1857 22.4873C11.1305 22.5686 11.0864 22.6569 11.0545 22.7498C11.0124 22.8325 10.983 22.921 10.967 23.0123C10.9598 23.1094 10.9598 23.2069 10.967 23.304C10.9686 23.6866 11.1205 24.0532 11.3899 24.3248C11.516 24.4702 11.6697 24.5891 11.842 24.6748Z" fill="black"/>
</svg>
