<svg width="50" height="50" viewBox="0 0 50 50" fill="none" xmlns="http://www.w3.org/2000/svg">
<path d="M46.7422 40.1874L44.6641 37.1484L31.0391 12.8515C30.4253 11.7924 29.544 10.9132 28.4834 10.302C27.4228 9.69085 26.2202 9.36914 24.9961 9.36914C23.772 9.36914 22.5694 9.69085 21.5088 10.302C20.4482 10.9132 19.5669 11.7924 18.9531 12.8515L5.28125 37.25L3.26562 40.1796C3.17444 40.3103 3.12538 40.4656 3.125 40.625V41.4062C3.125 41.6134 3.20731 41.8121 3.35382 41.9586C3.50034 42.1051 3.69905 42.1875 3.90625 42.1875C4.11345 42.1875 4.31216 42.1051 4.45868 41.9586C4.60519 41.8121 4.6875 41.6134 4.6875 41.4062V40.8671L4.99219 40.4218C5.03125 40.4921 5.0625 40.5703 5.10156 40.6406C5.37388 41.1172 5.76901 41.5121 6.24581 41.7842C6.7226 42.0562 7.26361 42.1955 7.8125 42.1875H42.1875C42.7327 42.1884 43.2682 42.0441 43.7392 41.7695C44.2101 41.4949 44.5995 41.0998 44.8672 40.625C44.9062 40.5546 44.9375 40.4765 44.9766 40.4062L45.2812 40.8515V41.4062C45.2812 41.6134 45.3636 41.8121 45.5101 41.9586C45.6566 42.1051 45.8553 42.1875 46.0625 42.1875C46.2697 42.1875 46.4684 42.1051 46.6149 41.9586C46.7614 41.8121 46.8438 41.6134 46.8438 41.4062V40.625C46.8534 40.4723 46.8181 40.3202 46.7422 40.1874ZM20.7734 40.625C21.7451 38.6755 22.5982 36.6693 23.3281 34.6171C23.9915 32.7144 24.5496 30.7765 25 28.8125C25.4844 30.7812 26.0703 32.7187 26.7344 34.6171C27.4697 36.6614 28.3093 38.6667 29.25 40.625H20.7734ZM43.5391 38.3437C43.6752 38.573 43.7471 38.8348 43.7471 39.1015C43.7471 39.3682 43.6752 39.63 43.5391 39.8593C43.4001 40.0937 43.2023 40.2877 42.9652 40.422C42.7281 40.5563 42.46 40.6263 42.1875 40.625H30.9922C29.9486 38.5035 29.0304 36.3227 28.2422 34.0937C27.1841 31.0892 26.3613 28.007 25.7812 24.8749V23.4374C25.7812 23.2302 25.6989 23.0315 25.5524 22.885C25.4059 22.7385 25.2072 22.6562 25 22.6562C24.7928 22.6562 24.5941 22.7385 24.4476 22.885C24.3011 23.0315 24.2188 23.2302 24.2188 23.4374V24.8828C23.7124 28.0166 22.9281 31.099 21.875 34.0937C21.0708 36.333 20.1154 38.5151 19.0156 40.625H7.8125C7.54248 40.6206 7.2782 40.5463 7.04544 40.4094C6.81267 40.2725 6.61937 40.0776 6.48438 39.8437C6.34822 39.6144 6.27636 39.3526 6.27636 39.0859C6.27636 38.8192 6.34822 38.5574 6.48438 38.3281L6.63281 38.0703L6.75 37.8984C6.7781 37.8458 6.80162 37.7909 6.82031 37.7343L20.3125 13.6328C20.7894 12.8123 21.4734 12.1313 22.296 11.658C23.1185 11.1847 24.051 10.9356 25 10.9356C25.949 10.9356 26.8815 11.1847 27.704 11.658C28.5266 12.1313 29.2106 12.8123 29.6875 13.6328L43.1406 37.6328C43.1607 37.6888 43.1842 37.7436 43.2109 37.7968L43.3359 37.9843L43.5391 38.3437ZM25.7812 19.5312V21.0937C25.7812 21.3009 25.6989 21.4996 25.5524 21.6461C25.4059 21.7926 25.2072 21.8749 25 21.8749C24.7928 21.8749 24.5941 21.7926 24.4476 21.6461C24.3011 21.4996 24.2188 21.3009 24.2188 21.0937V19.5312C24.2188 19.324 24.3011 19.1253 24.4476 18.9788C24.5941 18.8323 24.7928 18.7499 25 18.7499C25.2072 18.7499 25.4059 18.8323 25.5524 18.9788C25.6989 19.1253 25.7812 19.324 25.7812 19.5312ZM25.7812 15.6249V17.1874C25.7812 17.3947 25.6989 17.5934 25.5524 17.7399C25.4059 17.8864 25.2072 17.9687 25 17.9687C24.7928 17.9687 24.5941 17.8864 24.4476 17.7399C24.3011 17.5934 24.2188 17.3947 24.2188 17.1874V15.6249C24.2188 15.4177 24.3011 15.219 24.4476 15.0725C24.5941 14.926 24.7928 14.8437 25 14.8437C25.2072 14.8437 25.4059 14.926 25.5524 15.0725C25.6989 15.219 25.7812 15.4177 25.7812 15.6249ZM25 10.9375C25.2072 10.9375 25.4059 11.0198 25.5524 11.1663C25.6989 11.3128 25.7812 11.5115 25.7812 11.7187V13.2812C25.7812 13.4884 25.6989 13.6871 25.5524 13.8336C25.4059 13.9801 25.2072 14.0625 25 14.0625C24.7928 14.0625 24.5941 13.9801 24.4476 13.8336C24.3011 13.6871 24.2188 13.4884 24.2188 13.2812V11.7187C24.2188 11.5115 24.3011 11.3128 24.4476 11.1663C24.5941 11.0198 24.7928 10.9375 25 10.9375Z" fill="black"/>
</svg>
