<svg width="30" height="30" viewBox="0 0 30 30" fill="none" xmlns="http://www.w3.org/2000/svg">
<g clip-path="url(#clip0_91_206)">
<path d="M12.6079 6.146H2.3877V24.3965H12.6079V6.146Z" fill="#FFE700"/>
<path d="M9.96902 30C9.7748 29.9498 9.58055 29.9166 9.38632 29.8498C7.73527 29.3824 6.61837 27.8803 6.58601 26.0611C6.58601 25.9277 6.58601 25.8108 6.58601 25.6439C6.45652 25.6439 6.35939 25.6439 6.26227 25.6439C5.27489 25.6439 4.2713 25.6439 3.28392 25.6439C2.13465 25.6439 1.40625 24.893 1.40625 23.708C1.40625 18.0334 1.40625 12.3755 1.40625 6.70097C1.40625 5.48262 2.11847 4.76496 3.30009 4.74825C4.28749 4.74825 5.27489 4.74825 6.24609 4.74825C6.3432 4.74825 6.45652 4.74825 6.6022 4.74825C6.6022 4.33102 6.58601 3.96384 6.6022 3.57996C6.74787 1.66064 8.35036 0.0250348 10.228 0.0250348C13.7891 -0.00834492 17.3664 -0.00834492 20.9275 0.0250348C22.967 0.0417246 24.5695 1.82754 24.5857 4.03059C24.5857 5.8331 24.5857 7.61892 24.5857 9.42143C24.5857 9.53824 24.5857 9.65508 24.5857 9.80529C24.9579 9.80529 25.298 9.80529 25.6378 9.80529C26.2366 9.80529 26.5929 10.1391 26.6091 10.7399C26.6252 11.1739 26.7708 11.5243 27.0947 11.8248C28.0657 12.7093 28.422 13.8442 28.4058 15.146C28.4058 15.8637 28.4058 16.5981 28.4058 17.3157C28.4058 18 28.0334 18.3672 27.386 18.3672C27.1755 18.3672 26.9489 18.3672 26.7061 18.3672C26.7061 18.484 26.7061 18.5842 26.7061 18.6843C26.7061 19.5021 26.7061 20.3199 26.7061 21.1377C26.7061 21.5549 26.4309 21.8887 26.0588 21.9889C25.6863 22.089 25.2654 21.9555 25.0713 21.605C24.9579 21.4047 24.9094 21.1711 24.9094 20.9374C24.8932 20.0862 24.9094 19.235 24.9094 18.3672H22.5461C22.5461 18.6676 22.5461 18.968 22.5461 19.2684C22.5461 19.8359 22.5461 20.42 22.5461 20.9875C22.5461 21.5883 22.1576 22.0056 21.6397 22.0056C21.1217 22.0056 20.7332 21.5883 20.7332 20.9875C20.7332 20.2197 20.7332 19.452 20.7332 18.6676C20.7332 18.5674 20.7332 18.4506 20.7332 18.3171C20.4419 18.3171 20.1829 18.3171 19.9077 18.3171C19.4545 18.3171 19.0336 17.9833 19.0336 17.5327C19.0336 16.2976 19.0336 15.0626 19.1307 13.8275C19.1793 13.0932 19.6001 12.4757 20.1343 11.975C20.539 11.5911 20.8141 11.1572 20.8141 10.5563C20.8141 10.1224 21.2188 9.7886 21.6559 9.77191C22.0282 9.77191 22.4004 9.77191 22.7565 9.75523C22.7565 9.75523 22.7565 9.75523 22.8213 9.72183C22.8213 9.63839 22.8213 9.53824 22.8213 9.43812C22.8213 7.66898 22.8213 5.89985 22.8213 4.14743C22.8213 2.74547 21.9958 1.8943 20.6199 1.8943C17.2854 1.8943 13.951 1.8943 10.6327 1.8943C9.273 1.8943 8.44748 2.74547 8.44748 4.14743C8.44748 4.3477 8.44748 4.53129 8.44748 4.74825C8.57698 4.74825 8.69027 4.74825 8.7874 4.74825C9.80716 4.74825 10.8269 4.74825 11.8467 4.74825C12.8341 4.74825 13.5463 5.44924 13.611 6.46732C13.611 6.55076 13.611 6.65091 13.611 6.73434C13.611 12.3922 13.611 18.0334 13.611 23.6913C13.611 24.6593 13.174 25.3434 12.3809 25.5771C12.1704 25.6439 11.96 25.6605 11.7334 25.6605C10.746 25.6605 9.7586 25.6605 8.7874 25.6605H8.47985C8.1723 26.8123 9.12731 28.0807 10.3413 28.1306C10.7298 28.1306 11.1183 28.1306 11.5068 28.1306C14.5822 28.1306 17.6577 28.1306 20.7332 28.1306C21.3807 28.1306 21.8015 28.6315 21.7044 29.2491C21.6397 29.6496 21.3645 29.8498 21.0246 30H9.96902ZM11.7496 23.7579V6.63422H3.23536V23.7579H11.7496ZM26.5929 16.4645C26.5929 15.8637 26.5929 15.2963 26.5929 14.7288C26.5929 14.128 26.3501 13.644 25.9291 13.2267C25.5082 12.8261 25.1522 12.3755 24.9741 11.7914C24.9579 11.7413 24.8609 11.6745 24.7962 11.6579C24.0677 11.6579 23.3393 11.6579 22.6109 11.6579C22.5461 11.6579 22.4328 11.7246 22.4166 11.7747C22.2224 12.4089 21.8015 12.8595 21.3807 13.3268C21.1864 13.5438 20.9922 13.8109 20.9113 14.0779C20.6846 14.8623 20.8141 15.6634 20.7818 16.4645H26.5929Z" fill="#121212"/>
<path d="M7.37295 14.0518C8.05547 14.0518 8.64577 14.0518 9.23609 14.0518C9.69724 14.0518 10.0662 14.1812 10.2876 14.5533C10.5089 14.9253 10.3982 15.265 10.14 15.5885C9.1992 16.737 8.27684 17.9016 7.33603 19.0662C7.04089 19.4221 6.63506 19.5677 6.21078 19.4706C5.76804 19.3736 5.45445 19.0986 5.436 18.6942C5.436 18.4677 5.50978 18.2089 5.65737 18.0148C6.13699 17.3678 6.65351 16.7531 7.15158 16.1385C7.20692 16.0576 7.26225 15.9929 7.39139 15.8311C6.89332 15.8311 6.46903 15.8311 6.04474 15.8311C5.86029 15.8311 5.67582 15.8311 5.49134 15.8311C5.06707 15.8311 4.73501 15.6694 4.53211 15.3459C4.32919 15.0062 4.38453 14.6827 4.60589 14.3753C5.36222 13.3886 6.1001 12.4181 6.85643 11.4314C6.98555 11.2535 7.13314 11.0594 7.2807 10.8976C7.63121 10.4771 8.23995 10.38 8.70113 10.655C9.16228 10.93 9.30987 11.4799 8.97783 11.9005C8.51665 12.5313 8.03703 13.146 7.5574 13.7607C7.50207 13.8416 7.44673 13.9224 7.33603 14.068L7.37295 14.0518Z" fill="#121212"/>
</g>
<defs>
<clipPath id="clip0_91_206">
<rect width="30" height="30" fill="white"/>
</clipPath>
</defs>
</svg>
