<svg width="32" height="32" viewBox="0 0 32 32" fill="none" xmlns="http://www.w3.org/2000/svg">
<path d="M28.4521 11.2206H26.7995C26.6947 10.6027 26.3788 10.0423 25.9075 9.6374C25.4362 9.2329 24.8395 9.01 24.2225 9.0083H4.72652C4.03092 9.0083 3.36372 9.2891 2.87162 9.7888C2.37982 10.2889 2.10352 10.9669 2.10352 11.6737V20.5365C2.10172 22.7515 2.96562 24.8767 4.50492 26.4447C6.04452 28.0127 8.13382 28.8957 10.3137 28.8992H18.6354C20.6695 28.895 22.6297 28.1251 24.1374 26.738C25.6453 25.3511 26.5938 23.4455 26.7996 21.3894H28.4522C29.1783 21.3876 29.8735 21.0934 30.3865 20.5713C30.8991 20.0492 31.1869 19.3416 31.1869 18.6041V14.0063C31.1869 13.2688 30.8991 12.5611 30.3865 12.039C29.8736 11.517 29.1782 11.2223 28.4521 11.2206ZM18.6158 27.1334H10.3143C8.59642 27.1299 6.95022 26.4341 5.73682 25.1987C4.52342 23.9629 3.84192 22.2887 3.84192 20.5431V11.6803C3.84192 11.1826 4.23712 10.7777 4.72712 10.7742H24.2231C24.7117 10.7813 25.1048 11.1841 25.1083 11.6803V20.5431C25.1083 22.2887 24.4268 23.9629 23.2133 25.1987C21.9999 26.4341 20.3538 27.1299 18.6359 27.1334M29.4496 18.6042C29.4513 18.8734 29.3468 19.1319 29.1595 19.3223C28.9724 19.5127 28.7177 19.6189 28.4528 19.6171H26.8461V12.9536H28.4528C28.7236 12.9551 28.9821 13.0678 29.1697 13.2662C29.3577 13.4643 29.4584 13.7315 29.4496 14.0064V18.6042Z" fill="black"/>
<path d="M13.9414 8.30144C13.4918 8.32054 13.1027 7.98644 13.0462 7.53274C12.9897 7.07914 13.2848 6.65724 13.7251 6.56214C13.9485 6.50794 14.1677 6.43654 14.3809 6.34884C14.5044 6.29494 14.6145 6.21284 14.702 6.10904C14.777 5.92784 14.777 5.72384 14.702 5.54264C14.5943 5.23144 14.4221 4.94734 14.1973 4.70964C14.0989 4.58974 13.9874 4.48294 13.8759 4.36994C13.423 3.97014 13.0796 3.45814 12.879 2.88374C12.7318 2.38844 12.7318 1.85984 12.879 1.36454C12.9777 1.03784 13.1533 0.740443 13.3905 0.498243C13.6879 0.222243 14.0653 0.0517438 14.4661 0.0118438C14.9192 -0.0345562 15.3311 0.281143 15.4119 0.736543C15.4927 1.19194 15.2149 1.63404 14.7743 1.75094H14.6496C14.6233 1.78634 14.6054 1.82734 14.5972 1.87114C14.548 2.02694 14.548 2.19474 14.5972 2.35064C14.7102 2.64454 14.89 2.90724 15.1218 3.11694C15.2661 3.26354 15.4037 3.40334 15.5285 3.55004C15.9295 3.97514 16.2381 4.48174 16.4333 5.03624C16.6268 5.59964 16.5984 6.21754 16.354 6.76014C16.1095 7.30304 15.6681 7.72844 15.1218 7.94804C14.8089 8.08694 14.4839 8.19614 14.1514 8.27464C14.0797 8.28444 14.0068 8.28444 13.935 8.27464" fill="black"/>
<path d="M9.05393 8.30129C8.65613 8.30339 8.30863 8.02759 8.21463 7.63499C8.15753 7.40319 8.19533 7.15779 8.31853 6.95459C8.44213 6.75149 8.64093 6.60749 8.87043 6.55539C9.09403 6.50159 9.31333 6.43019 9.52613 6.34209C9.64913 6.29009 9.75713 6.20769 9.84083 6.10239C9.92373 5.92299 9.92373 5.71539 9.84083 5.53599C9.73023 5.22449 9.55603 4.94069 9.32943 4.70299C9.23103 4.58309 9.12623 4.47629 9.01473 4.36329C8.55773 3.96729 8.21373 3.45389 8.01793 2.87709C7.87033 2.38179 7.87033 1.85319 8.01793 1.35789C8.12303 1.02829 8.31033 0.731989 8.56213 0.498089C8.84643 0.230089 9.20673 0.0596897 9.59173 0.0117897C10.068 -0.0674103 10.5171 0.26079 10.595 0.74479C10.6728 1.22879 10.3499 1.68509 9.87363 1.76419H9.74253C9.71993 1.79929 9.70243 1.83739 9.69013 1.87759C9.64733 2.03459 9.64733 2.20029 9.69013 2.35739C9.82183 2.63759 10.0118 2.88539 10.2475 3.08359C10.385 3.23019 10.5294 3.36999 10.6541 3.51669C11.0388 3.94619 11.3312 4.45219 11.513 5.00289C11.7065 5.56629 11.6781 6.18419 11.4337 6.72679C11.1892 7.26969 10.7478 7.69509 10.2015 7.91469C9.88773 8.05749 9.56043 8.16689 9.22433 8.24129C9.15263 8.25109 9.07973 8.25109 9.00803 8.24129" fill="black"/>
<path d="M18.9379 8.30144C18.54 8.30344 18.1925 8.02774 18.0986 7.63504C18.0435 7.40334 18.0816 7.15914 18.2048 6.95624C18.3281 6.75364 18.5257 6.60934 18.7543 6.55554C18.978 6.50164 19.1973 6.43024 19.4101 6.34224C19.5336 6.28804 19.6434 6.20594 19.7312 6.10244C19.8059 5.92124 19.8059 5.71724 19.7312 5.53604C19.6291 5.21744 19.4613 4.92444 19.2394 4.67634C19.1475 4.56304 19.0362 4.45654 18.9247 4.34314C18.4718 3.94364 18.1284 3.43164 17.9279 2.85724C17.7806 2.36194 17.7806 1.83334 17.9279 1.33804C18.0265 1.01114 18.2022 0.713944 18.4393 0.471744C18.7294 0.212944 19.0916 0.0523438 19.4756 0.0118438C19.9285 -0.0345562 20.3407 0.281143 20.4215 0.736543C20.502 1.19194 20.2242 1.63404 19.7836 1.75094H19.6525C19.6302 1.78544 19.6144 1.82384 19.6068 1.86424C19.5576 2.02044 19.5576 2.18824 19.6068 2.34404C19.7324 2.62644 19.9209 2.87514 20.1575 3.07054C20.295 3.21724 20.4394 3.35704 20.5641 3.50364C20.9473 3.93384 21.2397 4.43984 21.423 4.98954C21.6165 5.55304 21.5881 6.17094 21.3437 6.71354C21.0992 7.25634 20.6578 7.68214 20.1115 7.90164C19.798 8.04414 19.4704 8.15364 19.1346 8.22794C19.0629 8.23784 18.99 8.23784 18.9183 8.22794" fill="black"/>
<path d="M27.7104 31.9967H1.23107C0.780271 31.9569 0.43457 31.5734 0.43457 31.1138C0.43457 30.6542 0.780271 30.2708 1.23107 30.2308H27.7104C27.954 30.2094 28.1952 30.2927 28.3752 30.4605C28.5556 30.6283 28.658 30.8654 28.658 31.1138C28.658 31.3621 28.5556 31.5992 28.3752 31.767C28.1952 31.9348 27.954 32.0181 27.7104 31.9967Z" fill="black"/>
<path d="M12.4964 26.2524C10.0701 26.2524 8.18797 25.4995 6.89607 24.0201C4.71887 21.5278 5.10587 17.9031 5.12547 17.7499C5.17997 17.2659 5.60997 16.9185 6.08627 16.9735C6.56257 17.0288 6.90447 17.4658 6.85027 17.9498C6.85027 17.9965 6.54207 20.9683 8.20107 22.854C9.14547 23.9336 10.5946 24.48 12.4963 24.48C12.9778 24.48 13.3684 24.8769 13.3684 25.3663C13.3684 25.8556 12.978 26.2524 12.4964 26.2524Z" fill="black"/>
</svg>
