<svg width="31" height="32" viewBox="0 0 31 32" fill="none" xmlns="http://www.w3.org/2000/svg">
<path fill-rule="evenodd" clip-rule="evenodd" d="M25.6251 27.2942C27.2089 27.2942 28.0777 27.5971 28.5134 28.5098C28.7896 29.0883 28.8731 30.1176 28.8731 30.1176H2.7869C2.9388 27.9285 3.7334 27.2942 6.0252 27.2942H25.6251ZM0.891602 31.0589C0.891602 31.5785 1.3095 32 1.8251 32H29.8255C30.341 32 30.7589 31.5786 30.7589 31.0589C30.7589 27.1268 29.3197 25.4118 25.6255 25.4118H6.0254C2.3312 25.4118 0.891602 27.1268 0.891602 31.0589ZM15.8251 11.7646C7.8628 11.7646 2.7582 16.7077 2.7582 23.5292C2.7582 24.0488 3.1761 24.4703 3.6917 24.4703H27.9583C28.4738 24.4703 28.8918 24.0489 28.8918 23.5292C28.8918 16.7075 23.7875 11.7646 15.8251 11.7646ZM4.6639 22.5881C5.1026 17.3229 9.2606 13.6469 15.8251 13.6469C22.3905 13.6469 26.5494 17.324 26.9868 22.5881H4.6639Z" fill="black"/>
<path fill-rule="evenodd" clip-rule="evenodd" d="M14.8915 12.2353C14.8915 12.7552 15.3092 13.1767 15.8248 13.1767C16.3403 13.1767 16.758 12.7552 16.758 12.2353V10.8235H18.6247C19.1402 10.8235 19.5582 10.4023 19.5582 9.8824C19.5582 9.3626 19.1402 8.9411 18.6247 8.9411H13.0248C12.5093 8.9411 12.0913 9.3626 12.0913 9.8824C12.0913 10.4023 12.5093 10.8235 13.0248 10.8235H14.8915V12.2353ZM16.758 0.941099C16.758 0.421399 16.3403 0 15.8248 0C15.3092 0 14.8915 0.421399 14.8915 0.941099V4.2352C14.8915 4.7551 15.3092 5.1766 15.8248 5.1766C16.3403 5.1766 16.758 4.7551 16.758 4.2352V0.941099ZM2.42232 5.8652C2.02632 5.5324 1.43802 5.5864 1.10792 5.9857C0.777916 6.3851 0.831517 6.9786 1.22752 7.3112L4.02742 9.6643C4.42342 9.9969 5.01202 9.9431 5.34202 9.5438C5.67182 9.1444 5.61852 8.5509 5.22252 8.2181L2.42232 5.8652ZM30.4227 7.3112C30.8187 6.9786 30.8723 6.3851 30.5423 5.9858C30.2122 5.5864 29.6239 5.5324 29.2279 5.8652L26.4277 8.2181C26.0317 8.5509 25.9784 9.1445 26.3082 9.5438C26.6382 9.9431 27.2268 9.9969 27.6228 9.6643L30.4227 7.3112Z" fill="black"/>
</svg>
