<svg width="325" height="30" viewBox="0 0 325 30" fill="none" xmlns="http://www.w3.org/2000/svg">
<g clip-path="url(#clip0_91_247)">
<mask id="mask0_91_247" style="mask-type:luminance" maskUnits="userSpaceOnUse" x="0" y="0" width="30" height="30">
<path d="M30 0H0V30H30V0Z" fill="white"/>
</mask>
<g mask="url(#mask0_91_247)">
<path d="M8.20293 8.08594C7.85137 8.78906 8.55449 11.4844 8.55449 12.0703L13.7107 12.5391L17.5779 13.0078L20.156 12.3047L21.6795 13.2422L21.4451 15.7031V17.5781L24.9607 16.9922L26.8357 17.5781L28.5935 17.2266L29.0623 16.0547L28.5935 13.2422C28.8279 11.9141 29.2967 9.21094 29.2967 9.02344C29.2967 8.83594 28.8279 6.52343 28.5935 5.39062L29.2967 2.92969L28.8279 1.40625L27.3045 0.820312L24.6092 1.40625L18.5154 0.585938L12.4217 1.40625L9.72634 0.585938L8.20293 2.34375L8.78884 4.6875C8.71073 5.58593 8.48418 7.52344 8.20293 8.08594Z" fill="#FFE700"/>
<path d="M29.9081 14.8907L29.4837 13.2599C30.0396 10.6032 30.0363 7.80966 29.4741 5.15262L29.9081 3.48422C30.1589 2.5218 29.8889 1.52724 29.1855 0.823819C28.482 0.120108 27.4868 -0.150478 26.5233 0.100186L24.8801 0.528389C24.7369 0.565655 24.5855 0.571104 24.4423 0.544327C20.5009 -0.193896 16.5087 -0.181123 12.5736 0.582002L10.7205 0.100186C9.75785 -0.150654 8.76312 0.119463 8.05957 0.822647C7.35574 1.52606 7.08511 2.52098 7.33577 3.48434L7.76742 5.1402C7.30172 7.34278 7.21765 9.5786 7.51566 11.8021C6.78546 11.892 6.05648 12.0072 5.32952 12.1482L3.47644 11.6659C2.51339 11.4152 1.51864 11.6856 0.815048 12.3891C0.111454 13.0925 -0.158839 14.0872 0.0918834 15.0499L0.523369 16.7064C-0.0369056 19.3626 -0.038312 22.1564 0.519384 24.8142L0.0917076 26.4567C-0.158956 27.4193 0.111395 28.414 0.81499 29.1176C1.51853 29.8209 2.51332 30.0914 3.47632 29.8406L5.21273 29.3885C7.26363 29.7963 9.32719 30 11.3914 30C13.4505 30 15.5096 29.797 17.555 29.3913L19.2797 29.8404C20.2425 30.0909 21.2375 29.8207 21.9411 29.1171C22.6447 28.4137 22.915 27.4191 22.6643 26.4562L22.2396 24.8259C22.6933 22.657 22.7741 20.3973 22.4829 18.1952C23.2599 18.1002 24.0354 17.9769 24.7992 17.8257L26.5235 18.2743C26.7602 18.3359 26.9986 18.3661 27.2344 18.3661C27.9579 18.3661 28.6545 18.082 29.1851 17.5513C29.8887 16.8479 30.1589 15.8531 29.9081 14.8907ZM20.698 27.8747C20.5743 27.9984 20.2313 28.2722 19.7225 28.1398L17.8015 27.6396C17.6714 27.6059 17.5353 27.6021 17.4036 27.6293C13.4097 28.4477 9.35918 28.4468 5.36449 27.6265C5.23273 27.5993 5.09648 27.6028 4.96624 27.6368L3.03328 28.14C2.52464 28.2724 2.18163 27.9987 2.05782 27.8749C1.93395 27.7512 1.66026 27.4083 1.79269 26.8995L2.27304 25.0549C2.30808 24.9202 2.31071 24.7793 2.2806 24.6434C1.71786 22.1027 1.71921 19.4177 2.28452 16.8787C2.31481 16.7426 2.31229 16.6012 2.27714 16.4663L1.79292 14.6071C1.66044 14.0984 1.93413 13.7555 2.058 13.6317C2.18186 13.5079 2.5248 13.2343 3.03352 13.3666L5.08113 13.8995C5.21004 13.9331 5.34492 13.9369 5.47542 13.9107C6.50508 13.7042 7.53902 13.5525 8.57515 13.455C8.59652 13.4538 8.61797 13.4515 8.63949 13.4488C11.3832 13.1964 14.1417 13.3258 16.8747 13.8377C17.2705 13.9118 17.6869 13.897 18.0791 13.7948L19.7225 13.3669C20.2309 13.2345 20.5742 13.5081 20.698 13.632C20.8219 13.7557 21.0956 14.0986 20.9632 14.6072L20.4759 16.4786C20.4407 16.6137 20.4382 16.7552 20.4686 16.8915C21.0357 19.4311 21.039 22.116 20.4782 24.6558C20.4482 24.791 20.4509 24.933 20.4859 25.0671L20.963 26.8995C21.0956 27.408 20.8219 27.7509 20.698 27.8747ZM27.942 16.3088C27.8182 16.4326 27.4753 16.7063 26.9663 16.5737L25.0455 16.074C24.9155 16.0402 24.7795 16.0366 24.6478 16.0636C23.8751 16.2219 23.0888 16.35 22.3005 16.4471L22.6644 15.05C22.915 14.0873 22.6446 13.0926 21.941 12.3892C21.2374 11.6858 20.2424 11.4155 19.2796 11.6662L17.6361 12.0941C17.4926 12.1315 17.3411 12.137 17.1985 12.1103C14.5665 11.6173 11.9123 11.4597 9.26789 11.6362C8.97703 9.52523 9.06359 7.40168 9.5287 5.31239C9.55906 5.17622 9.55648 5.03484 9.52132 4.89984L9.03687 3.04148C8.90445 2.53247 9.17836 2.18946 9.3023 2.0656C9.42609 1.94185 9.76887 1.66845 10.2777 1.80093L12.3255 2.33343C12.4543 2.36695 12.5891 2.37075 12.7195 2.34457C16.4975 1.58712 20.3327 1.56257 24.1191 2.27179C24.5149 2.34579 24.9312 2.33108 25.323 2.22907L26.9663 1.80093C27.4751 1.66862 27.8184 1.94243 27.9422 2.06636C28.0659 2.19011 28.3395 2.53289 28.207 3.04153L27.72 4.9132C27.6848 5.0482 27.6825 5.18965 27.713 5.32582C28.2799 7.86555 28.2832 10.5502 27.7223 13.0894C27.6926 13.2246 27.6949 13.3668 27.7301 13.5007L28.207 15.3334C28.3397 15.842 28.0659 16.185 27.942 16.3088Z" fill="black"/>
<path d="M26.3672 9.1821V9.18112C26.366 7.04889 25.6043 5.8408 25.5173 5.70995C25.3702 5.44241 24.9612 5.09882 24.3169 5.45026C23.6723 5.80178 24.0534 6.68249 24.0534 6.68249L24.048 6.67459C24.0539 6.68343 24.6091 7.57898 24.6096 9.18381C24.6091 10.7886 24.0537 11.6841 24.048 11.693L24.0534 11.6851C24.0534 11.6851 23.5767 12.5779 24.3169 12.9338C25.0784 13.3 25.5173 12.6576 25.5173 12.6576C25.6043 12.5269 26.3662 11.3187 26.3672 9.18655V9.18557C26.3672 9.18498 26.3672 9.1844 26.3672 9.18381C26.3672 9.18323 26.3672 9.18276 26.3672 9.1821Z" fill="black"/>
<path d="M19.045 20.79L19.0449 20.789C19.0438 18.6568 18.282 17.4487 18.195 17.3178C18.048 17.0503 17.639 16.7067 16.9945 17.0582C16.35 17.4097 16.7311 18.2904 16.7311 18.2904L16.7259 18.2825C16.7315 18.2913 17.2868 19.1869 17.2872 20.7917C17.2868 22.3965 16.7315 23.292 16.7259 23.3009L16.7311 23.293C16.7311 23.293 16.2545 24.1859 16.9947 24.5417C17.7562 24.9078 18.195 24.2656 18.195 24.2656C18.282 24.1348 19.0439 22.9266 19.0449 20.7944L19.045 20.7935C19.045 20.7929 19.045 20.7923 19.045 20.7917C19.045 20.7911 19.045 20.7906 19.045 20.79Z" fill="black"/>
</g>
</g>
<g clip-path="url(#clip1_91_247)">
<mask id="mask1_91_247" style="mask-type:luminance" maskUnits="userSpaceOnUse" x="49" y="0" width="30" height="30">
<path d="M79 0H49V30H79V0Z" fill="white"/>
</mask>
<g mask="url(#mask1_91_247)">
<path d="M74.3125 7.96875H53.6875V13.125H74.3125V7.96875Z" fill="#FFE700"/>
<path d="M74.3125 20.3906H53.6875V25.5469H74.3125V20.3906Z" fill="#FFE700"/>
<path d="M76.3633 3.51562C74.9095 3.51562 73.7266 4.69847 73.7266 6.15234V7.03125H61.2163C60.8079 5.02781 59.0324 3.51562 56.9102 3.51562H54.2734V2.63672C54.2734 1.18283 53.0906 0 51.6367 0C50.1828 0 49 1.18283 49 2.63672V29.1211C49 29.6065 49.3935 30 49.8789 30H53.3945C53.8799 30 54.2734 29.6065 54.2734 29.1211V26.4844H73.7266V29.1211C73.7266 29.6065 74.1201 30 74.6055 30H78.1211C78.6065 30 79 29.6065 79 29.1211V6.15234C79 4.69847 77.8171 3.51562 76.3633 3.51562ZM52.5156 16.7578C52.5156 20.6196 52.5156 24.8665 52.5156 28.2422H50.7578V2.63672C50.7578 2.15209 51.1521 1.75781 51.6367 1.75781C52.1213 1.75781 52.5156 2.15209 52.5156 2.63672C52.5156 4.4243 52.5156 14.2825 52.5156 16.7578ZM54.2734 5.27344H56.9102C58.056 5.27344 59.0335 6.00813 59.3963 7.03125H54.2734V5.27344ZM54.2734 17.6367H56.9102C58.056 17.6367 59.0335 18.3714 59.3963 19.3945H54.2734V17.6367ZM73.7266 24.7266H54.2734V21.1523C54.8593 21.1523 73.1425 21.1523 73.7266 21.1523V24.7266ZM73.7266 19.3945H61.2163C60.808 17.3911 59.0324 15.8789 56.9102 15.8789H54.2734V14.1211H73.7266V19.3945ZM73.7266 12.3633H54.2734V8.78906C54.8593 8.78906 73.1425 8.78906 73.7266 8.78906V12.3633ZM77.2422 28.2422H75.4844C75.4844 26.7129 75.4844 7.1209 75.4844 6.15234C75.4844 5.66773 75.8786 5.27344 76.3633 5.27344C76.848 5.27344 77.2422 5.66773 77.2422 6.15234V28.2422Z" fill="black"/>
</g>
</g>
<g clip-path="url(#clip2_91_247)">
<path d="M110.608 6.146H100.388V24.3965H110.608V6.146Z" fill="#FFE700"/>
<path d="M107.969 30C107.775 29.9498 107.581 29.9166 107.386 29.8498C105.735 29.3824 104.618 27.8803 104.586 26.0611C104.586 25.9277 104.586 25.8108 104.586 25.6439C104.457 25.6439 104.359 25.6439 104.262 25.6439C103.275 25.6439 102.271 25.6439 101.284 25.6439C100.135 25.6439 99.4062 24.893 99.4062 23.708C99.4062 18.0334 99.4062 12.3755 99.4062 6.70097C99.4062 5.48262 100.118 4.76496 101.3 4.74825C102.287 4.74825 103.275 4.74825 104.246 4.74825C104.343 4.74825 104.457 4.74825 104.602 4.74825C104.602 4.33102 104.586 3.96384 104.602 3.57996C104.748 1.66064 106.35 0.0250348 108.228 0.0250348C111.789 -0.00834492 115.366 -0.00834492 118.927 0.0250348C120.967 0.0417246 122.57 1.82754 122.586 4.03059C122.586 5.8331 122.586 7.61892 122.586 9.42143C122.586 9.53824 122.586 9.65508 122.586 9.80529C122.958 9.80529 123.298 9.80529 123.638 9.80529C124.237 9.80529 124.593 10.1391 124.609 10.7399C124.625 11.1739 124.771 11.5243 125.095 11.8248C126.066 12.7093 126.422 13.8442 126.406 15.146C126.406 15.8637 126.406 16.5981 126.406 17.3157C126.406 18 126.033 18.3672 125.386 18.3672C125.176 18.3672 124.949 18.3672 124.706 18.3672C124.706 18.484 124.706 18.5842 124.706 18.6843C124.706 19.5021 124.706 20.3199 124.706 21.1377C124.706 21.5549 124.431 21.8887 124.059 21.9889C123.686 22.089 123.265 21.9555 123.071 21.605C122.958 21.4047 122.909 21.1711 122.909 20.9374C122.893 20.0862 122.909 19.235 122.909 18.3672H120.546C120.546 18.6676 120.546 18.968 120.546 19.2684C120.546 19.8359 120.546 20.42 120.546 20.9875C120.546 21.5883 120.158 22.0056 119.64 22.0056C119.122 22.0056 118.733 21.5883 118.733 20.9875C118.733 20.2197 118.733 19.452 118.733 18.6676C118.733 18.5674 118.733 18.4506 118.733 18.3171C118.442 18.3171 118.183 18.3171 117.908 18.3171C117.454 18.3171 117.034 17.9833 117.034 17.5327C117.034 16.2976 117.034 15.0626 117.131 13.8275C117.179 13.0932 117.6 12.4757 118.134 11.975C118.539 11.5911 118.814 11.1572 118.814 10.5563C118.814 10.1224 119.219 9.7886 119.656 9.77191C120.028 9.77191 120.4 9.77191 120.757 9.75523C120.757 9.75523 120.757 9.75523 120.821 9.72183C120.821 9.63839 120.821 9.53824 120.821 9.43812C120.821 7.66898 120.821 5.89985 120.821 4.14743C120.821 2.74547 119.996 1.8943 118.62 1.8943C115.285 1.8943 111.951 1.8943 108.633 1.8943C107.273 1.8943 106.447 2.74547 106.447 4.14743C106.447 4.3477 106.447 4.53129 106.447 4.74825C106.577 4.74825 106.69 4.74825 106.787 4.74825C107.807 4.74825 108.827 4.74825 109.847 4.74825C110.834 4.74825 111.546 5.44924 111.611 6.46732C111.611 6.55076 111.611 6.65091 111.611 6.73434C111.611 12.3922 111.611 18.0334 111.611 23.6913C111.611 24.6593 111.174 25.3434 110.381 25.5771C110.17 25.6439 109.96 25.6605 109.733 25.6605C108.746 25.6605 107.759 25.6605 106.787 25.6605H106.48C106.172 26.8123 107.127 28.0807 108.341 28.1306C108.73 28.1306 109.118 28.1306 109.507 28.1306C112.582 28.1306 115.658 28.1306 118.733 28.1306C119.381 28.1306 119.802 28.6315 119.704 29.2491C119.64 29.6496 119.365 29.8498 119.025 30H107.969ZM109.75 23.7579V6.63422H101.235V23.7579H109.75ZM124.593 16.4645C124.593 15.8637 124.593 15.2963 124.593 14.7288C124.593 14.128 124.35 13.644 123.929 13.2267C123.508 12.8261 123.152 12.3755 122.974 11.7914C122.958 11.7413 122.861 11.6745 122.796 11.6579C122.068 11.6579 121.339 11.6579 120.611 11.6579C120.546 11.6579 120.433 11.7246 120.417 11.7747C120.222 12.4089 119.802 12.8595 119.381 13.3268C119.186 13.5438 118.992 13.8109 118.911 14.0779C118.685 14.8623 118.814 15.6634 118.782 16.4645H124.593Z" fill="#121212"/>
<path d="M105.373 14.0518C106.055 14.0518 106.646 14.0518 107.236 14.0518C107.697 14.0518 108.066 14.1812 108.288 14.5533C108.509 14.9253 108.398 15.265 108.14 15.5885C107.199 16.737 106.277 17.9016 105.336 19.0662C105.041 19.4221 104.635 19.5677 104.211 19.4706C103.768 19.3736 103.454 19.0986 103.436 18.6942C103.436 18.4677 103.51 18.2089 103.657 18.0148C104.137 17.3678 104.654 16.7531 105.152 16.1385C105.207 16.0576 105.262 15.9929 105.391 15.8311C104.893 15.8311 104.469 15.8311 104.045 15.8311C103.86 15.8311 103.676 15.8311 103.491 15.8311C103.067 15.8311 102.735 15.6694 102.532 15.3459C102.329 15.0062 102.385 14.6827 102.606 14.3753C103.362 13.3886 104.1 12.4181 104.856 11.4314C104.986 11.2535 105.133 11.0594 105.281 10.8976C105.631 10.4771 106.24 10.38 106.701 10.655C107.162 10.93 107.31 11.4799 106.978 11.9005C106.517 12.5313 106.037 13.146 105.557 13.7607C105.502 13.8416 105.447 13.9224 105.336 14.068L105.373 14.0518Z" fill="#121212"/>
</g>
<path d="M204.617 4.80469C205.281 3.63281 206.633 1.17188 206.727 0.703125H217.273L219.969 5.97656L220.789 13.3594H203.211V10.0781L204.617 4.80469Z" fill="#FFE700" stroke="black"/>
<path d="M217.273 0H206.727C206.493 0 206.27 0.0926367 206.105 0.257461C202.375 3.98759 202.332 12.9223 202.332 13.3008C202.332 13.7862 202.726 14.1797 203.211 14.1797H209.363V16.5319C207.287 17.5211 205.848 19.6405 205.848 22.0898C205.848 23.347 206.325 24.5224 207.03 25.3446C207.031 25.3463 207.032 25.3477 207.034 25.3493C208.122 26.7045 207.526 27.7887 206.982 28.4864C206.926 28.5588 206.881 28.6163 206.839 28.6908C206.686 28.9629 206.689 29.2957 206.847 29.565C207.005 29.8345 207.293 30 207.605 30H216.395C216.707 30 216.995 29.8345 217.153 29.565C217.311 29.2957 217.314 28.9629 217.161 28.6908C217.119 28.6163 217.074 28.5588 217.018 28.4864C216.197 27.4331 216.092 26.4298 216.972 25.343C217.755 24.3741 218.152 23.2796 218.152 22.0898C218.152 19.6405 216.713 17.5211 214.637 16.5319V14.1797H216.395V15.0586C216.395 15.544 216.788 15.9375 217.273 15.9375C217.759 15.9375 218.152 15.544 218.152 15.0586V14.1797H220.789C221.274 14.1797 221.668 13.7862 221.668 13.3008C221.668 12.9223 221.625 3.98759 217.895 0.257461C217.73 0.0926367 217.507 0 217.273 0ZM215.593 24.2522C214.965 25.0352 214.176 26.4738 214.861 28.2422H209.139C209.696 26.8052 209.334 25.3915 208.394 24.2355C208.074 23.8397 207.851 23.4157 207.726 22.9682H216.274C216.134 23.468 215.906 23.8561 215.593 24.2522ZM216.306 21.2109H207.694C208.102 19.2075 209.878 17.6953 212 17.6953C214.122 17.6953 215.898 19.2075 216.306 21.2109ZM211.121 16.0005V14.1797H212.879V16.0005C212.592 15.9593 212.298 15.9375 212 15.9375C211.702 15.9375 211.408 15.9593 211.121 16.0005ZM204.116 12.4219C204.218 10.2258 204.711 4.48341 207.107 1.75781H216.893C219.284 4.48001 219.781 10.2253 219.883 12.4219H204.116Z" fill="black"/>
<g clip-path="url(#clip3_91_247)">
<mask id="mask2_91_247" style="mask-type:luminance" maskUnits="userSpaceOnUse" x="246" y="0" width="30" height="30">
<path d="M276 0H246V30H276V0Z" fill="white"/>
</mask>
<g mask="url(#mask2_91_247)">
<path d="M269.672 5.85938H252.094C250.67 5.85938 249.516 7.01364 249.516 8.4375C249.516 9.86136 250.67 11.0156 252.094 11.0156H269.672C271.096 11.0156 272.25 9.86136 272.25 8.4375C272.25 7.01364 271.096 5.85938 269.672 5.85938Z" fill="#FFE700"/>
<path d="M273.943 5.28955H248.057C246.923 5.28955 246 6.21252 246 7.34704V14.8876C246 16.774 247.535 18.3087 249.421 18.3087H272.579C274.465 18.3087 276 16.774 276 14.8876V7.34704C276 6.21252 275.077 5.28955 273.943 5.28955ZM250.46 6.94044H271.54V8.88402C271.54 9.64815 270.918 10.2699 270.154 10.2699H251.846C251.082 10.2699 250.46 9.64827 250.46 8.88402L250.46 6.94044ZM274.349 14.8876C274.349 15.8636 273.555 16.6578 272.579 16.6578H249.421C248.445 16.6578 247.651 15.8638 247.651 14.8876V7.34704C247.651 7.12288 247.833 6.94044 248.057 6.94044H248.809V8.88402C248.809 10.5585 250.172 11.9208 251.846 11.9208H270.154C271.828 11.9208 273.19 10.5585 273.19 8.88402V6.94044H273.942C274.166 6.94044 274.349 7.12288 274.349 7.34704L274.349 14.8876Z" fill="black"/>
<path d="M272.365 14.0615H249.635C249.179 14.0615 248.81 14.4311 248.81 14.887C248.81 15.3429 249.179 15.7124 249.635 15.7124H272.365C272.821 15.7124 273.191 15.3429 273.191 14.887C273.191 14.4311 272.821 14.0615 272.365 14.0615Z" fill="black"/>
<path d="M255.927 20.9141C255.9 20.8987 255.874 20.8837 255.85 20.8693C256.239 20.7022 256.442 20.2627 256.307 19.8533C256.165 19.4203 255.698 19.1847 255.265 19.3273C255.06 19.3947 254.033 19.7778 253.944 20.6941C253.883 21.3231 254.278 21.8814 255.119 22.3537C255.391 22.5064 255.456 22.621 255.458 22.6412C255.466 22.7559 255.242 23.0582 255.026 23.2259C254.662 23.5007 254.59 24.0182 254.864 24.3819C255.027 24.5971 255.274 24.7103 255.524 24.7103C255.697 24.7103 255.872 24.6559 256.021 24.5434C256.139 24.4537 257.179 23.635 257.105 22.5299C257.074 22.0771 256.845 21.4292 255.927 20.9141Z" fill="black"/>
<path d="M261.404 20.9141C261.376 20.8987 261.351 20.8837 261.327 20.8693C261.715 20.7022 261.919 20.2627 261.784 19.8533C261.641 19.4203 261.175 19.1847 260.742 19.3273C260.537 19.3947 259.509 19.7778 259.42 20.6941C259.359 21.3231 259.755 21.8814 260.596 22.3537C260.868 22.5064 260.933 22.621 260.934 22.6412C260.943 22.7559 260.719 23.0582 260.502 23.2259C260.139 23.5007 260.066 24.0182 260.341 24.3819C260.503 24.5971 260.75 24.7103 261 24.7103C261.174 24.7103 261.348 24.6559 261.497 24.5434C261.616 24.4537 262.656 23.635 262.581 22.5299C262.551 22.0771 262.322 21.4292 261.404 20.9141Z" fill="black"/>
<path d="M266.88 20.9141C266.853 20.8987 266.827 20.8837 266.803 20.8693C267.192 20.7022 267.395 20.2627 267.26 19.8533C267.118 19.4203 266.652 19.1847 266.218 19.3273C266.013 19.3947 264.986 19.7778 264.897 20.6941C264.836 21.3231 265.231 21.8814 266.072 22.3537C266.344 22.5064 266.409 22.621 266.411 22.6412C266.419 22.7559 266.195 23.0582 265.979 23.2259C265.615 23.5007 265.543 24.0182 265.818 24.3819C265.98 24.5971 266.227 24.7103 266.477 24.7103C266.65 24.7103 266.825 24.6559 266.974 24.5434C267.093 24.4537 268.133 23.635 268.058 22.5299C268.027 22.0771 267.798 21.4292 266.88 20.9141Z" fill="black"/>
</g>
</g>
<g clip-path="url(#clip4_91_247)">
<mask id="mask3_91_247" style="mask-type:luminance" maskUnits="userSpaceOnUse" x="295" y="0" width="30" height="30">
<path d="M325 0H295V30H325V0Z" fill="white"/>
</mask>
<g mask="url(#mask3_91_247)">
<path d="M308.125 1.17188H297.812C297.036 1.17188 296.406 1.80147 296.406 2.57812V27.1875C296.406 27.9642 297.036 28.5938 297.812 28.5938H308.125C308.902 28.5938 309.531 27.9642 309.531 27.1875V2.57812C309.531 1.80147 308.902 1.17188 308.125 1.17188Z" fill="#FFE700"/>
<path d="M321.924 0H312.197C311.337 0 310.559 0.355254 310 0.92625C309.441 0.355254 308.663 0 307.803 0H298.076C296.38 0 295 1.38 295 3.07617V26.9238C295 28.62 296.38 30 298.076 30H307.803C308.663 30 309.441 29.6447 310 29.0737C310.559 29.6447 311.337 30 312.197 30H321.924C323.62 30 325 28.62 325 26.9238V3.07617C325 1.38 323.62 0 321.924 0ZM307.803 28.2422H298.076C297.349 28.2422 296.758 27.6509 296.758 26.9238V3.07617C296.758 2.34926 297.349 1.75781 298.076 1.75781H307.803C308.53 1.75781 309.121 2.34926 309.121 3.07617V26.9238C309.121 27.6509 308.53 28.2422 307.803 28.2422ZM323.242 26.9238C323.242 27.6509 322.651 28.2422 321.924 28.2422H312.197C311.47 28.2422 310.879 27.6509 310.879 26.9238V3.07617C310.879 2.34926 311.47 1.75781 312.197 1.75781H321.924C322.651 1.75781 323.242 2.34926 323.242 3.07617V26.9238Z" fill="black"/>
<path d="M306.47 5.29541H299.409C298.924 5.29541 298.53 5.6889 298.53 6.17432C298.53 6.65971 298.924 7.05322 299.409 7.05322H306.47C306.955 7.05322 307.349 6.65971 307.349 6.17432C307.349 5.6889 306.955 5.29541 306.47 5.29541Z" fill="black"/>
<path d="M306.47 8.82568H299.409C298.924 8.82568 298.53 9.2192 298.53 9.70459C298.53 10.19 298.924 10.5835 299.409 10.5835H306.47C306.955 10.5835 307.349 10.19 307.349 9.70459C307.349 9.2192 306.955 8.82568 306.47 8.82568Z" fill="black"/>
<path d="M306.47 12.356H299.409C298.924 12.356 298.53 12.7494 298.53 13.2349C298.53 13.7203 298.924 14.1138 299.409 14.1138H306.47C306.955 14.1138 307.349 13.7203 307.349 13.2349C307.349 12.7494 306.955 12.356 306.47 12.356Z" fill="black"/>
<path d="M320.591 5.29541H313.53C313.045 5.29541 312.651 5.6889 312.651 6.17432C312.651 6.65971 313.045 7.05322 313.53 7.05322H320.591C321.076 7.05322 321.47 6.65971 321.47 6.17432C321.47 5.6889 321.076 5.29541 320.591 5.29541Z" fill="black"/>
<path d="M320.591 8.82568H313.53C313.045 8.82568 312.651 9.2192 312.651 9.70459C312.651 10.19 313.045 10.5835 313.53 10.5835H320.591C321.076 10.5835 321.47 10.19 321.47 9.70459C321.47 9.2192 321.076 8.82568 320.591 8.82568Z" fill="black"/>
<path d="M320.591 12.356H313.53C313.045 12.356 312.651 12.7494 312.651 13.2349C312.651 13.7203 313.045 14.1138 313.53 14.1138H320.591C321.076 14.1138 321.47 13.7203 321.47 13.2349C321.47 12.7494 321.076 12.356 320.591 12.356Z" fill="black"/>
<path d="M306.47 17.6514C305.984 17.6514 305.591 18.0449 305.591 18.5303V22.0605C305.591 22.5459 305.984 22.9395 306.47 22.9395C306.955 22.9395 307.349 22.5459 307.349 22.0605V18.5303C307.349 18.0449 306.955 17.6514 306.47 17.6514Z" fill="black"/>
<path d="M320.591 17.6514C320.105 17.6514 319.712 18.0449 319.712 18.5303V22.0605C319.712 22.5459 320.105 22.9395 320.591 22.9395C321.076 22.9395 321.47 22.5459 321.47 22.0605V18.5303C321.47 18.0449 321.076 17.6514 320.591 17.6514Z" fill="black"/>
</g>
</g>
<g clip-path="url(#clip5_91_247)">
<mask id="mask4_91_247" style="mask-type:luminance" maskUnits="userSpaceOnUse" x="147" y="0" width="31" height="30">
<path d="M178 0H147V30H178V0Z" fill="white"/>
</mask>
<g mask="url(#mask4_91_247)">
<path d="M148.09 4.21875C148.13 9.72656 148.187 20.8125 148.09 21.0938L147.969 21.2109L150.148 19.5703L152.086 18.6328H173.52V0.9375H153.418L150.754 1.52344L148.09 4.21875Z" fill="#FFE700"/>
<path d="M174.367 3.60398V0H153.357C149.852 0 147 2.75986 147 6.15234V23.8477C147 27.2402 149.852 30 153.357 30H173.459C175.963 30 178 28.0287 178 25.6055V7.91016C178 5.78796 176.437 4.01229 174.367 3.60398ZM148.816 6.15234C148.816 3.72916 150.853 1.75781 153.357 1.75781H172.551V17.6953H153.357C151.58 17.6953 149.971 18.4046 148.816 19.5461V6.15234ZM173.459 28.2422H153.357C150.853 28.2422 148.816 26.2709 148.816 23.8477C148.816 21.4245 150.853 19.4531 153.357 19.4531H174.367V5.42449C175.424 5.78752 176.184 6.76437 176.184 7.91016V22.0921C175.424 21.5392 174.481 21.2109 173.459 21.2109H153.357C151.855 21.2109 150.633 22.3938 150.633 23.8477C150.633 25.3015 151.855 26.4844 153.357 26.4844H174.367V24.7266H153.357C152.857 24.7266 152.449 24.3321 152.449 23.8477C152.449 23.3631 152.857 22.9688 153.357 22.9688H173.459C174.961 22.9688 176.184 24.1516 176.184 25.6055C176.184 27.0593 174.961 28.2422 173.459 28.2422Z" fill="black"/>
</g>
</g>
<defs>
<clipPath id="clip0_91_247">
<rect width="30" height="30" fill="white"/>
</clipPath>
<clipPath id="clip1_91_247">
<rect width="30" height="30" fill="white" transform="translate(49)"/>
</clipPath>
<clipPath id="clip2_91_247">
<rect width="30" height="30" fill="white" transform="translate(98)"/>
</clipPath>
<clipPath id="clip3_91_247">
<rect width="30" height="30" fill="white" transform="translate(246)"/>
</clipPath>
<clipPath id="clip4_91_247">
<rect width="30" height="30" fill="white" transform="translate(295)"/>
</clipPath>
<clipPath id="clip5_91_247">
<rect width="31" height="30" fill="white" transform="translate(147)"/>
</clipPath>
</defs>
</svg>
