<svg width="38" height="28" viewBox="0 0 38 28" fill="none" xmlns="http://www.w3.org/2000/svg">
<path d="M18.8325 12.6011C20.0541 12.6011 21.2483 12.2388 22.264 11.5601C23.2797 10.8814 24.0713 9.91668 24.5387 8.78808C25.0062 7.65948 25.1284 6.41758 24.8899 5.21938C24.6515 4.02128 24.0631 2.92078 23.1992 2.05708C22.3353 1.19338 21.2348 0.605277 20.0367 0.367077C18.8385 0.128877 17.5965 0.251376 16.4681 0.719076C15.3395 1.18668 14.375 1.97858 13.6965 2.99438C13.018 4.01018 12.656 5.20448 12.6563 6.42608C12.6582 8.06338 13.3096 9.63308 14.4675 10.7907C15.6254 11.9484 17.1952 12.5994 18.8325 12.6011ZM18.8325 2.74978C19.5596 2.74978 20.2704 2.96538 20.8749 3.36938C21.4795 3.77328 21.9507 4.34748 22.2289 5.01918C22.5072 5.69098 22.5799 6.43018 22.438 7.14328C22.2962 7.85638 21.946 8.51148 21.4319 9.02558C20.9178 9.53968 20.2628 9.88978 19.5497 10.0317C18.8366 10.1735 18.0973 10.1007 17.4256 9.82248C16.7538 9.54418 16.1798 9.07308 15.7758 8.46848C15.3719 7.86388 15.1562 7.15318 15.1562 6.42608C15.1576 5.45148 15.5453 4.51718 16.2345 3.82798C16.9236 3.13888 17.8579 2.75118 18.8325 2.74978Z" fill="black"/>
<path d="M7.16797 16.2314C8.10737 16.2314 9.02577 15.9528 9.80687 15.4309C10.5881 14.9089 11.1969 14.1671 11.5564 13.2991C11.9159 12.4312 12.01 11.4761 11.8267 10.5547C11.6434 9.63332 11.191 8.78692 10.5267 8.12262C9.86237 7.45832 9.01607 7.00602 8.09457 6.82272C7.17317 6.63942 6.21817 6.73352 5.35017 7.09302C4.48227 7.45252 3.74037 8.06132 3.21847 8.84242C2.69657 9.62362 2.41797 10.5419 2.41797 11.4814C2.41797 12.7412 2.91837 13.9494 3.80917 14.8402C4.69997 15.731 5.90817 16.2314 7.16797 16.2314ZM7.16797 9.23142C7.61297 9.23142 8.04797 9.36342 8.41797 9.61062C8.78797 9.85782 9.07637 10.2092 9.24667 10.6204C9.41697 11.0315 9.46157 11.4839 9.37467 11.9204C9.28787 12.3568 9.07357 12.7577 8.75897 13.0724C8.44427 13.3871 8.04337 13.6014 7.60687 13.6882C7.17047 13.775 6.71807 13.7304 6.30687 13.5601C5.89577 13.3898 5.54437 13.1014 5.29717 12.7314C5.04987 12.3614 4.91797 11.9264 4.91797 11.4814C4.91797 10.8847 5.15497 10.3124 5.57697 9.89042C5.99887 9.46852 6.57117 9.23142 7.16797 9.23142Z" fill="black"/>
<path d="M30.5 16.2314C31.4395 16.2314 32.3578 15.9528 33.139 15.4309C33.9201 14.9089 34.5289 14.1671 34.8884 13.2991C35.2479 12.4312 35.342 11.4761 35.1587 10.5547C34.9755 9.63332 34.5231 8.78692 33.8588 8.12262C33.1945 7.45832 32.3481 7.00602 31.4267 6.82272C30.5053 6.63942 29.5502 6.73352 28.6823 7.09302C27.8143 7.45252 27.0725 8.06132 26.5505 8.84242C26.0286 9.62362 25.75 10.5419 25.75 11.4814C25.75 12.7412 26.2504 13.9494 27.1412 14.8402C28.032 15.731 29.2402 16.2314 30.5 16.2314ZM30.5 9.23142C30.945 9.23142 31.38 9.36342 31.75 9.61062C32.12 9.85782 32.4084 10.2092 32.5787 10.6204C32.749 11.0315 32.7936 11.4839 32.7068 11.9204C32.62 12.3568 32.4057 12.7577 32.091 13.0724C31.7763 13.3871 31.3754 13.6014 30.939 13.6882C30.5025 13.775 30.0501 13.7304 29.639 13.5601C29.2278 13.3898 28.8764 13.1014 28.6292 12.7314C28.382 12.3614 28.25 11.9264 28.25 11.4814C28.25 10.8847 28.4871 10.3124 28.909 9.89042C29.331 9.46852 29.9033 9.23142 30.5 9.23142Z" fill="black"/>
<path d="M30.6652 18.7388C29.5693 18.746 28.4927 19.0266 27.5327 19.555C26.62 18.1102 25.3621 16.9152 23.8722 16.0779C22.3824 15.2405 20.7077 14.7872 18.9989 14.7588C17.2902 14.7872 15.6154 15.2405 14.1256 16.0779C12.6358 16.9152 11.3778 18.1102 10.4652 19.555C9.5052 19.0266 8.4285 18.746 7.3327 18.7388C5.3663 18.8347 3.5177 19.7047 2.1905 21.1589C0.863402 22.613 0.165402 24.5331 0.248902 26.5C0.248902 26.8316 0.380601 27.1495 0.615001 27.3839C0.849401 27.6183 1.1674 27.75 1.4989 27.75C1.8304 27.75 2.1484 27.6183 2.3828 27.3839C2.6172 27.1495 2.7489 26.8316 2.7489 26.5C2.667 25.1964 3.1022 23.9129 3.9603 22.9281C4.8184 21.9432 6.0301 21.3362 7.3327 21.2388C8.0234 21.2441 8.7016 21.4243 9.3039 21.7625C8.7148 23.2472 8.4132 24.8303 8.4152 26.4275C8.4152 26.7591 8.5469 27.077 8.7813 27.3114C9.0157 27.5458 9.3336 27.6775 9.6652 27.6775C9.9967 27.6775 10.3146 27.5458 10.549 27.3114C10.7835 27.077 10.9152 26.7591 10.9152 26.4275C10.9152 21.3713 14.5402 17.2588 18.9989 17.2588C23.4577 17.2588 27.0827 21.3713 27.0827 26.4275C27.0827 26.7591 27.2144 27.077 27.4488 27.3114C27.6832 27.5458 28.0011 27.6775 28.3327 27.6775C28.6642 27.6775 28.9821 27.5458 29.2165 27.3114C29.451 27.077 29.5827 26.7591 29.5827 26.4275C29.5846 24.8303 29.283 23.2472 28.6939 21.7625C29.2962 21.4243 29.9744 21.2441 30.6652 21.2388C31.9678 21.3362 33.1795 21.9432 34.0375 22.9281C34.8956 23.9129 35.3308 25.1964 35.2489 26.5C35.2489 26.8316 35.3806 27.1495 35.615 27.3839C35.8494 27.6183 36.1674 27.75 36.4989 27.75C36.8304 27.75 37.1484 27.6183 37.3828 27.3839C37.6172 27.1495 37.7489 26.8316 37.7489 26.5C37.8325 24.5331 37.1345 22.613 35.8073 21.1589C34.4801 19.7047 32.6315 18.8347 30.6652 18.7388Z" fill="black"/>
</svg>
