<svg width="57" height="46" viewBox="0 0 57 46" fill="none" xmlns="http://www.w3.org/2000/svg">
<path d="M42.2518 8.32666C43.9585 8.32666 45.3376 9.70575 45.3376 11.4124C45.3376 13.119 43.9585 14.4981 42.2518 14.4981C40.5451 14.4981 39.166 13.119 39.166 11.4124" stroke="#FFE600" stroke-width="2.45229" stroke-miterlimit="10" stroke-linecap="round"/>
<path d="M9.44629 18.5059H14.5834" stroke="#FFE600" stroke-width="2.45229" stroke-miterlimit="10" stroke-linecap="round"/>
<path d="M18.8506 9.36914H25.203" stroke="#FFE600" stroke-width="2.45229" stroke-miterlimit="10" stroke-linecap="round"/>
<path d="M52.2678 44.2774L45.1484 34.7358" stroke="#FFE600" stroke-width="2.45229" stroke-miterlimit="10" stroke-linecap="round"/>
<path d="M38.46 44.2773L29.2891 31.9775" stroke="#FFE600" stroke-width="2.45229" stroke-miterlimit="10" stroke-linecap="round"/>
<path d="M2 44.3205L16.8597 24.4099C19.2645 21.1863 24.0999 21.1863 26.5047 24.4099L41.3643 44.3205" stroke="black" stroke-width="2.45229" stroke-miterlimit="10" stroke-linecap="round"/>
<path d="M34.8994 28.8231L36.158 27.1337C37.6576 25.1254 40.6743 25.1254 42.1743 27.1337L54.9996 44.3206" stroke="black" stroke-width="2.45229" stroke-miterlimit="10" stroke-linecap="round"/>
<path d="M12.998 29.5728L18.7558 35.3304L22.6689 31.4173L24.3928 33.1412L29.2972 28.2368" stroke="black" stroke-width="2.45229" stroke-linecap="round" stroke-linejoin="round"/>
<path d="M44.5885 30.3745L41.5111 33.4516L40.0546 31.9949L38.1152 33.9343" stroke="black" stroke-width="2.45229" stroke-linecap="round" stroke-linejoin="round"/>
<path d="M20.9371 4.40479H20.0924C18.515 4.40479 17.2394 5.68044 17.2394 7.25778H15.0328C13.8951 7.25778 12.9814 8.18004 12.9814 9.30917C12.9814 10.4469 13.9037 11.3606 15.0328 11.3606H25.3157C26.712 11.3606 27.8411 10.2314 27.8411 8.83511C27.8411 7.43878 26.712 6.30965 25.3157 6.30965H22.8419" stroke="black" stroke-width="2.45229" stroke-miterlimit="10" stroke-linecap="round"/>
<path d="M10.9646 14.5752H10.2664C8.96488 14.5752 7.91333 15.6268 7.91333 16.9283H6.09465C5.16377 16.9283 4.40527 17.6868 4.40527 18.6177C4.40527 19.5485 5.16377 20.307 6.09465 20.307H14.5674C15.7138 20.307 16.6447 19.3762 16.6447 18.2298C16.6447 17.0834 15.7138 16.1525 14.5674 16.1525H12.5247" stroke="black" stroke-width="2.45229" stroke-miterlimit="10" stroke-linecap="round"/>
<path d="M42.2773 2V3.66353" stroke="black" stroke-width="2.45229" stroke-linecap="round" stroke-linejoin="round"/>
<path d="M35.6328 4.74951L36.8136 5.93036" stroke="black" stroke-width="2.45229" stroke-linecap="round" stroke-linejoin="round"/>
<path d="M32.8828 11.3862H34.555" stroke="black" stroke-width="2.45229" stroke-linecap="round" stroke-linejoin="round"/>
<path d="M50.001 11.3862H51.6733" stroke="black" stroke-width="2.45229" stroke-linecap="round" stroke-linejoin="round"/>
<path d="M47.7432 16.8511L48.9239 18.0319" stroke="black" stroke-width="2.45229" stroke-linecap="round" stroke-linejoin="round"/>
<path d="M42.2773 19.1177V20.7812" stroke="black" stroke-width="2.45229" stroke-linecap="round" stroke-linejoin="round"/>
<path d="M47.7432 5.93036L48.9239 4.74951" stroke="black" stroke-width="2.45229" stroke-linecap="round" stroke-linejoin="round"/>
<path d="M42.2523 16.4283C45.037 16.4283 47.2946 14.1708 47.2946 11.386C47.2946 8.60127 45.037 6.34375 42.2523 6.34375C39.4675 6.34375 37.21 8.60127 37.21 11.386C37.21 14.1708 39.4675 16.4283 42.2523 16.4283Z" stroke="black" stroke-width="2.45229" stroke-linecap="round" stroke-linejoin="round"/>
<path d="M34.7106 16.7217H31.0732C30.0879 16.7217 29.2891 17.5205 29.2891 18.5059V18.5145C29.2891 19.4999 30.0879 20.2987 31.0732 20.2987H34.7106C35.6961 20.2987 36.4947 19.4999 36.4947 18.5145V18.5059C36.4947 17.5205 35.6961 16.7217 34.7106 16.7217Z" stroke="black" stroke-width="2.45229" stroke-miterlimit="10" stroke-linecap="round"/>
</svg>
