<svg width="30" height="30" viewBox="0 0 30 30" fill="none" xmlns="http://www.w3.org/2000/svg">
<g clip-path="url(#clip0_91_213)">
<mask id="mask0_91_213" style="mask-type:luminance" maskUnits="userSpaceOnUse" x="0" y="0" width="30" height="30">
<path d="M30 0H0V30H30V0Z" fill="white"/>
</mask>
<g mask="url(#mask0_91_213)">
<path d="M13.125 1.17188H2.8125C2.03585 1.17188 1.40625 1.80147 1.40625 2.57812V27.1875C1.40625 27.9642 2.03585 28.5938 2.8125 28.5938H13.125C13.9017 28.5938 14.5312 27.9642 14.5312 27.1875V2.57812C14.5312 1.80147 13.9017 1.17188 13.125 1.17188Z" fill="#FFE700"/>
<path d="M26.9238 0H17.1973C16.3372 0 15.5588 0.355254 15 0.92625C14.4412 0.355254 13.6628 0 12.8027 0H3.07617C1.37994 0 0 1.38 0 3.07617V26.9238C0 28.62 1.37994 30 3.07617 30H12.8027C13.6628 30 14.4412 29.6447 15 29.0737C15.5588 29.6447 16.3372 30 17.1973 30H26.9238C28.62 30 30 28.62 30 26.9238V3.07617C30 1.38 28.62 0 26.9238 0ZM12.8027 28.2422H3.07617C2.34921 28.2422 1.75781 27.6509 1.75781 26.9238V3.07617C1.75781 2.34926 2.34921 1.75781 3.07617 1.75781H12.8027C13.5297 1.75781 14.1211 2.34926 14.1211 3.07617V26.9238C14.1211 27.6509 13.5297 28.2422 12.8027 28.2422ZM28.2422 26.9238C28.2422 27.6509 27.6509 28.2422 26.9238 28.2422H17.1973C16.4703 28.2422 15.8789 27.6509 15.8789 26.9238V3.07617C15.8789 2.34926 16.4703 1.75781 17.1973 1.75781H26.9238C27.6509 1.75781 28.2422 2.34926 28.2422 3.07617V26.9238Z" fill="black"/>
<path d="M11.4697 5.29541H4.40918C3.92379 5.29541 3.53027 5.6889 3.53027 6.17432C3.53027 6.65971 3.92379 7.05322 4.40918 7.05322H11.4697C11.9551 7.05322 12.3486 6.65971 12.3486 6.17432C12.3486 5.6889 11.9551 5.29541 11.4697 5.29541Z" fill="black"/>
<path d="M11.4697 8.82568H4.40918C3.92379 8.82568 3.53027 9.2192 3.53027 9.70459C3.53027 10.19 3.92379 10.5835 4.40918 10.5835H11.4697C11.9551 10.5835 12.3486 10.19 12.3486 9.70459C12.3486 9.2192 11.9551 8.82568 11.4697 8.82568Z" fill="black"/>
<path d="M11.4697 12.356H4.40918C3.92379 12.356 3.53027 12.7494 3.53027 13.2349C3.53027 13.7203 3.92379 14.1138 4.40918 14.1138H11.4697C11.9551 14.1138 12.3486 13.7203 12.3486 13.2349C12.3486 12.7494 11.9551 12.356 11.4697 12.356Z" fill="black"/>
<path d="M25.5909 5.29541H18.5303C18.0449 5.29541 17.6514 5.6889 17.6514 6.17432C17.6514 6.65971 18.0449 7.05322 18.5303 7.05322H25.5909C26.0763 7.05322 26.4698 6.65971 26.4698 6.17432C26.4698 5.6889 26.0763 5.29541 25.5909 5.29541Z" fill="black"/>
<path d="M25.5909 8.82568H18.5303C18.0449 8.82568 17.6514 9.2192 17.6514 9.70459C17.6514 10.19 18.0449 10.5835 18.5303 10.5835H25.5909C26.0763 10.5835 26.4698 10.19 26.4698 9.70459C26.4698 9.2192 26.0763 8.82568 25.5909 8.82568Z" fill="black"/>
<path d="M25.5909 12.356H18.5303C18.0449 12.356 17.6514 12.7494 17.6514 13.2349C17.6514 13.7203 18.0449 14.1138 18.5303 14.1138H25.5909C26.0763 14.1138 26.4698 13.7203 26.4698 13.2349C26.4698 12.7494 26.0763 12.356 25.5909 12.356Z" fill="black"/>
<path d="M11.4697 17.6514C10.9843 17.6514 10.5908 18.0449 10.5908 18.5303V22.0605C10.5908 22.5459 10.9843 22.9395 11.4697 22.9395C11.9551 22.9395 12.3486 22.5459 12.3486 22.0605V18.5303C12.3486 18.0449 11.9551 17.6514 11.4697 17.6514Z" fill="black"/>
<path d="M25.5908 17.6514C25.1052 17.6514 24.7119 18.0449 24.7119 18.5303V22.0605C24.7119 22.5459 25.1052 22.9395 25.5908 22.9395C26.0762 22.9395 26.4697 22.5459 26.4697 22.0605V18.5303C26.4697 18.0449 26.0762 17.6514 25.5908 17.6514Z" fill="black"/>
</g>
</g>
<defs>
<clipPath id="clip0_91_213">
<rect width="30" height="30" fill="white"/>
</clipPath>
</defs>
</svg>
