<svg width="30" height="30" viewBox="0 0 30 30" fill="none" xmlns="http://www.w3.org/2000/svg">
<g clip-path="url(#clip0_91_197)">
<mask id="mask0_91_197" style="mask-type:luminance" maskUnits="userSpaceOnUse" x="0" y="0" width="30" height="30">
<path d="M30 0H0V30H30V0Z" fill="white"/>
</mask>
<g mask="url(#mask0_91_197)">
<path d="M8.20293 8.08594C7.85137 8.78906 8.55449 11.4844 8.55449 12.0703L13.7107 12.5391L17.5779 13.0078L20.156 12.3047L21.6795 13.2422L21.4451 15.7031V17.5781L24.9607 16.9922L26.8357 17.5781L28.5935 17.2266L29.0623 16.0547L28.5935 13.2422C28.8279 11.9141 29.2967 9.21094 29.2967 9.02344C29.2967 8.83594 28.8279 6.52343 28.5935 5.39062L29.2967 2.92969L28.8279 1.40625L27.3045 0.820312L24.6092 1.40625L18.5154 0.585938L12.4217 1.40625L9.72634 0.585938L8.20293 2.34375L8.78884 4.6875C8.71073 5.58593 8.48418 7.52344 8.20293 8.08594Z" fill="#FFE700"/>
<path d="M29.9081 14.8907L29.4837 13.2599C30.0396 10.6032 30.0363 7.80966 29.4741 5.15262L29.9081 3.48422C30.1589 2.5218 29.8889 1.52724 29.1855 0.823819C28.482 0.120108 27.4868 -0.150478 26.5233 0.100186L24.8801 0.528389C24.7369 0.565655 24.5855 0.571104 24.4423 0.544327C20.5009 -0.193896 16.5087 -0.181123 12.5736 0.582002L10.7205 0.100186C9.75785 -0.150654 8.76312 0.119463 8.05957 0.822647C7.35574 1.52606 7.08511 2.52098 7.33577 3.48434L7.76742 5.1402C7.30172 7.34278 7.21765 9.5786 7.51566 11.8021C6.78546 11.892 6.05648 12.0072 5.32952 12.1482L3.47644 11.6659C2.51339 11.4152 1.51864 11.6856 0.815048 12.3891C0.111454 13.0925 -0.158839 14.0872 0.0918834 15.0499L0.523369 16.7064C-0.0369056 19.3626 -0.038312 22.1564 0.519384 24.8142L0.0917076 26.4567C-0.158956 27.4193 0.111395 28.414 0.81499 29.1176C1.51853 29.8209 2.51332 30.0914 3.47632 29.8406L5.21273 29.3885C7.26363 29.7963 9.32719 30 11.3914 30C13.4505 30 15.5096 29.797 17.555 29.3913L19.2797 29.8404C20.2425 30.0909 21.2375 29.8207 21.9411 29.1171C22.6447 28.4137 22.915 27.4191 22.6643 26.4562L22.2396 24.8259C22.6933 22.657 22.7741 20.3973 22.4829 18.1952C23.2599 18.1002 24.0354 17.9769 24.7992 17.8257L26.5235 18.2743C26.7602 18.3359 26.9986 18.3661 27.2344 18.3661C27.9579 18.3661 28.6545 18.082 29.1851 17.5513C29.8887 16.8479 30.1589 15.8531 29.9081 14.8907ZM20.698 27.8747C20.5743 27.9984 20.2313 28.2722 19.7225 28.1398L17.8015 27.6396C17.6714 27.6059 17.5353 27.6021 17.4036 27.6293C13.4097 28.4477 9.35918 28.4468 5.36449 27.6265C5.23273 27.5993 5.09648 27.6028 4.96624 27.6368L3.03328 28.14C2.52464 28.2724 2.18163 27.9987 2.05782 27.8749C1.93395 27.7512 1.66026 27.4083 1.79269 26.8995L2.27304 25.0549C2.30808 24.9202 2.31071 24.7793 2.2806 24.6434C1.71786 22.1027 1.71921 19.4177 2.28452 16.8787C2.31481 16.7426 2.31229 16.6012 2.27714 16.4663L1.79292 14.6071C1.66044 14.0984 1.93413 13.7555 2.058 13.6317C2.18186 13.5079 2.5248 13.2343 3.03352 13.3666L5.08113 13.8995C5.21004 13.9331 5.34492 13.9369 5.47542 13.9107C6.50508 13.7042 7.53902 13.5525 8.57515 13.455C8.59652 13.4538 8.61797 13.4515 8.63949 13.4488C11.3832 13.1964 14.1417 13.3258 16.8747 13.8377C17.2705 13.9118 17.6869 13.897 18.0791 13.7948L19.7225 13.3669C20.2309 13.2345 20.5742 13.5081 20.698 13.632C20.8219 13.7557 21.0956 14.0986 20.9632 14.6072L20.4759 16.4786C20.4407 16.6137 20.4382 16.7552 20.4686 16.8915C21.0357 19.4311 21.039 22.116 20.4782 24.6558C20.4482 24.791 20.4509 24.933 20.4859 25.0671L20.963 26.8995C21.0956 27.408 20.8219 27.7509 20.698 27.8747ZM27.942 16.3088C27.8182 16.4326 27.4753 16.7063 26.9663 16.5737L25.0455 16.074C24.9155 16.0402 24.7795 16.0366 24.6478 16.0636C23.8751 16.2219 23.0888 16.35 22.3005 16.4471L22.6644 15.05C22.915 14.0873 22.6446 13.0926 21.941 12.3892C21.2374 11.6858 20.2424 11.4155 19.2796 11.6662L17.6361 12.0941C17.4926 12.1315 17.3411 12.137 17.1985 12.1103C14.5665 11.6173 11.9123 11.4597 9.26789 11.6362C8.97703 9.52523 9.06359 7.40168 9.5287 5.31239C9.55906 5.17622 9.55648 5.03484 9.52132 4.89984L9.03687 3.04148C8.90445 2.53247 9.17836 2.18946 9.3023 2.0656C9.42609 1.94185 9.76887 1.66845 10.2777 1.80093L12.3255 2.33343C12.4543 2.36695 12.5891 2.37075 12.7195 2.34457C16.4975 1.58712 20.3327 1.56257 24.1191 2.27179C24.5149 2.34579 24.9312 2.33108 25.323 2.22907L26.9663 1.80093C27.4751 1.66862 27.8184 1.94243 27.9422 2.06636C28.0659 2.19011 28.3395 2.53289 28.207 3.04153L27.72 4.9132C27.6848 5.0482 27.6825 5.18965 27.713 5.32582C28.2799 7.86555 28.2832 10.5502 27.7223 13.0894C27.6926 13.2246 27.6949 13.3668 27.7301 13.5007L28.207 15.3334C28.3397 15.842 28.0659 16.185 27.942 16.3088Z" fill="black"/>
<path d="M26.3672 9.1821V9.18112C26.366 7.04889 25.6043 5.8408 25.5173 5.70995C25.3702 5.44241 24.9612 5.09882 24.3169 5.45026C23.6723 5.80178 24.0534 6.68249 24.0534 6.68249L24.048 6.67459C24.0539 6.68343 24.6091 7.57898 24.6096 9.18381C24.6091 10.7886 24.0537 11.6841 24.048 11.693L24.0534 11.6851C24.0534 11.6851 23.5767 12.5779 24.3169 12.9338C25.0784 13.3 25.5173 12.6576 25.5173 12.6576C25.6043 12.5269 26.3662 11.3187 26.3672 9.18655V9.18557C26.3672 9.18498 26.3672 9.1844 26.3672 9.18381C26.3672 9.18323 26.3672 9.18276 26.3672 9.1821Z" fill="black"/>
<path d="M19.045 20.79L19.0449 20.789C19.0438 18.6568 18.282 17.4487 18.195 17.3178C18.048 17.0503 17.639 16.7067 16.9945 17.0582C16.35 17.4097 16.7311 18.2904 16.7311 18.2904L16.7259 18.2825C16.7315 18.2913 17.2868 19.1869 17.2872 20.7917C17.2868 22.3965 16.7315 23.292 16.7259 23.3009L16.7311 23.293C16.7311 23.293 16.2545 24.1859 16.9947 24.5417C17.7562 24.9078 18.195 24.2656 18.195 24.2656C18.282 24.1348 19.0439 22.9266 19.0449 20.7944L19.045 20.7935C19.045 20.7929 19.045 20.7923 19.045 20.7917C19.045 20.7911 19.045 20.7906 19.045 20.79Z" fill="black"/>
</g>
</g>
<defs>
<clipPath id="clip0_91_197">
<rect width="30" height="30" fill="white"/>
</clipPath>
</defs>
</svg>
