<svg width="35" height="35" viewBox="0 0 35 35" fill="none" xmlns="http://www.w3.org/2000/svg">
<g clip-path="url(#clip0_91_417)">
<path d="M35.4375 16.0854C35.4367 15.8161 35.3614 15.5523 35.2198 15.3232C35.0782 15.0941 34.876 14.9087 34.6355 14.7875L25.7105 10.325V4.49167C25.7105 3.3004 25.2372 2.15793 24.3949 1.31558C23.5525 0.473228 22.4101 0 21.2188 0C20.0275 0 18.8851 0.473228 18.0427 1.31558C17.2004 2.15793 16.7271 3.3004 16.7271 4.49167V10.325L7.80213 14.7875C7.56163 14.9087 7.35939 15.0941 7.21781 15.3232C7.07624 15.5523 7.00087 15.8161 7.00005 16.0854V20.9417C6.99807 21.1792 7.05417 21.4137 7.16346 21.6247C7.27274 21.8356 7.43192 22.0167 7.62713 22.1521C7.82124 22.2851 8.04464 22.3691 8.27827 22.3971C8.5119 22.425 8.74881 22.396 8.9688 22.3125L16.7271 19.3958V24.8354L14.073 25.7104C13.7833 25.8083 13.5317 25.9946 13.3538 26.2432C13.1758 26.4919 13.0805 26.7901 13.0813 27.0958V30.6687C13.0821 30.8617 13.1212 31.0526 13.1963 31.2303C13.2714 31.408 13.381 31.5691 13.5188 31.7042C13.7904 31.9736 14.1571 32.1255 14.5396 32.1271H27.9125C28.2993 32.1271 28.6703 31.9734 28.9437 31.6999C29.2172 31.4265 29.3709 31.0555 29.3709 30.6687V27.0229C29.3717 26.7172 29.2764 26.4189 29.0984 26.1703C28.9205 25.9217 28.6689 25.7353 28.3792 25.6375L25.7105 24.8354V19.4104L33.4688 22.3271C33.6888 22.4106 33.9257 22.4396 34.1593 22.4116C34.393 22.3837 34.6164 22.2997 34.8105 22.1667C35.0057 22.0313 35.1649 21.8502 35.2741 21.6392C35.3834 21.4283 35.4395 21.1938 35.4375 20.9562V16.0854ZM24.7771 15.9396C24.5551 15.8536 24.3155 15.8233 24.0791 15.8512C23.8427 15.8792 23.6167 15.9646 23.4209 16.1C23.2277 16.234 23.0698 16.4127 22.9606 16.621C22.8514 16.8292 22.7942 17.0607 22.7938 17.2958V25.8125C22.794 26.12 22.8915 26.4196 23.0722 26.6684C23.2529 26.9173 23.5077 27.1026 23.8001 27.1979L26.4396 28.0729V29.2104H15.9834V28.0729L18.623 27.1979C18.9153 27.1026 19.1701 26.9173 19.3508 26.6684C19.5316 26.4196 19.629 26.12 19.6292 25.8125V17.2958C19.6288 17.0607 19.5716 16.8292 19.4624 16.621C19.3532 16.4127 19.1953 16.234 19.0021 16.1C18.8063 15.9646 18.5804 15.8792 18.3439 15.8512C18.1075 15.8233 17.8679 15.8536 17.6459 15.9396L9.90213 18.8562V16.9896L18.8125 12.5271C19.0558 12.4079 19.261 12.2234 19.4053 11.9941C19.5495 11.7649 19.627 11.5 19.6292 11.2292V4.53542C19.6292 4.1177 19.7952 3.71709 20.0905 3.42172C20.3859 3.12635 20.7865 2.96042 21.2042 2.96042C21.6219 2.96042 22.0225 3.12635 22.3179 3.42172C22.6133 3.71709 22.7792 4.1177 22.7792 4.53542V11.2292C22.7814 11.5 22.8589 11.7649 23.0032 11.9941C23.1474 12.2234 23.3527 12.4079 23.5959 12.5271L32.5063 16.9896V18.8417L24.7771 15.9396Z" fill="black"/>
</g>
<defs>
<clipPath id="clip0_91_417">
<rect width="35" height="35" fill="white"/>
</clipPath>
</defs>
</svg>
