<svg width="35" height="35" viewBox="0 0 35 35" fill="none" xmlns="http://www.w3.org/2000/svg">
<g clip-path="url(#clip0_91_414)">
<path d="M5.83301 22.6043C5.83301 25.4189 8.12259 27.7085 10.9372 27.7085L8.74967 29.896V30.6252H26.2497V29.896L24.0622 27.7085C26.8768 27.7085 29.1663 25.4189 29.1663 22.6043V7.29183C29.1663 2.18766 23.9455 1.4585 17.4997 1.4585C11.0538 1.4585 5.83301 2.18766 5.83301 7.29183V22.6043ZM17.4997 24.7918C15.8955 24.7918 14.583 23.4793 14.583 21.8752C14.583 20.271 15.8955 18.9585 17.4997 18.9585C19.1038 18.9585 20.4163 20.271 20.4163 21.8752C20.4163 23.4793 19.1038 24.7918 17.4997 24.7918ZM26.2497 14.5835H8.74967V7.29183H26.2497V14.5835ZM5.83301 22.6043C5.83301 25.4189 8.12259 27.7085 10.9372 27.7085L9.27467 29.3856C8.80801 29.8377 9.12884 30.6252 9.78509 30.6252H25.2143C25.8705 30.6252 26.1913 29.8377 25.7247 29.3856L24.0622 27.7085C26.8768 27.7085 29.1663 25.4189 29.1663 22.6043V7.29183C29.1663 2.18766 23.9455 1.4585 17.4997 1.4585C11.0538 1.4585 5.83301 2.18766 5.83301 7.29183V22.6043ZM17.4997 24.7918C15.8955 24.7918 14.583 23.4793 14.583 21.8752C14.583 20.271 15.8955 18.9585 17.4997 18.9585C19.1038 18.9585 20.4163 20.271 20.4163 21.8752C20.4163 23.4793 19.1038 24.7918 17.4997 24.7918ZM26.2497 14.5835H8.74967V7.29183H26.2497V14.5835Z" fill="black"/>
</g>
<defs>
<clipPath id="clip0_91_414">
<rect width="35" height="35" fill="white"/>
</clipPath>
</defs>
</svg>
