<svg width="39" height="31" viewBox="0 0 39 31" fill="none" xmlns="http://www.w3.org/2000/svg">
<path d="M7.24241 30.875C6.90071 30.875 6.60171 30.7469 6.34551 30.4906C6.08921 30.2344 5.96111 29.9354 5.96111 29.5938V27.8H5.40591C4.09621 27.8 2.98581 27.3444 2.07461 26.4333C1.16351 25.5222 0.708008 24.4118 0.708008 23.1021V12.6813C0.708008 11.2292 1.14931 10.1259 2.03191 9.3714C2.91461 8.6168 3.95381 8.2396 5.14961 8.2396V4.5667C5.14961 3.2569 5.56251 2.1892 6.38821 1.3635C7.21391 0.537801 8.28161 0.125 9.59131 0.125H29.4507C30.7604 0.125 31.821 0.537801 32.6325 1.3635C33.4439 2.1892 33.8497 3.2569 33.8497 4.5667V8.2396C35.0455 8.2396 36.0847 8.6168 36.9674 9.3714C37.85 10.1259 38.2913 11.2292 38.2913 12.6813V23.1021C38.2913 24.4118 37.8358 25.5222 36.9247 26.4333C36.0135 27.3444 34.9031 27.8 33.5934 27.8H33.0382V29.5938C33.0382 29.9354 32.9101 30.2344 32.6538 30.4906C32.3976 30.7469 32.0986 30.875 31.7569 30.875C31.4153 30.875 31.1163 30.7469 30.8601 30.4906C30.6038 30.2344 30.4757 29.9354 30.4757 29.5938V27.8H8.52361V29.5938C8.52361 29.9354 8.39551 30.2344 8.13921 30.4906C7.88301 30.7469 7.58401 30.875 7.24241 30.875ZM5.40591 25.2375H33.5934C34.1628 25.2375 34.6611 25.024 35.0882 24.5969C35.5153 24.1698 35.7288 23.6715 35.7288 23.1021V12.6813C35.7288 12.1118 35.558 11.6563 35.2163 11.3146C34.8747 10.9729 34.4191 10.8021 33.8497 10.8021C33.2802 10.8021 32.8247 10.9729 32.483 11.3146C32.1413 11.6563 31.9705 12.1118 31.9705 12.6813V20.1979H7.02881V12.6813C7.02881 12.1118 6.85801 11.6563 6.51631 11.3146C6.17461 10.9729 5.71911 10.8021 5.14961 10.8021C4.58021 10.8021 4.12461 10.9729 3.78301 11.3146C3.44131 11.6563 3.27051 12.1118 3.27051 12.6813V23.1021C3.27051 23.6715 3.48401 24.1698 3.91111 24.5969C4.33821 25.024 4.83651 25.2375 5.40591 25.2375ZM9.59131 17.6354H29.408V12.6813C29.408 11.7986 29.6073 11.0655 30.0059 10.4818C30.4045 9.8981 30.8316 9.4354 31.2872 9.0938V4.5667C31.2872 3.9972 31.1163 3.5417 30.7747 3.2C30.433 2.8583 29.9774 2.6875 29.408 2.6875H9.59131C9.02191 2.6875 8.56631 2.8583 8.22461 3.2C7.88301 3.5417 7.71211 3.9972 7.71211 4.5667V9.0938C8.16771 9.4354 8.59481 9.8981 8.99341 10.4818C9.39201 11.0655 9.59131 11.7986 9.59131 12.6813V17.6354Z" fill="#121212"/>
</svg>
