<svg width="33" height="32" viewBox="0 0 33 32" fill="none" xmlns="http://www.w3.org/2000/svg">
<path d="M21.6587 16C24.0346 16 25.9668 14.0864 25.9668 11.7333C25.9668 9.3803 24.0346 7.4667 21.6587 7.4667C19.2828 7.4667 17.3506 9.3803 17.3506 11.7333C17.3506 14.0864 19.2828 16 21.6587 16ZM21.6587 9.6C22.8461 9.6 23.8128 10.5574 23.8128 11.7333C23.8128 12.9093 22.8461 13.8667 21.6587 13.8667C20.4714 13.8667 19.5047 12.9093 19.5047 11.7333C19.5047 10.5574 20.4714 9.6 21.6587 9.6ZM16.2736 24.5333H27.0438C27.6391 24.5333 28.1209 24.0562 28.1209 23.4667V22.4C28.1209 20.5324 27.2972 18.7605 25.8605 17.5374C25.5271 17.2519 25.0485 17.201 24.6583 17.4019C22.8196 18.3581 20.4973 18.3581 18.6589 17.4019C18.2688 17.201 17.7913 17.2519 17.4567 17.5374C16.0202 18.7605 15.1966 20.5324 15.1966 22.4V23.4667C15.1966 24.0562 15.6784 24.5333 16.2736 24.5333ZM25.9668 22.4H17.3506C17.3506 21.3781 17.7218 20.3978 18.3856 19.6272C20.4533 20.4667 22.8641 20.4667 24.932 19.6272C25.5958 20.3979 25.9668 21.3781 25.9668 22.4ZM7.65739 23.4667C7.79639 23.4667 7.93609 23.4407 8.06969 23.3855C8.47269 23.221 8.73449 22.8312 8.73449 22.4V19.2H11.9655C12.5608 19.2 13.0426 18.7229 13.0426 18.1333V13.8667C13.0426 13.2771 12.5608 12.8 11.9655 12.8H8.73449V9.6C8.73449 9.1688 8.47269 8.779 8.06969 8.6145C7.66799 8.4488 7.20399 8.5405 6.89579 8.8457L0.433689 15.2457C0.012989 15.6624 0.012989 16.3374 0.433689 16.754L6.89579 23.154C7.10209 23.3583 7.37759 23.4667 7.65739 23.4667ZM10.8885 17.0667H7.65739C7.06219 17.0667 6.58039 17.5438 6.58039 18.1333V19.825L2.71829 16L6.58039 12.175V13.8667C6.58039 14.4562 7.06219 14.9333 7.65739 14.9333H10.8885V17.0667ZM15.1966 30.9333C15.1966 30.3438 15.6784 29.8667 16.2736 29.8667H28.1209C29.3082 29.8667 30.2749 28.9093 30.2749 27.7333V4.2667C30.2749 3.0907 29.3082 2.1333 28.1209 2.1333H16.2736C15.6784 2.1333 15.1966 1.6562 15.1966 1.0667C15.1966 0.4771 15.6784 0 16.2736 0H28.1209C30.4968 0 32.429 1.9136 32.429 4.2667V27.7333C32.429 30.0864 30.4968 32 28.1209 32H16.2736C15.6784 32 15.1966 31.5229 15.1966 30.9333Z" fill="black"/>
</svg>
