<svg width="33" height="32" viewBox="0 0 33 32" fill="none" xmlns="http://www.w3.org/2000/svg">
<path d="M11.0739 16C8.69801 16 6.76581 14.0864 6.76581 11.7333C6.76581 9.3803 8.69801 7.4667 11.0739 7.4667C13.4498 7.4667 15.382 9.3803 15.382 11.7333C15.382 14.0864 13.4498 16 11.0739 16ZM11.0739 9.6C9.88651 9.6 8.91991 10.5574 8.91991 11.7333C8.91991 12.9093 9.88651 13.8667 11.0739 13.8667C12.2613 13.8667 13.228 12.9093 13.228 11.7333C13.228 10.5574 12.2613 9.6 11.0739 9.6ZM16.459 24.5333H5.68881C5.09361 24.5333 4.61181 24.0562 4.61181 23.4667V22.4C4.61181 20.5324 5.43541 18.7605 6.87211 17.5374C7.20561 17.2519 7.68421 17.201 8.07441 17.4019C9.91301 18.3581 12.2353 18.3581 14.0737 17.4019C14.4639 17.201 14.9414 17.2519 15.276 17.5374C16.7124 18.7605 17.5361 20.5324 17.5361 22.4V23.4667C17.5361 24.0562 17.0543 24.5333 16.459 24.5333ZM6.76581 22.4H15.382C15.382 21.3781 15.0108 20.3978 14.3471 19.6272C12.2793 20.4667 9.86851 20.4667 7.80061 19.6272C7.13691 20.3979 6.76581 21.3781 6.76581 22.4ZM25.0752 23.4667C24.9363 23.4667 24.7966 23.4407 24.6629 23.3855C24.26 23.221 23.9982 22.8312 23.9982 22.4V19.2H20.7671C20.1719 19.2 19.6901 18.7229 19.6901 18.1333V13.8667C19.6901 13.2771 20.1719 12.8 20.7671 12.8H23.9982V9.6C23.9982 9.1688 24.26 8.779 24.6629 8.6145C25.0646 8.4488 25.5286 8.5405 25.8368 8.8457L32.2989 15.2457C32.7197 15.6624 32.7197 16.3374 32.2989 16.754L25.8368 23.154C25.6305 23.3583 25.355 23.4667 25.0752 23.4667ZM21.8441 17.0667H25.0752C25.6705 17.0667 26.1522 17.5438 26.1522 18.1333V19.825L30.0144 16L26.1522 12.175V13.8667C26.1522 14.4562 25.6705 14.9333 25.0752 14.9333H21.8441V17.0667ZM17.5361 30.9333C17.5361 30.3438 17.0543 29.8667 16.459 29.8667H4.61181C3.42441 29.8667 2.45771 28.9093 2.45771 27.7333V4.2667C2.45771 3.0907 3.42441 2.1333 4.61181 2.1333H16.459C17.0543 2.1333 17.5361 1.6562 17.5361 1.0667C17.5361 0.4771 17.0543 0 16.459 0H4.61181C2.23591 0 0.303711 1.9136 0.303711 4.2667V27.7333C0.303711 30.0864 2.23591 32 4.61181 32H16.459C17.0543 32 17.5361 31.5229 17.5361 30.9333Z" fill="black"/>
</svg>
