<svg width="49" height="57" viewBox="0 0 49 57" fill="none" xmlns="http://www.w3.org/2000/svg">
<path d="M15.7656 34.0289C15.7656 38.7164 19.7753 39.8523 24.7215 39.8523C33.1372 39.8523 35.9164 34.9993 30.319 25.2937C22.4827 34.0289 21.3631 20.4409 22.4827 16.5586C19.124 22.382 15.7656 27.8517 15.7656 34.0289Z" stroke="black" stroke-width="3" stroke-linecap="round" stroke-linejoin="round"/>
<path d="M24.5 39.8523C33.689 39.8523 39.0585 33.7447 39.0585 23.2919C39.0585 12.8393 24.5 2 24.5 2C24.5 2 9.94141 12.8393 9.94141 23.2919C9.94141 33.7447 15.3109 39.8523 24.5 39.8523Z" stroke="black" stroke-width="3" stroke-linecap="round" stroke-linejoin="round"/>
<path d="M2 54.6158L47 42.5581" stroke="black" stroke-width="3" stroke-linecap="round"/>
<path d="M2 42.5581L24.5 48.5871" stroke="black" stroke-width="3" stroke-linecap="round"/>
<path d="M46.999 54.6161L35.749 51.6016" stroke="black" stroke-width="3" stroke-linecap="round"/>
</svg>
