<svg width="50" height="50" viewBox="0 0 50 50" fill="none" xmlns="http://www.w3.org/2000/svg">
<path d="M36.6667 15.8333H26.6667V9.16667H45C45.6628 9.16592 46.2983 8.90229 46.7669 8.43361C47.2356 7.96493 47.4993 7.32948 47.5 6.66667V0H44.1667V5.83333H25.8333C25.1705 5.83408 24.5351 6.09771 24.0664 6.56639C23.5977 7.03507 23.3341 7.67052 23.3333 8.33333V15.8333H13.3333C9.79834 15.8373 6.40928 17.2434 3.90966 19.743C1.41004 22.2426 0.00399769 25.6317 0 29.1667V39.6826C0.00283975 42.1971 1.00296 44.6077 2.78095 46.3857C4.55895 48.1637 6.9696 49.1638 9.48406 49.1667H9.67156C11.0623 49.1685 12.4364 48.8637 13.6959 48.2738C14.9554 47.684 16.0693 46.8237 16.9583 45.7542L22.4479 39.1667H27.5133L32.9994 46.2984C34.2071 47.8681 35.8759 49.0203 37.7716 49.5935C39.6674 50.1666 41.695 50.1318 43.57 49.494C45.445 48.8563 47.0734 47.6475 48.2265 46.0374C49.3797 44.4272 49.9999 42.4964 50 40.5159V29.1667C49.996 25.6317 48.59 22.2426 46.0903 19.743C43.5907 17.2434 40.2017 15.8373 36.6667 15.8333ZM46.6667 40.5159C46.6666 41.8005 46.2644 43.0527 45.5165 44.097C44.7686 45.1414 43.7125 45.9253 42.4964 46.3389C41.2803 46.7525 39.9653 46.775 38.7357 46.4032C37.5062 46.0315 36.4239 45.2841 35.6407 44.2659L29.154 35.8333H20.886L14.3971 43.6202C13.8206 44.3138 13.0982 44.8717 12.2815 45.2542C11.4648 45.6367 10.5737 45.8345 9.67188 45.8333H9.48438C7.8536 45.8316 6.29012 45.183 5.13696 44.0299C3.9838 42.8768 3.33515 41.3134 3.33333 39.6826V29.1667C3.33631 26.5154 4.39084 23.9736 6.26555 22.0989C8.14027 20.2242 10.6821 19.1696 13.3333 19.1667H36.6667C39.3179 19.1696 41.8597 20.2242 43.7344 22.0989C45.6092 23.9736 46.6637 26.5154 46.6667 29.1667V40.5159Z" fill="black"/>
<path d="M39.1663 24.1665H35.833V27.4998H39.1663V24.1665Z" fill="black"/>
<path d="M39.1663 32.5H35.833V35.8333H39.1663V32.5Z" fill="black"/>
<path d="M35.0003 28.3335H31.667V31.6668H35.0003V28.3335Z" fill="black"/>
<path d="M43.3333 28.3335H40V31.6668H43.3333V28.3335Z" fill="black"/>
<path d="M14.167 24.1665H10.8337V28.3332H6.66699V31.6665H10.8337V35.8332H14.167V31.6665H18.3337V28.3332H14.167V24.1665Z" fill="black"/>
</svg>
