<svg width="50" height="50" viewBox="0 0 50 50" fill="none" xmlns="http://www.w3.org/2000/svg">
<path d="M3.125 43.75H46.875V46.875H3.125V43.75Z" fill="black"/>
<path d="M38.2813 17.1875H12.5C11.6715 17.1883 10.8771 17.5178 10.2912 18.1037C9.70533 18.6896 9.37583 19.484 9.375 20.3125V32.8125C9.37744 34.8838 10.2013 36.8695 11.6659 38.3341C13.1305 39.7987 15.1162 40.6226 17.1875 40.625H29.6875C31.7588 40.6226 33.7445 39.7987 35.2091 38.3341C36.6737 36.8695 37.4976 34.8838 37.5 32.8125V31.25H38.2813C40.1461 31.25 41.9345 30.5092 43.2531 29.1906C44.5717 27.872 45.3125 26.0836 45.3125 24.2188C45.3125 22.3539 44.5717 20.5655 43.2531 19.2469C41.9345 17.9283 40.1461 17.1875 38.2813 17.1875ZM34.375 32.8125C34.3736 34.0553 33.8793 35.2468 33.0006 36.1256C32.1218 37.0043 30.9303 37.4986 29.6875 37.5H17.1875C15.9447 37.4986 14.7532 37.0043 13.8744 36.1256C12.9957 35.2468 12.5014 34.0553 12.5 32.8125V20.3125H34.375V32.8125ZM38.2813 28.125H37.5V20.3125H38.2813C39.3173 20.3125 40.3108 20.7241 41.0434 21.4566C41.776 22.1892 42.1875 23.1827 42.1875 24.2188C42.1875 25.2548 41.776 26.2483 41.0434 26.9809C40.3108 27.7135 39.3173 28.125 38.2813 28.125Z" fill="black"/>
<path d="M29.6875 14.0625H26.5625V13.8344C26.5646 13.2537 26.4038 12.684 26.0985 12.19C25.7932 11.696 25.3555 11.2975 24.8352 11.0397L20.6421 8.94312C19.6016 8.42707 18.7264 7.62986 18.1159 6.64185C17.5053 5.65385 17.1837 4.51456 17.1875 3.35312V1.5625H20.3125V3.35312C20.3106 3.93381 20.4715 4.5034 20.7768 4.99735C21.0821 5.4913 21.5196 5.88985 22.0399 6.14781L26.233 8.24438C27.2735 8.76049 28.1485 9.55771 28.7591 10.5457C29.3697 11.5337 29.6913 12.673 29.6875 13.8344V14.0625Z" fill="black"/>
</svg>
