<svg width="45" height="45" viewBox="0 0 45 45" fill="none" xmlns="http://www.w3.org/2000/svg">
<path d="M37.8 12.6562H28.125V9.23904C28.0416 7.82859 27.4029 6.50858 26.3488 5.56776C25.2947 4.62694 23.9108 4.1419 22.5 4.21873C21.0892 4.1419 19.7053 4.62694 18.6512 5.56776C17.5971 6.50858 16.9584 7.82859 16.875 9.23904V12.6562H7.2C6.03636 12.6562 4.92039 13.1185 4.09757 13.9413C3.27475 14.7641 2.8125 15.8801 2.8125 17.0437V36.3937C2.8125 37.5574 3.27475 38.6733 4.09757 39.4962C4.92039 40.319 6.03636 40.7812 7.2 40.7812H37.8C38.9636 40.7812 40.0796 40.319 40.9024 39.4962C41.7252 38.6733 42.1875 37.5574 42.1875 36.3937V17.0437C42.1875 15.8801 41.7252 14.7641 40.9024 13.9413C40.0796 13.1185 38.9636 12.6562 37.8 12.6562ZM19.6875 9.23904C19.7788 8.57829 20.123 7.97879 20.6477 7.56692C21.1724 7.15505 21.8365 6.96299 22.5 7.03123C23.1635 6.96299 23.8276 7.15505 24.3523 7.56692C24.877 7.97879 25.2212 8.57829 25.3125 9.23904V12.6562H19.6875V9.23904ZM39.375 36.3937C39.375 36.6006 39.3343 36.8054 39.2551 36.9965C39.176 37.1875 39.0599 37.3612 38.9137 37.5074C38.7674 37.6537 38.5938 37.7697 38.4027 37.8488C38.2116 37.928 38.0068 37.9687 37.8 37.9687H7.2C6.78228 37.9687 6.38168 37.8028 6.08631 37.5074C5.79094 37.2121 5.625 36.8114 5.625 36.3937V17.0437C5.625 16.626 5.79094 16.2254 6.08631 15.93C6.38168 15.6347 6.78228 15.4687 7.2 15.4687H37.8C38.2177 15.4687 38.6183 15.6347 38.9137 15.93C39.2091 16.2254 39.375 16.626 39.375 17.0437V36.3937Z" fill="#E6F5FF"/>
<path d="M35.1562 19.6875H25.3125C24.9395 19.6875 24.5819 19.8357 24.3181 20.0994C24.0544 20.3631 23.9062 20.7208 23.9062 21.0938C23.9062 21.4667 24.0544 21.8244 24.3181 22.0881C24.5819 22.3518 24.9395 22.5 25.3125 22.5H35.1562C35.5292 22.5 35.8869 22.3518 36.1506 22.0881C36.4143 21.8244 36.5625 21.4667 36.5625 21.0938C36.5625 20.7208 36.4143 20.3631 36.1506 20.0994C35.8869 19.8357 35.5292 19.6875 35.1562 19.6875ZM35.1562 25.3125H25.3125C24.9395 25.3125 24.5819 25.4607 24.3181 25.7244C24.0544 25.9881 23.9062 26.3458 23.9062 26.7188C23.9062 27.0917 24.0544 27.4494 24.3181 27.7131C24.5819 27.9768 24.9395 28.125 25.3125 28.125H35.1562C35.5292 28.125 35.8869 27.9768 36.1506 27.7131C36.4143 27.4494 36.5625 27.0917 36.5625 26.7188C36.5625 26.3458 36.4143 25.9881 36.1506 25.7244C35.8869 25.4607 35.5292 25.3125 35.1562 25.3125ZM35.1562 30.9375H25.3125C24.9395 30.9375 24.5819 31.0857 24.3181 31.3494C24.0544 31.6131 23.9062 31.9708 23.9062 32.3438C23.9062 32.7167 24.0544 33.0744 24.3181 33.3381C24.5819 33.6018 24.9395 33.75 25.3125 33.75H35.1562C35.5292 33.75 35.8869 33.6018 36.1506 33.3381C36.4143 33.0744 36.5625 32.7167 36.5625 32.3438C36.5625 31.9708 36.4143 31.6131 36.1506 31.3494C35.8869 31.0857 35.5292 30.9375 35.1562 30.9375ZM18.4078 27.8859C19.2281 26.9916 19.6845 25.8229 19.6875 24.6094C19.6875 23.304 19.1689 22.0521 18.2459 21.1291C17.3229 20.2061 16.071 19.6875 14.7656 19.6875C13.4603 19.6875 12.2084 20.2061 11.2853 21.1291C10.3623 22.0521 9.84375 23.304 9.84375 24.6094C9.84677 25.8229 10.3032 26.9916 11.1234 27.8859C10.2956 28.4686 9.61956 29.2414 9.15219 30.1394C8.68483 31.0375 8.43974 32.0345 8.4375 33.0469C8.4375 33.4198 8.58566 33.7775 8.84938 34.0412C9.1131 34.305 9.47079 34.4531 9.84375 34.4531C10.2167 34.4531 10.5744 34.305 10.8381 34.0412C11.1018 33.7775 11.25 33.4198 11.25 33.0469C11.25 32.1145 11.6204 31.2203 12.2797 30.561C12.939 29.9016 13.8332 29.5312 14.7656 29.5312C15.698 29.5312 16.5922 29.9016 17.2515 30.561C17.9109 31.2203 18.2812 32.1145 18.2812 33.0469C18.2812 33.4198 18.4294 33.7775 18.6931 34.0412C18.9569 34.305 19.3145 34.4531 19.6875 34.4531C20.0605 34.4531 20.4181 34.305 20.6819 34.0412C20.9456 33.7775 21.0938 33.4198 21.0938 33.0469C21.0915 32.0345 20.8464 31.0375 20.3791 30.1394C19.9117 29.2414 19.2357 28.4686 18.4078 27.8859ZM12.6562 24.6094C12.6562 24.1922 12.78 23.7844 13.0117 23.4375C13.2435 23.0906 13.573 22.8202 13.9584 22.6606C14.3438 22.5009 14.768 22.4591 15.1771 22.5405C15.5863 22.6219 15.9622 22.8228 16.2572 23.1178C16.5522 23.4128 16.7531 23.7887 16.8345 24.1979C16.9159 24.607 16.8741 25.0312 16.7144 25.4166C16.5548 25.802 16.2844 26.1315 15.9375 26.3633C15.5906 26.595 15.1828 26.7188 14.7656 26.7188C14.2062 26.7188 13.6697 26.4965 13.2741 26.1009C12.8785 25.7053 12.6562 25.1688 12.6562 24.6094Z" fill="#E6F5FF"/>
</svg>
