<svg width="39" height="31" viewBox="0 0 39 31" fill="none" xmlns="http://www.w3.org/2000/svg">
<path d="M32.625 0.5H6.375C4.88316 0.5 3.45242 1.09263 2.39752 2.14752C1.34263 3.20242 0.75 4.63316 0.75 6.125V24.875C0.75 26.3668 1.34263 27.7976 2.39752 28.8525C3.45242 29.9074 4.88316 30.5 6.375 30.5H32.625C34.1168 30.5 35.5476 29.9074 36.6025 28.8525C37.6574 27.7976 38.25 26.3668 38.25 24.875V6.125C38.25 4.63316 37.6574 3.20242 36.6025 2.14752C35.5476 1.09263 34.1168 0.5 32.625 0.5ZM31.3687 4.25L19.5 13.1562L7.63125 4.25H31.3687ZM32.625 26.75H6.375C5.87772 26.75 5.40081 26.5525 5.04918 26.2008C4.69754 25.8492 4.5 25.3723 4.5 24.875V6.59375L18.375 17C18.6996 17.2434 19.0943 17.375 19.5 17.375C19.9057 17.375 20.3004 17.2434 20.625 17L34.5 6.59375V24.875C34.5 25.3723 34.3025 25.8492 33.9508 26.2008C33.5992 26.5525 33.1223 26.75 32.625 26.75Z" fill="#E6F5FF"/>
</svg>
