<svg width="41" height="29" viewBox="0 0 41 29" fill="none" xmlns="http://www.w3.org/2000/svg">
<path d="M35.9688 0.4375H5.03125C3.91237 0.4375 2.83931 0.881974 2.04814 1.67314C1.25697 2.46431 0.8125 3.53737 0.8125 4.65625V24.3438C0.8125 25.4626 1.25697 26.5357 2.04814 27.3269C2.83931 28.118 3.91237 28.5625 5.03125 28.5625H35.9688C37.0876 28.5625 38.1607 28.118 38.9519 27.3269C39.743 26.5357 40.1875 25.4626 40.1875 24.3438V4.65625C40.1875 3.53737 39.743 2.46431 38.9519 1.67314C38.1607 0.881974 37.0876 0.4375 35.9688 0.4375ZM5.03125 3.25H35.9688C36.3417 3.25 36.6994 3.39816 36.9631 3.66188C37.2268 3.9256 37.375 4.28329 37.375 4.65625V7.46875H3.625V4.65625C3.625 4.28329 3.77316 3.9256 4.03688 3.66188C4.3006 3.39816 4.65829 3.25 5.03125 3.25ZM35.9688 25.75H5.03125C4.65829 25.75 4.3006 25.6018 4.03688 25.3381C3.77316 25.0744 3.625 24.7167 3.625 24.3438V13.0938H37.375V24.3438C37.375 24.7167 37.2268 25.0744 36.9631 25.3381C36.6994 25.6018 36.3417 25.75 35.9688 25.75Z" fill="#E6F5FF"/>
</svg>
