<svg width="35" height="35" viewBox="0 0 35 35" fill="none" xmlns="http://www.w3.org/2000/svg">
<path d="M33.402 24.0377L30.3082 20.9439C29.386 20.0291 28.1412 19.5133 26.8422 19.5078C25.5432 19.5023 24.2941 20.0074 23.3641 20.9144C22.8679 21.4134 22.2133 21.7239 21.5129 21.7925C20.8124 21.861 20.11 21.6833 19.5265 21.2898C17.2233 19.7528 15.2447 17.778 13.7032 15.4778C13.3167 14.8878 13.1454 14.1826 13.2182 13.481C13.2909 12.7794 13.6033 12.1243 14.1026 11.6261C15.0013 10.6953 15.5 9.4496 15.4918 8.15573C15.4837 6.86186 14.9694 5.62258 14.059 4.70313L10.9652 1.60938C10.039 0.686329 8.78467 0.16803 7.47703 0.16803C6.16939 0.16803 4.91506 0.686329 3.98883 1.60938L3.09867 2.50094C-1.54195 7.14157 -1.19461 16.8981 8.4607 26.5478C14.2826 32.3711 20.1424 34.8095 24.8941 34.8095C26.2929 34.8561 27.6869 34.6238 28.995 34.1262C30.3031 33.6287 31.499 32.8757 32.5132 31.9113L33.4048 31.0197C34.3295 30.093 34.8486 28.8372 34.8481 27.5281C34.8476 26.219 34.3274 24.9636 33.402 24.0377ZM31.4135 29.0313L30.522 29.9228C26.8657 33.5791 18.7952 32.9111 10.4463 24.5608C2.09742 16.2105 1.42805 8.13438 5.0843 4.47813L5.96883 3.58797C6.36709 3.19115 6.90639 2.96834 7.4686 2.96834C8.0308 2.96834 8.5701 3.19115 8.96836 3.58797L12.0621 6.68172C12.4531 7.07471 12.6751 7.60496 12.6806 8.15931C12.6861 8.71366 12.4748 9.24822 12.0916 9.64891C11.1414 10.6052 10.5487 11.859 10.4127 13.2003C10.2768 14.5415 10.6059 15.8887 11.3449 17.0163C13.0965 19.6374 15.3489 21.8864 17.9726 23.6341C19.0967 24.3732 20.4404 24.7043 21.7792 24.5719C23.1181 24.4396 24.371 23.8519 25.3287 22.907C25.7286 22.5194 26.2647 22.3041 26.8216 22.3075C27.3786 22.3109 27.912 22.5328 28.3071 22.9253L31.4009 26.0191C31.6003 26.2156 31.7588 26.4496 31.8674 26.7076C31.9761 26.9656 32.0326 27.2426 32.0337 27.5225C32.0349 27.8025 31.9807 28.0799 31.8743 28.3388C31.7678 28.5978 31.6113 28.8331 31.4135 29.0313Z" fill="#E6F5FF"/>
</svg>
