<svg width="39" height="43" viewBox="0 0 39 43" fill="none" xmlns="http://www.w3.org/2000/svg">
<path d="M19.5 34.625C19.8708 34.625 20.2334 34.515 20.5417 34.309C20.85 34.103 21.0904 33.8101 21.2323 33.4675C21.3742 33.1249 21.4113 32.7479 21.339 32.3842C21.2666 32.0205 21.088 31.6864 20.8258 31.4242C20.5636 31.1619 20.2295 30.9834 19.8658 30.911C19.5021 30.8387 19.1251 30.8758 18.7825 31.0177C18.4399 31.1596 18.147 31.4 17.941 31.7083C17.735 32.0166 17.625 32.3792 17.625 32.75C17.625 33.2473 17.8225 33.7242 18.1742 34.0758C18.5258 34.4275 19.0027 34.625 19.5 34.625ZM28.875 34.625C29.2458 34.625 29.6084 34.515 29.9167 34.309C30.225 34.103 30.4654 33.8101 30.6073 33.4675C30.7492 33.1249 30.7863 32.7479 30.714 32.3842C30.6416 32.0205 30.4631 31.6864 30.2008 31.4242C29.9386 31.1619 29.6045 30.9834 29.2408 30.911C28.8771 30.8387 28.5001 30.8758 28.1575 31.0177C27.8149 31.1596 27.522 31.4 27.316 31.7083C27.11 32.0166 27 32.3792 27 32.75C27 33.2473 27.1975 33.7242 27.5492 34.0758C27.9008 34.4275 28.3777 34.625 28.875 34.625ZM28.875 27.125C29.2458 27.125 29.6084 27.015 29.9167 26.809C30.225 26.603 30.4654 26.3101 30.6073 25.9675C30.7492 25.6249 30.7863 25.2479 30.714 24.8842C30.6416 24.5205 30.4631 24.1864 30.2008 23.9242C29.9386 23.662 29.6045 23.4834 29.2408 23.411C28.8771 23.3387 28.5001 23.3758 28.1575 23.5177C27.8149 23.6596 27.522 23.9 27.316 24.2083C27.11 24.5166 27 24.8792 27 25.25C27 25.7473 27.1975 26.2242 27.5492 26.5758C27.9008 26.9275 28.3777 27.125 28.875 27.125ZM19.5 27.125C19.8708 27.125 20.2334 27.015 20.5417 26.809C20.85 26.603 21.0904 26.3101 21.2323 25.9675C21.3742 25.6249 21.4113 25.2479 21.339 24.8842C21.2666 24.5205 21.088 24.1864 20.8258 23.9242C20.5636 23.662 20.2295 23.4834 19.8658 23.411C19.5021 23.3387 19.1251 23.3758 18.7825 23.5177C18.4399 23.6596 18.147 23.9 17.941 24.2083C17.735 24.5166 17.625 24.8792 17.625 25.25C17.625 25.7473 17.8225 26.2242 18.1742 26.5758C18.5258 26.9275 19.0027 27.125 19.5 27.125ZM32.625 4.625H30.75V2.75C30.75 2.25272 30.5525 1.77581 30.2008 1.42417C29.8492 1.07254 29.3723 0.875 28.875 0.875C28.3777 0.875 27.9008 1.07254 27.5492 1.42417C27.1975 1.77581 27 2.25272 27 2.75V4.625H12V2.75C12 2.25272 11.8025 1.77581 11.4508 1.42417C11.0992 1.07254 10.6223 0.875 10.125 0.875C9.62772 0.875 9.15081 1.07254 8.79918 1.42417C8.44754 1.77581 8.25 2.25272 8.25 2.75V4.625H6.375C4.88316 4.625 3.45242 5.21763 2.39752 6.27252C1.34263 7.32742 0.75 8.75816 0.75 10.25V36.5C0.75 37.9918 1.34263 39.4226 2.39752 40.4775C3.45242 41.5324 4.88316 42.125 6.375 42.125H32.625C34.1168 42.125 35.5476 41.5324 36.6025 40.4775C37.6574 39.4226 38.25 37.9918 38.25 36.5V10.25C38.25 8.75816 37.6574 7.32742 36.6025 6.27252C35.5476 5.21763 34.1168 4.625 32.625 4.625ZM34.5 36.5C34.5 36.9973 34.3025 37.4742 33.9508 37.8258C33.5992 38.1775 33.1223 38.375 32.625 38.375H6.375C5.87772 38.375 5.40081 38.1775 5.04918 37.8258C4.69754 37.4742 4.5 36.9973 4.5 36.5V19.625H34.5V36.5ZM34.5 15.875H4.5V10.25C4.5 9.75272 4.69754 9.27581 5.04918 8.92418C5.40081 8.57254 5.87772 8.375 6.375 8.375H8.25V10.25C8.25 10.7473 8.44754 11.2242 8.79918 11.5758C9.15081 11.9275 9.62772 12.125 10.125 12.125C10.6223 12.125 11.0992 11.9275 11.4508 11.5758C11.8025 11.2242 12 10.7473 12 10.25V8.375H27V10.25C27 10.7473 27.1975 11.2242 27.5492 11.5758C27.9008 11.9275 28.3777 12.125 28.875 12.125C29.3723 12.125 29.8492 11.9275 30.2008 11.5758C30.5525 11.2242 30.75 10.7473 30.75 10.25V8.375H32.625C33.1223 8.375 33.5992 8.57254 33.9508 8.92418C34.3025 9.27581 34.5 9.75272 34.5 10.25V15.875ZM10.125 27.125C10.4958 27.125 10.8584 27.015 11.1667 26.809C11.475 26.603 11.7154 26.3101 11.8573 25.9675C11.9992 25.6249 12.0363 25.2479 11.964 24.8842C11.8916 24.5205 11.713 24.1864 11.4508 23.9242C11.1886 23.662 10.8545 23.4834 10.4908 23.411C10.1271 23.3387 9.75008 23.3758 9.40747 23.5177C9.06486 23.6596 8.77202 23.9 8.56599 24.2083C8.35997 24.5166 8.25 24.8792 8.25 25.25C8.25 25.7473 8.44754 26.2242 8.79918 26.5758C9.15081 26.9275 9.62772 27.125 10.125 27.125ZM10.125 34.625C10.4958 34.625 10.8584 34.515 11.1667 34.309C11.475 34.103 11.7154 33.8101 11.8573 33.4675C11.9992 33.1249 12.0363 32.7479 11.964 32.3842C11.8916 32.0205 11.713 31.6864 11.4508 31.4242C11.1886 31.1619 10.8545 30.9834 10.4908 30.911C10.1271 30.8387 9.75008 30.8758 9.40747 31.0177C9.06486 31.1596 8.77202 31.4 8.56599 31.7083C8.35997 32.0166 8.25 32.3792 8.25 32.75C8.25 33.2473 8.44754 33.7242 8.79918 34.0758C9.15081 34.4275 9.62772 34.625 10.125 34.625Z" fill="#E6F5FF"/>
</svg>
