<svg width="35" height="35" viewBox="0 0 35 35" fill="none" xmlns="http://www.w3.org/2000/svg">
<path d="M9.8774 8.9351C9.8774 7.81687 10.209 6.72376 10.8302 5.79399C11.4515 4.86422 12.3345 4.13955 13.3676 3.71163C14.4007 3.2837 15.5375 3.17173 16.6343 3.38989C17.731 3.60804 18.7384 4.14652 19.5291 4.93723C20.3198 5.72793 20.8583 6.73535 21.0765 7.83209C21.2946 8.92883 21.1826 10.0656 20.7547 11.0987C20.3268 12.1318 19.6021 13.0148 18.6724 13.6361C17.7426 14.2574 16.6495 14.5889 15.5312 14.5889C14.0318 14.5889 12.5937 13.9933 11.5334 12.933C10.4731 11.8727 9.8774 10.4346 9.8774 8.9351ZM24.9543 27.7812H6.10817C5.35843 27.7812 4.63939 27.4834 4.10924 26.9533C3.57909 26.4231 3.28125 25.7041 3.28125 24.9543C3.28125 22.7051 4.17476 20.548 5.76521 18.9575C7.35566 17.3671 9.51278 16.4736 11.762 16.4736H19.3005C21.5497 16.4736 23.7068 17.3671 25.2973 18.9575C26.8877 20.548 27.7812 22.7051 27.7812 24.9543C27.7812 25.7041 27.4834 26.4231 26.9533 26.9533C26.4231 27.4834 25.7041 27.7812 24.9543 27.7812Z" fill="white"/>
</svg>
