<svg width="35" height="35" viewBox="0 0 35 35" fill="none" xmlns="http://www.w3.org/2000/svg">
<path d="M13.3345 30.3072V25.8347C13.3345 24.7014 14.2561 23.7806 15.3976 23.7735H19.5891C20.7358 23.7735 21.6653 24.6963 21.6653 25.8347V30.2943C21.6653 31.2773 22.4641 32.0762 23.4542 32.0833H26.3138C27.6494 32.0867 28.9314 31.5624 29.877 30.626C30.8226 29.6896 31.3541 28.4182 31.3541 27.0922V14.3877C31.3541 13.3166 30.8759 12.3006 30.0483 11.6134L20.3334 3.89996C18.6353 2.55079 16.2098 2.59438 14.5619 4.00367L5.05598 11.6134C4.18933 12.2804 3.67135 13.2994 3.64575 14.3877V27.0792C3.64575 29.8429 5.90235 32.0833 8.68601 32.0833H11.4803C11.957 32.0867 12.4154 31.9011 12.7537 31.5677C13.092 31.2342 13.2823 30.7805 13.2823 30.3072H13.3345Z" fill="#E21F1F"/>
</svg>
