<svg width="35" height="35" viewBox="0 0 35 35" fill="none" xmlns="http://www.w3.org/2000/svg">
<path fill-rule="evenodd" clip-rule="evenodd" d="M9.77202 3.826C11.8216 1.77644 14.6014 0.625 17.5 0.625C20.3985 0.625 23.1783 1.77644 25.2277 3.826C27.2775 5.87558 28.4287 8.6554 28.4287 11.554C28.4287 12.9122 28.6505 14.2102 29.0045 15.5877C29.095 15.8675 29.1935 16.1305 29.2985 16.3774C29.4403 16.7106 29.7267 16.9984 30.2773 17.3506C30.4923 17.4882 30.7122 17.6146 30.9622 17.7583L31.196 17.893C31.5288 18.0857 31.9032 18.3093 32.261 18.5741C33.554 19.5315 34.0295 21.0067 33.9652 22.3368C33.9027 23.631 33.3225 24.9801 32.2397 25.7943C32.225 25.806 32.2083 25.8188 32.1898 25.8325C32.1458 25.8655 32.0908 25.904 32.0233 25.9472C31.8885 26.034 31.704 26.1398 31.458 26.2575C30.9668 26.4928 30.226 26.7775 29.1365 27.053C26.9618 27.6025 23.3598 28.125 17.5 28.125C11.6402 28.125 8.03802 27.6025 5.8634 27.053C4.77392 26.7775 4.03322 26.4928 3.54185 26.2575C3.29582 26.1398 3.11142 26.034 2.97662 25.9472C2.9092 25.904 2.8542 25.8655 2.8101 25.8325C2.79157 25.8188 2.77495 25.806 2.76017 25.7943C1.6774 24.9801 1.09723 23.631 1.03473 22.3368C0.970502 21.0067 1.44581 19.5315 2.739 18.5741L3.48275 19.5787L2.739 18.5741C3.09665 18.3093 3.47107 18.0857 3.8038 17.893L4.03762 17.7583L4.03767 17.7583C4.2877 17.6146 4.50775 17.4882 4.72272 17.3507C5.2731 16.9985 5.55955 16.7108 5.70122 16.3775C6.20697 15.1882 6.571 13.6171 6.571 11.554C6.571 8.6554 7.72245 5.87558 9.77202 3.826ZM14.5957 29.9615C14.1095 29.796 13.5717 29.9447 13.2396 30.3365C12.9076 30.7282 12.8489 31.2832 13.0915 31.7357C13.9327 33.304 15.5903 34.375 17.5 34.375C19.4097 34.375 21.0674 33.304 21.9085 31.7357C22.1512 31.2832 22.0925 30.7282 21.7604 30.3365C21.4283 29.9447 20.8905 29.796 20.4044 29.9615C19.7712 30.1768 18.8358 30.3415 17.5 30.3415C16.1643 30.3415 15.2289 30.1768 14.5957 29.9615Z" fill="white"/>
</svg>
