<svg width="35" height="35" viewBox="0 0 35 35" fill="none" xmlns="http://www.w3.org/2000/svg">
<g clip-path="url(#clip0_19_241)">
<path fill-rule="evenodd" clip-rule="evenodd" d="M8.12897 0.625001C6.78545 0.625001 5.48482 0.763753 4.28455 0.901796C2.5087 1.10603 1.08924 2.52208 0.89167 4.3043C0.759007 5.501 0.628967 6.79178 0.628967 8.125C0.628967 9.45823 0.759007 10.749 0.89167 11.9457C1.08924 13.7279 2.50872 15.144 4.28455 15.3482C5.48482 15.4862 6.78545 15.625 8.12897 15.625C9.47247 15.625 10.7731 15.4862 11.9734 15.3482C13.7492 15.144 15.1687 13.7279 15.3663 11.9457C15.4989 10.749 15.629 9.45823 15.629 8.125C15.629 6.79178 15.4989 5.501 15.3663 4.3043C15.1687 2.52208 13.7492 1.10603 11.9734 0.901796C10.7731 0.763753 9.47247 0.625001 8.12897 0.625001ZM27.77 1.07285C27.5352 0.792161 27.189 0.628503 26.8232 0.625055C26.4572 0.62161 26.108 0.778721 25.868 1.05493C22.8424 4.53548 20.6345 7.08168 18.9148 10.5726C17.6869 13.0651 19.6946 15.625 22.2071 15.625H31.332C33.8827 15.625 35.882 13.0006 34.6022 10.5045C32.918 7.22008 30.862 4.76505 28.1597 1.53835V1.53833V1.5383L27.77 1.07285ZM18.9593 20.6213C18.9593 19.7584 19.6589 19.0588 20.5218 19.0588H33.0217C33.8847 19.0588 34.5842 19.7584 34.5842 20.6213C34.5842 21.4843 33.8847 22.1838 33.0217 22.1838H20.5218C19.6589 22.1838 18.9593 21.4843 18.9593 20.6213ZM18.9593 33.1213C18.9593 32.2585 19.6589 31.5588 20.5218 31.5588H33.0217C33.8847 31.5588 34.5842 32.2585 34.5842 33.1213C34.5842 33.9842 33.8847 34.6838 33.0217 34.6838H20.5218C19.6589 34.6838 18.9593 33.9842 18.9593 33.1213ZM20.5218 25.3088C19.6589 25.3088 18.9593 26.0085 18.9593 26.8713C18.9593 27.7342 19.6589 28.4338 20.5218 28.4338H33.0217C33.8847 28.4338 34.5842 27.7342 34.5842 26.8713C34.5842 26.0085 33.8847 25.3088 33.0217 25.3088H20.5218ZM8.1289 18.7427C3.63942 18.7427 0 22.3821 0 26.8715C0 31.361 3.63942 35.0005 8.1289 35.0005C12.6184 35.0005 16.2578 31.361 16.2578 26.8715C16.2578 22.3821 12.6184 18.7427 8.1289 18.7427Z" fill="white"/>
</g>
<defs>
<clipPath id="clip0_19_241">
<rect width="35" height="35" fill="white"/>
</clipPath>
</defs>
</svg>
