<svg width="35" height="36" viewBox="0 0 35 36" fill="none" xmlns="http://www.w3.org/2000/svg">
<path d="M32.2021 10.4204L18.4098 18.4092C17.8545 18.7316 17.1559 18.7316 16.5827 18.4092L2.79032 10.4204C1.80516 9.8472 1.55439 8.50379 2.3067 7.66191C2.82615 7.07081 3.41725 6.58719 4.04417 6.24686L13.7525 0.873216C15.8304 -0.291072 19.1979 -0.291072 21.2757 0.873216L30.9841 6.24686C31.611 6.58719 32.2021 7.08873 32.7216 7.66191C33.4381 8.50379 33.1873 9.8472 32.2021 10.4204Z" fill="white"/>
<path d="M16.4792 21.7364V33.9524C16.4792 35.3138 15.1 36.2094 13.8819 35.6183C10.192 33.8091 3.97649 30.4237 3.97649 30.4237C1.79121 29.1878 0 26.0711 0 23.5097V14.267C0 12.8519 1.48671 11.9563 2.70473 12.6549L15.5836 20.1243C16.121 20.4646 16.4792 21.0736 16.4792 21.7364Z" fill="white"/>
<path d="M18.5208 21.7364V33.9524C18.5208 35.3138 19.9 36.2094 21.118 35.6183C24.8079 33.8091 31.0234 30.4237 31.0234 30.4237C33.2087 29.1878 34.9999 26.0711 34.9999 23.5097V14.267C34.9999 12.8519 33.5132 11.9563 32.2952 12.6549L19.4164 20.1243C18.879 20.4646 18.5208 21.0736 18.5208 21.7364Z" fill="white"/>
</svg>
