<svg width="30" height="20" viewBox="0 0 30 20" fill="none" xmlns="http://www.w3.org/2000/svg">
<path d="M26.0735 18.5235H3.9259C2.25778 18.5235 0.905762 17.1715 0.905762 15.5034V3.92617C0.905762 2.25805 2.25778 0.906036 3.9259 0.906036H26.0735C27.7417 0.906036 29.0937 2.25805 29.0937 3.92617V15.5034C29.0937 17.1715 27.7417 18.5235 26.0735 18.5235Z" fill="#CDF6F9"/>
<path d="M26.0738 0H3.92617C1.76175 0 0 1.76174 0 3.92617V15.5034C0 17.6678 1.76175 19.4295 3.92617 19.4295H26.0738C28.2383 19.4295 30 17.6678 30 15.5034V3.92617C30 1.76174 28.2383 0 26.0738 0ZM28.1879 15.5034C28.1879 16.6691 27.2406 17.6174 26.0738 17.6174H10.5362V17.5168C10.5362 17.0164 10.1305 16.6107 9.6302 16.6107C9.12987 16.6107 8.72416 17.0164 8.72416 17.5168V17.6174H3.92617C2.7604 17.6174 1.81208 16.6701 1.81208 15.5034V3.92617C1.81208 2.7604 2.7604 1.81208 3.92617 1.81208H8.72517V1.91275C8.72517 2.41309 9.13087 2.81879 9.63121 2.81879C10.1315 2.81879 10.5372 2.41309 10.5372 1.91275V1.81208H26.0738C27.2396 1.81208 28.1879 2.7604 28.1879 3.92617V15.5034Z" fill="#1A83A8"/>
<path d="M9.63407 10.7617C9.13071 10.7617 8.72803 11.1634 8.72803 11.6668V13.6107C8.72803 14.1141 9.13071 14.5158 9.63407 14.5158C10.1274 14.5158 10.5401 14.1141 10.5401 13.6107V11.6668C10.5401 11.1634 10.1274 10.7617 9.63407 10.7617ZM9.63407 4.90268C9.13071 4.90268 8.72803 5.31543 8.72803 5.80872V7.76174C8.72803 8.2651 9.13071 8.66778 9.63407 8.66778C10.1274 8.66778 10.5401 8.2651 10.5401 7.76174V5.80872C10.5401 5.31543 10.1274 4.90268 9.63407 4.90268Z" fill="#1A83A8"/>
<path d="M17.0056 8.3849C17.6489 8.3849 18.1704 7.86342 18.1704 7.22014C18.1704 6.57686 17.6489 6.05537 17.0056 6.05537C16.3623 6.05537 15.8408 6.57686 15.8408 7.22014C15.8408 7.86342 16.3623 8.3849 17.0056 8.3849Z" fill="#1A83A8"/>
<path d="M21.1713 11.3859C20.7162 11.8409 20.7162 12.5779 21.1713 13.0329C21.6263 13.4879 22.3632 13.4879 22.8182 13.0329C23.2733 12.5779 23.2733 11.8409 22.8182 11.3859C22.3642 10.9309 21.6263 10.9309 21.1713 11.3859ZM22.8515 6.36444C22.4971 6.01007 21.9233 6.01007 21.5699 6.36444L16.1498 11.7846C15.7964 12.1389 15.7964 12.7128 16.1498 13.0661C16.327 13.2433 16.5585 13.3319 16.7911 13.3319C17.0236 13.3319 17.2552 13.2433 17.4323 13.0661L22.8525 7.64497C23.2048 7.29162 23.2048 6.71779 22.8515 6.36444Z" fill="#1A83A8"/>
</svg>
