<svg width="234" height="188" viewBox="0 0 234 188" fill="none" xmlns="http://www.w3.org/2000/svg">
<path d="M176.608 29.4434C184.012 29.4434 189.994 35.4256 189.994 42.8287C189.994 50.2318 184.012 56.2141 176.608 56.2141C169.205 56.2141 163.223 50.2318 163.223 42.8287" stroke="#FFE600" stroke-width="3.64631" stroke-miterlimit="10" stroke-linecap="round"/>
<path d="M34.3037 73.6006H56.5877" stroke="#FFE600" stroke-width="3.64631" stroke-miterlimit="10" stroke-linecap="round"/>
<path d="M75.0957 33.9668H102.652" stroke="#FFE600" stroke-width="3.64631" stroke-miterlimit="10" stroke-linecap="round"/>
<path d="M220.055 185.394L189.172 144.004" stroke="#FFE600" stroke-width="3.64631" stroke-miterlimit="10" stroke-linecap="round"/>
<path d="M160.157 185.395L120.375 132.04" stroke="#FFE600" stroke-width="3.64631" stroke-miterlimit="10" stroke-linecap="round"/>
<path d="M2 185.581L66.4592 99.2113C76.8908 85.2277 97.8662 85.2277 108.298 99.2113L172.757 185.581" stroke="black" stroke-width="3.64631" stroke-miterlimit="10" stroke-linecap="round"/>
<path d="M144.714 118.355L150.173 111.027C156.678 102.315 169.765 102.315 176.271 111.027L231.905 185.581" stroke="black" stroke-width="3.64631" stroke-miterlimit="10" stroke-linecap="round"/>
<path d="M49.707 121.609L74.6832 146.585L91.6578 129.61L99.1357 137.088L120.41 115.813" stroke="black" stroke-width="3.64631" stroke-linecap="round" stroke-linejoin="round"/>
<path d="M186.741 125.086L173.392 138.434L167.074 132.115L158.661 140.528" stroke="black" stroke-width="3.64631" stroke-linecap="round" stroke-linejoin="round"/>
<path d="M84.1441 12.4326H80.48C73.6377 12.4326 68.1041 17.9662 68.1041 24.8085H58.5324C53.5971 24.8085 49.6338 28.8091 49.6338 33.7071C49.6338 38.6425 53.6344 42.6058 58.5324 42.6058H103.138C109.195 42.6058 114.093 37.7078 114.093 31.6507C114.093 25.5937 109.195 20.6957 103.138 20.6957H92.4072" stroke="black" stroke-width="3.64631" stroke-miterlimit="10" stroke-linecap="round"/>
<path d="M40.8849 56.5508H37.8563C32.2106 56.5508 27.6491 61.1123 27.6491 66.7581H19.7599C15.7219 66.7581 12.4316 70.0483 12.4316 74.0864C12.4316 78.1244 15.7219 81.4147 19.7599 81.4147H56.5136C61.4864 81.4147 65.5244 77.3766 65.5244 72.4038C65.5244 67.4311 61.4864 63.393 56.5136 63.393H47.6523" stroke="black" stroke-width="3.64631" stroke-miterlimit="10" stroke-linecap="round"/>
<path d="M176.721 2V9.21614" stroke="black" stroke-width="3.64631" stroke-linecap="round" stroke-linejoin="round"/>
<path d="M147.892 13.9268L153.014 19.0491" stroke="black" stroke-width="3.64631" stroke-linecap="round" stroke-linejoin="round"/>
<path d="M135.966 42.7168H143.219" stroke="black" stroke-width="3.64631" stroke-linecap="round" stroke-linejoin="round"/>
<path d="M210.221 42.7168H217.475" stroke="black" stroke-width="3.64631" stroke-linecap="round" stroke-linejoin="round"/>
<path d="M200.426 66.4209L205.548 71.5432" stroke="black" stroke-width="3.64631" stroke-linecap="round" stroke-linejoin="round"/>
<path d="M176.721 76.2549V83.471" stroke="black" stroke-width="3.64631" stroke-linecap="round" stroke-linejoin="round"/>
<path d="M200.426 19.0491L205.548 13.9268" stroke="black" stroke-width="3.64631" stroke-linecap="round" stroke-linejoin="round"/>
<path d="M176.608 64.5902C188.688 64.5902 198.481 54.7974 198.481 42.7175C198.481 30.6375 188.688 20.8447 176.608 20.8447C164.528 20.8447 154.735 30.6375 154.735 42.7175C154.735 54.7974 164.528 64.5902 176.608 64.5902Z" stroke="black" stroke-width="3.64631" stroke-linecap="round" stroke-linejoin="round"/>
<path d="M143.892 65.8604H128.113C123.839 65.8604 120.374 69.3254 120.374 73.5999V73.6373C120.374 77.9117 123.839 81.3769 128.113 81.3769H143.892C148.167 81.3769 151.631 77.9117 151.631 73.6373V73.5999C151.631 69.3254 148.167 65.8604 143.892 65.8604Z" stroke="black" stroke-width="3.64631" stroke-miterlimit="10" stroke-linecap="round"/>
</svg>
