<svg width="64" height="64" viewBox="0 0 64 64" fill="none" xmlns="http://www.w3.org/2000/svg">
<path d="M32 64C49.6731 64 64 49.6731 64 32C64 14.3269 49.6731 0 32 0C14.3269 0 0 14.3269 0 32C0 49.6731 14.3269 64 32 64Z" fill="#1DA1F2"/>
<path d="M48.6254 22.1754C47.4504 22.6941 46.1941 23.0441 44.8691 23.2066C46.2191 22.3941 47.2566 21.1129 47.7441 19.5879C46.4816 20.3254 45.0754 20.8629 43.5879 21.1629C42.3941 19.8879 40.7004 19.0879 38.8129 19.0879C35.2004 19.0879 32.2691 22.0191 32.2691 25.6254C32.2691 26.1441 32.3316 26.6441 32.4379 27.1191C27.0004 26.8629 22.1754 24.2504 18.9504 20.3004C18.3816 21.2629 18.0629 22.3754 18.0629 23.5941C18.0629 25.8691 19.2191 27.8691 20.9754 29.0441C19.9004 29.0066 18.8941 28.7129 18.0129 28.2254V28.3066C18.0129 31.4816 20.2629 34.1254 23.2629 34.7254C22.7129 34.8754 22.1316 34.9504 21.5379 34.9504C21.1191 34.9504 20.7191 34.9129 20.3191 34.8379C21.1566 37.4379 23.5691 39.3316 26.4441 39.3816C24.2129 41.1379 21.3754 42.1816 18.3316 42.1816C17.8129 42.1816 17.2941 42.1504 16.7754 42.0941C19.6879 43.9504 23.1191 45.0316 26.8254 45.0316C38.8566 45.0316 45.4379 35.0629 45.4379 26.4316C45.4379 26.1566 45.4379 25.8754 45.4191 25.5941C46.6941 24.6754 47.8129 23.5191 48.6879 22.2066L48.6254 22.1754Z" fill="white"/>
</svg>
