<svg width="97" height="97" viewBox="0 0 97 97" fill="none" xmlns="http://www.w3.org/2000/svg">
<path d="M64.244 60.2721C51.8262 74.5567 53.0909 84.2878 53.0909 84.2878L10.2616 38.0704C10.2616 38.0704 22.8774 40.6973 42.0491 22.9311C46.4074 18.8923 52.0912 16.6421 57.8503 16.6754C63.6095 16.7087 68.972 19.0228 72.7584 23.1087C73.5609 23.9748 74.2788 24.9055 74.908 25.8893" stroke="black" stroke-width="5" stroke-linecap="round" stroke-linejoin="round"/>
<path d="M74.0088 55.3582C77.9512 59.6125 84.5957 59.8652 88.8499 55.9229C93.1041 51.9806 93.357 45.3361 89.4146 41.0818C85.4721 36.8275 78.8277 36.5748 74.5735 40.5171C70.3193 44.4594 70.0663 51.1039 74.0088 55.3582Z" stroke="#FF0606" stroke-width="5" stroke-linecap="round" stroke-linejoin="round"/>
<path d="M28.0882 72.758C26.8916 73.0278 25.6453 72.9787 24.4739 72.6148C23.3024 72.2514 22.2469 71.5868 21.4132 70.6871C20.5794 69.7874 19.9969 68.6845 19.7236 67.4888C19.4501 66.2933 19.4955 65.0466 19.8555 63.874" stroke="black" stroke-width="5" stroke-linecap="round" stroke-linejoin="round"/>
</svg>
