<svg width="13" height="15" viewBox="0 0 13 15" fill="none" xmlns="http://www.w3.org/2000/svg">
<path d="M6.5 7.42857C8.55156 7.42857 10.2143 5.76585 10.2143 3.71429C10.2143 1.66272 8.55156 0 6.5 0C4.44844 0 2.78571 1.66272 2.78571 3.71429C2.78571 5.76585 4.44844 7.42857 6.5 7.42857ZM9.1 8.35714H8.6154C7.9712 8.65312 7.25446 8.82143 6.5 8.82143C5.74554 8.82143 5.0317 8.65312 4.3846 8.35714H3.9C1.74687 8.35714 0 10.104 0 12.2571V13.4643C0 14.2333 0.623884 14.8571 1.39286 14.8571H11.6071C12.3761 14.8571 13 14.2333 13 13.4643V12.2571C13 10.104 11.2531 8.35714 9.1 8.35714Z" fill="#939393"/>
</svg>
