<svg width="64" height="64" viewBox="0 0 64 64" fill="none" xmlns="http://www.w3.org/2000/svg">
<path d="M32 64C49.6731 64 64 49.6731 64 32C64 14.3269 49.6731 0 32 0C14.3269 0 0 14.3269 0 32C0 49.6731 14.3269 64 32 64Z" fill="#E4405F"/>
<path d="M31.9996 16C27.6559 16 27.1121 16.0187 25.4059 16.0937C23.6996 16.175 22.5434 16.4437 21.5246 16.8375C20.4746 17.2437 19.5809 17.7937 18.6871 18.6812C17.7934 19.5687 17.2496 20.4625 16.8434 21.5187C16.4496 22.5375 16.1809 23.7 16.0996 25.4C16.0184 27.1062 16.0059 27.65 16.0059 31.9937C16.0059 36.3375 16.0246 36.8812 16.0996 38.5875C16.1809 40.2875 16.4496 41.45 16.8434 42.4687C17.2496 43.5187 17.7996 44.4125 18.6871 45.3062C19.5746 46.1937 20.4684 46.7437 21.5246 47.15C22.5434 47.5437 23.7059 47.8125 25.4059 47.8937C27.1121 47.975 27.6559 47.9875 31.9996 47.9875C36.3433 47.9875 36.8871 47.9687 38.5933 47.8937C40.2933 47.8125 41.4558 47.5437 42.4746 47.15C43.5246 46.7437 44.4183 46.1937 45.3121 45.3062C46.1996 44.4187 46.7496 43.525 47.1558 42.4687C47.5496 41.45 47.8183 40.2875 47.8996 38.5875C47.9808 36.8812 47.9933 36.3375 47.9933 31.9937C47.9933 27.65 47.9746 27.1062 47.8996 25.4C47.8183 23.7 47.5496 22.5375 47.1558 21.5187C46.7496 20.4687 46.1996 19.575 45.3121 18.6812C44.4246 17.7937 43.5308 17.2437 42.4746 16.8375C41.4558 16.4437 40.2933 16.175 38.5933 16.0937C36.8871 16.0187 36.3433 16 31.9996 16ZM31.9996 18.8812C36.2683 18.8812 36.7808 18.9 38.4683 18.975C40.0308 19.05 40.8746 19.3062 41.4371 19.5312C42.1871 19.8187 42.7183 20.1687 43.2808 20.725C43.8371 21.2875 44.1871 21.8187 44.4746 22.5687C44.6933 23.1312 44.9558 23.975 45.0246 25.5375C45.0996 27.225 45.1183 27.7312 45.1183 32.0062C45.1183 36.2812 45.0996 36.7875 45.0183 38.475C44.9371 40.0375 44.6746 40.8812 44.4558 41.4437C44.1558 42.1937 43.8183 42.725 43.2558 43.2875C42.6996 43.8437 42.1558 44.1937 41.4183 44.4812C40.8558 44.7 39.9996 44.9625 38.4371 45.0312C36.7371 45.1062 36.2371 45.125 31.9558 45.125C27.6746 45.125 27.1746 45.1062 25.4746 45.025C23.9121 44.9437 23.0559 44.6812 22.4934 44.4625C21.7371 44.1625 21.2121 43.825 20.6559 43.2625C20.0934 42.7062 19.7371 42.1625 19.4559 41.425C19.2371 40.8625 18.9746 40.0062 18.8934 38.4437C18.8309 36.7625 18.8121 36.2437 18.8121 31.9875C18.8121 27.725 18.8309 27.2062 18.8934 25.5062C18.9746 23.9437 19.2309 23.0875 19.4559 22.525C19.7371 21.7625 20.0934 21.2437 20.6559 20.6812C21.2121 20.125 21.7371 19.7625 22.4934 19.4812C23.0559 19.2625 23.8934 19 25.4559 18.9187C27.1559 18.8562 27.6559 18.8375 31.9371 18.8375L31.9996 18.8812ZM31.9996 23.7812C27.4621 23.7812 23.7809 27.4625 23.7809 32C23.7809 36.5375 27.4621 40.2187 31.9996 40.2187C36.5371 40.2187 40.2183 36.5375 40.2183 32C40.2183 27.4625 36.5371 23.7812 31.9996 23.7812ZM31.9996 37.3312C29.0559 37.3312 26.6684 34.9437 26.6684 32C26.6684 29.0562 29.0559 26.6687 31.9996 26.6687C34.9433 26.6687 37.3308 29.0562 37.3308 32C37.3308 34.9437 34.9433 37.3312 31.9996 37.3312ZM42.4621 23.4625C42.4621 24.525 41.5996 25.3812 40.5433 25.3812C39.4808 25.3812 38.6246 24.5187 38.6246 23.4625C38.6246 22.4062 39.4871 21.5437 40.5433 21.5437C41.5996 21.5375 42.4621 22.4 42.4621 23.4625Z" fill="white"/>
</svg>
