<svg width="170" height="170" viewBox="0 0 170 170" fill="none" xmlns="http://www.w3.org/2000/svg">
<path d="M152.923 0H44.0485C39.7017 0.00467333 35.5343 1.73324 32.4603 4.80653C29.3864 7.87982 27.6569 12.0469 27.6513 16.3936V27.0861H2.56808C2.22935 27.0861 1.89397 27.1531 1.58124 27.2832C1.26852 27.4134 0.984638 27.6041 0.745943 27.8445C0.507248 28.0848 0.318459 28.37 0.190447 28.6836C0.0624353 28.9972 -0.00226889 29.333 6.07409e-05 29.6717V139.337C0.010344 147.348 3.19756 155.028 8.86265 160.693C14.5277 166.357 22.2082 169.543 30.2193 169.553H139.101C147.113 169.544 154.795 166.358 160.461 160.693C166.127 155.027 169.314 147.346 169.323 139.334V16.3936C169.317 12.0466 167.587 7.87951 164.512 4.80632C161.437 1.73313 157.27 0.00467137 152.923 0ZM32.7909 16.3901C32.7955 13.4062 33.9832 10.5458 36.0935 8.43619C38.2038 6.32656 41.0645 5.13977 44.0485 5.13604H141.064C138.159 8.16283 136.534 12.1945 136.529 16.3901V136.758H114.017V29.6717C114.017 29.3342 113.951 29 113.821 28.6882C113.692 28.3764 113.503 28.0931 113.264 27.8546C113.025 27.6161 112.742 27.427 112.43 27.2982C112.118 27.1693 111.783 27.1033 111.446 27.1037H32.7873V16.3901H32.7909ZM30.2193 164.413C23.5704 164.405 17.1961 161.76 12.4946 157.058C7.79306 152.357 5.14804 145.983 5.13963 139.334V32.2256H108.874V139.334C108.876 144.291 110.097 149.172 112.431 153.545C114.764 157.919 118.138 161.651 122.255 164.413H30.2193ZM164.184 139.334C164.205 145.777 161.745 151.981 157.315 156.66C152.885 161.338 146.824 164.132 140.39 164.462C133.955 164.793 127.64 162.634 122.754 158.433C117.868 154.233 114.787 148.313 114.148 141.902H139.097C139.778 141.901 140.431 141.63 140.913 141.149C141.395 140.667 141.667 140.015 141.669 139.334V16.3901C141.721 13.4385 142.93 10.6254 145.036 8.55652C147.142 6.48764 149.976 5.32841 152.928 5.32841C155.88 5.32841 158.714 6.48764 160.82 8.55652C162.926 10.6254 164.135 13.4385 164.187 16.3901L164.184 139.334Z" fill="#1A171B"/>
<path d="M94.6847 69.9395H69.9583C69.2763 69.9395 68.6222 70.2104 68.1399 70.6926C67.6576 71.1749 67.3867 71.829 67.3867 72.511C67.3867 73.193 67.6576 73.8471 68.1399 74.3294C68.6222 74.8116 69.2763 75.0826 69.9583 75.0826H94.6847C95.3667 75.0826 96.0208 74.8116 96.5031 74.3294C96.9853 73.8471 97.2563 73.193 97.2563 72.511C97.2563 71.829 96.9853 71.1749 96.5031 70.6926C96.0208 70.2104 95.3667 69.9395 94.6847 69.9395Z" fill="#1A171B"/>
<path d="M94.6847 47.6436H69.9583C69.2763 47.6436 68.6222 47.9145 68.1399 48.3967C67.6576 48.879 67.3867 49.5331 67.3867 50.2151C67.3867 50.8971 67.6576 51.5512 68.1399 52.0335C68.6222 52.5157 69.2763 52.7867 69.9583 52.7867H94.6847C95.3667 52.7867 96.0208 52.5157 96.5031 52.0335C96.9853 51.5512 97.2563 50.8971 97.2563 50.2151C97.2563 49.5331 96.9853 48.879 96.5031 48.3967C96.0208 47.9145 95.3667 47.6436 94.6847 47.6436Z" fill="#1A171B"/>
<path d="M94.6851 92.1943H69.9586C69.2776 92.1943 68.6244 92.4649 68.1428 92.9465C67.6612 93.4281 67.3906 94.0813 67.3906 94.7624C67.3906 95.4434 67.6612 96.0966 68.1428 96.5782C68.6244 97.0598 69.2776 97.3304 69.9586 97.3304H94.6851C95.3662 97.3304 96.0194 97.0598 96.501 96.5782C96.9826 96.0966 97.2531 95.4434 97.2531 94.7624C97.2531 94.0813 96.9826 93.4281 96.501 92.9465C96.0194 92.4649 95.3662 92.1943 94.6851 92.1943Z" fill="#1A171B"/>
<path d="M94.684 114.484H73.8255C73.1434 114.484 72.4894 114.755 72.0071 115.238C71.5248 115.72 71.2539 116.374 71.2539 117.056C71.2539 117.738 71.5248 118.392 72.0071 118.874C72.4894 119.357 73.1434 119.627 73.8255 119.627H94.6875C95.3695 119.627 96.0236 119.357 96.5059 118.874C96.9881 118.392 97.2591 117.738 97.2591 117.056C97.2591 116.374 96.9881 115.72 96.5059 115.238C96.0236 114.755 95.366 114.484 94.684 114.484Z" fill="#1A171B"/>
<path d="M19.3294 119.624H60.121C60.803 119.624 61.457 119.353 61.9393 118.87C62.4216 118.388 62.6925 117.734 62.6925 117.052C62.6925 116.37 62.4216 115.716 61.9393 115.234C61.457 114.751 60.803 114.48 60.121 114.48H19.3294C18.6473 114.48 17.9933 114.751 17.511 115.234C17.0287 115.716 16.7578 116.37 16.7578 117.052C16.7578 117.734 17.0287 118.388 17.511 118.87C17.9933 119.353 18.6473 119.624 19.3294 119.624Z" fill="#1A171B"/>
<path d="M80.9818 136.758H50.1585C49.4764 136.758 48.8224 137.029 48.3401 137.511C47.8578 137.993 47.5869 138.647 47.5869 139.329C47.5869 140.011 47.8578 140.665 48.3401 141.148C48.8224 141.63 49.4764 141.901 50.1585 141.901H80.9818C81.6638 141.901 82.3179 141.63 82.8001 141.148C83.2824 140.665 83.5533 140.011 83.5533 139.329C83.5533 138.647 83.2824 137.993 82.8001 137.511C82.3179 137.029 81.6638 136.758 80.9818 136.758Z" fill="#1A171B"/>
<path d="M36.4577 136.758H19.3294C18.6473 136.758 17.9933 137.029 17.511 137.511C17.0287 137.993 16.7578 138.647 16.7578 139.329C16.7578 140.011 17.0287 140.665 17.511 141.148C17.9933 141.63 18.6473 141.901 19.3294 141.901H36.4577C37.1397 141.901 37.7938 141.63 38.2761 141.148C38.7584 140.665 39.0293 140.011 39.0293 139.329C39.0293 138.647 38.7584 137.993 38.2761 137.511C37.7938 137.029 37.1397 136.758 36.4577 136.758Z" fill="#1A171B"/>
<path d="M19.3294 97.3373H53.5932C54.2746 97.3373 54.9281 97.0668 55.4103 96.5853C55.8924 96.1038 56.1638 95.4507 56.1647 94.7692V50.2086C56.1628 49.5275 55.8912 48.8749 55.4092 48.3936C54.9273 47.9123 54.2743 47.6416 53.5932 47.6406H19.3294C18.648 47.6406 17.9944 47.9111 17.5123 48.3926C17.0301 48.8741 16.7587 49.5272 16.7578 50.2086V94.7692C16.7597 95.4504 17.0313 96.103 17.5133 96.5843C17.9952 97.0656 18.6482 97.3363 19.3294 97.3373ZM21.9009 52.7837H51.0181V92.1942H21.9009V52.7837Z" fill="#1A171B"/>
</svg>
