<svg width="64" height="64" viewBox="0 0 64 64" fill="none" xmlns="http://www.w3.org/2000/svg">
<path d="M32 64C49.6731 64 64 49.6731 64 32C64 14.3269 49.6731 0 32 0C14.3269 0 0 14.3269 0 32C0 49.6731 14.3269 64 32 64Z" fill="#3C5A99"/>
<path d="M34.4877 47.9996V33.4246H39.4002L40.1377 27.7184H34.4877V24.0871C34.4877 22.4371 34.9439 21.3184 37.3064 21.3184H40.3002V16.2309C39.7814 16.1621 37.9939 16.0059 35.9127 16.0059C31.5689 16.0059 28.5939 18.6559 28.5939 23.5246V27.7246H23.7002V33.4308H28.5939V47.9996H34.4877Z" fill="white"/>
</svg>
